<?xml version="1.0" standalone="no"?>
<!DOCTYPE svg PUBLIC "-//W3C//DTD SVG 1.1//EN" "http://www.w3.org/Graphics/SVG/1.1/DTD/svg11.dtd" >
<svg xmlns="http://www.w3.org/2000/svg" xmlns:xlink="http://www.w3.org/1999/xlink" version="1.1">
<metadata>
Created by FontForge 20161013 at Sun Apr 26 21:17:03 2020
 By ,,,
Copyright (c) 2020 by Oleh Lishchuk. All rights reserved.
</metadata>
<defs>
<font id="MazzardM-Light" horiz-adv-x="805" >
  <font-face 
    font-family="Mazzard M Light"
    font-weight="350"
    font-stretch="normal"
    units-per-em="1000"
    panose-1="0 0 0 0 0 0 0 0 0 0"
    ascent="850"
    descent="-150"
    x-height="450"
    cap-height="675"
    bbox="-108 -237 1288 935"
    underline-thickness="50"
    underline-position="-175"
    unicode-range="U+000D-FB04"
  />
    <missing-glyph />
    <glyph glyph-name="f_f" unicode="ff" horiz-adv-x="570" 
d="M19 401v49h79v148q0 54 34.5 90.5t86.5 36.5h59v-53h-55q-30 0 -50 -23t-20 -57v-142h218v148q0 54 34.5 90.5t86.5 36.5h59v-53h-55q-30 0 -50 -23t-20 -57v-142h126v-49h-126v-401h-55v401h-218v-401h-55v401h-79z" />
    <glyph glyph-name="fl" unicode="fl" horiz-adv-x="494" 
d="M98 401h-79v49h79v148q0 54 34.5 90.5t86.5 36.5h59v-53h-55q-30 0 -50 -23t-20 -57v-142h126v-49h-126v-401h-55v401zM368 0v725h55v-725h-55z" />
    <glyph glyph-name="f_f_l" unicode="ffl" horiz-adv-x="767" 
d="M98 401h-79v49h79v148q0 54 34.5 90.5t86.5 36.5h59v-53h-55q-30 0 -50 -23t-20 -57v-142h218v148q0 54 34.5 90.5t86.5 36.5h59v-53h-55q-30 0 -50 -23t-20 -57v-142h126v-49h-126v-401h-55v401h-218v-401h-55v401zM696 0h-55v725h55v-725z" />
    <glyph glyph-name="uni0000" horiz-adv-x="0" 
 />
    <glyph glyph-name="uni0000" horiz-adv-x="0" 
 />
    <glyph glyph-name="uni000D" unicode="&#xd;" horiz-adv-x="250" 
 />
    <glyph glyph-name="space" unicode=" " horiz-adv-x="273" 
 />
    <glyph glyph-name="exclam.ss11" unicode="!" horiz-adv-x="224" 
d="M87 207l-6 468h62l-6 -468h-50zM66 0v92h92v-92h-92z" />
    <glyph glyph-name="quotedbl" unicode="&#x22;" horiz-adv-x="324" 
d="M202 675h54l-5 -200h-44zM67 675h55l-6 -200h-43z" />
    <glyph glyph-name="numbersign" unicode="#" horiz-adv-x="678" 
d="M26 245h164l32 185h-153v49h162l35 196h50l-35 -196h166l35 196h50l-35 -196h156l-1 -49h-163l-33 -185h153l1 -49h-162l-35 -196h-50l34 196h-166l-34 -196h-50l34 196h-155v49zM240 245h166l33 185h-167z" />
    <glyph glyph-name="dollar" unicode="$" horiz-adv-x="599" 
d="M277 -8q-86 7 -146 51t-75 110l59 17q10 -52 62 -86.5t126 -34.5q77 0 128.5 38t51.5 96q0 39 -27 66t-60.5 39.5t-86.5 24.5q-43 11 -68 18t-61.5 22.5t-56 33t-34.5 46.5t-15 65q0 77 56.5 128t144.5 57v112h45v-113q80 -6 135.5 -47.5t70.5 -101.5l-60 -17
q-9 47 -56 78t-112 31q-70 0 -117 -35t-47 -89q0 -23 11 -42t25.5 -31t43 -23.5t50 -17.5t60.5 -16q36 -8 62 -15.5t58 -22t51.5 -33t33.5 -47.5t14 -66q0 -82 -61.5 -136t-158.5 -59v-112h-46v112z" />
    <glyph glyph-name="percent" unicode="%" horiz-adv-x="814" 
d="M205 684q70 0 116.5 -47t46.5 -117t-46.5 -116.5t-116.5 -46.5t-116.5 46.5t-46.5 116.5t46.5 117t116.5 47zM445 155q0 70 47 116.5t117 46.5t116.5 -46.5t46.5 -116.5t-46.5 -117t-116.5 -47t-117 47t-47 117zM608 44q47 0 79 32t32 79t-32 78.5t-79 31.5t-78.5 -31.5
t-31.5 -78.5t31.5 -79t78.5 -32zM95 520q0 -47 31.5 -78.5t78.5 -31.5t78.5 31.5t31.5 78.5t-31.5 79t-78.5 32t-78.5 -32t-31.5 -79zM154 0l-35 29l542 646l34 -29z" />
    <glyph glyph-name="ampersand" unicode="&#x26;" horiz-adv-x="667" 
d="M56 193q0 64 38 107.5t105 81.5q-63 88 -63 158q0 64 42.5 103.5t108.5 39.5q68 0 114.5 -40.5t46.5 -101.5q0 -31 -12.5 -56.5t-40 -48t-49 -35.5t-61.5 -35q13 -13 39 -41l158 -159q42 70 42 162h55q0 -114 -57 -203l124 -125h-80l-80 80q-83 -88 -203 -88
q-97 0 -162 58t-65 143zM114 190q0 -61 48 -102t122 -41q96 0 164 73l-162 163q-44 46 -52 56q-57 -33 -88.5 -67t-31.5 -82zM250 409q30 15 44.5 23t37.5 22.5t33.5 26t19 27.5t8.5 34q0 37 -29.5 61.5t-73.5 24.5q-42 0 -69 -24.5t-27 -66.5q0 -58 56 -128z" />
    <glyph glyph-name="quotesingle" unicode="'" horiz-adv-x="185" 
d="M73 475l-6 200h55l-6 -200h-43z" />
    <glyph glyph-name="parenleft.case" unicode="(" horiz-adv-x="286" 
d="M207 775h57q-6 -7 -16.5 -19.5t-37 -55.5t-46.5 -90t-36.5 -121t-16.5 -151t16 -150t38 -123t44.5 -89t38.5 -58l16 -18h-57q-6 6 -16 18t-36 53.5t-46 88.5t-36 122.5t-16 155.5t15.5 154.5t37.5 123.5t44 86.5t38 55.5z" />
    <glyph glyph-name="parenright.case" unicode=")" horiz-adv-x="286" 
d="M78 -100h-56q6 7 16.5 19.5t37 55.5t46.5 90.5t36.5 121.5t16.5 151t-16 150t-38 123t-44.5 88.5t-38.5 56.5l-16 19h56q6 -6 16 -18t36 -53.5t46 -88t36 -122t16 -155.5t-15.5 -154.5t-37.5 -124t-44 -87t-37 -54.5z" />
    <glyph glyph-name="asterisk" unicode="*" horiz-adv-x="412" 
d="M85 417l-28 48l114 54l-114 54l28 48l104 -72l-10 126h55l-10 -126l104 72l27 -48l-114 -54l114 -54l-27 -48l-104 72l10 -126h-55l10 126z" />
    <glyph glyph-name="plus" unicode="+" horiz-adv-x="600" 
d="M77 319v53h197v197h52v-197h197v-53h-197v-197h-52v197h-197z" />
    <glyph glyph-name="comma.ss11" unicode="," horiz-adv-x="195" 
d="M145 0q0 -64 -32.5 -107t-80.5 -43v35q32 0 53 32.5t21 82.5h-56v96h95v-96z" />
    <glyph glyph-name="hyphen.case" unicode="-" horiz-adv-x="388" 
d="M72 363h244v-51h-244v51z" />
    <glyph glyph-name="period.ss11" unicode="." horiz-adv-x="195" 
d="M50 0v96h95v-96h-95z" />
    <glyph glyph-name="slash.case" unicode="/" horiz-adv-x="463" 
d="M0 -100l408 875h55l-409 -875h-54z" />
    <glyph glyph-name="uni24EA" unicode="0" horiz-adv-x="835" 
d="M54 338q0 151 106.5 257t257.5 106t257 -106t106 -257t-106 -257.5t-257 -106.5q-152 0 -258 106t-106 258zM418 14q134 0 228 94.5t94 229.5q0 134 -94.5 229t-227.5 95q-134 0 -228.5 -95t-94.5 -229q0 -135 94.5 -229.5t228.5 -94.5zM279 279v118q0 55 40 92.5
t99 37.5t99 -37.5t40 -92.5v-118q0 -56 -40 -93.5t-99 -37.5t-99 37.5t-40 93.5zM320 397v-118q0 -39 28 -65t70 -26q41 0 69.5 26t28.5 65v118q0 39 -28.5 65t-69.5 26q-42 0 -70 -26t-28 -65z" />
    <glyph glyph-name="uni2460" unicode="1" horiz-adv-x="835" 
d="M54 338q0 151 106.5 257t257.5 106t257 -106t106 -257t-106 -257.5t-257 -106.5q-152 0 -258 106t-106 258zM95 338q0 -135 94.5 -229.5t228.5 -94.5t228 94.5t94 229.5q0 134 -94.5 229t-227.5 95q-134 0 -228.5 -95t-94.5 -229zM312 465l108 58h28v-371h-41v321
l-79 -43z" />
    <glyph glyph-name="uni2461" unicode="2" horiz-adv-x="835" 
d="M54 338q0 151 106.5 257t257.5 106t257 -106t106 -257t-106 -257.5t-257 -106.5q-152 0 -258 106t-106 258zM95 338q0 -135 94.5 -229.5t228.5 -94.5t228 94.5t94 229.5q0 134 -94.5 229t-227.5 95q-134 0 -228.5 -95t-94.5 -229zM415 527q52 0 88.5 -32.5t36.5 -78.5
q0 -54 -77 -124l-106 -101h189v-39h-253v29l142 137q21 20 32 32.5t20.5 30t9.5 34.5q0 30 -24 51t-58 21q-62 0 -87 -64l-38 18q16 39 49.5 62.5t75.5 23.5z" />
    <glyph glyph-name="uni2462" unicode="3" horiz-adv-x="835" 
d="M418 701q151 0 257 -106t106 -257t-106 -257.5t-257 -106.5q-152 0 -258 106t-106 258q0 151 106.5 257t257.5 106zM95 338q0 -135 94.5 -229.5t228.5 -94.5t228 94.5t94 229.5q0 134 -94.5 229t-227.5 95q-134 0 -228.5 -95t-94.5 -229zM283 220l39 14q9 -21 32.5 -34
t53.5 -13q40 0 66 20t26 49t-25.5 48.5t-63.5 19.5h-28v34h21q37 0 62 18.5t25 46.5q0 27 -24 45.5t-59 18.5q-62 0 -84 -46l-36 14q15 32 47.5 52t74.5 20q53 0 88.5 -29.5t35.5 -73.5q0 -26 -16.5 -48t-44.5 -33q32 -11 50.5 -35t18.5 -53q0 -46 -38 -76.5t-95 -30.5
q-44 0 -78 19.5t-48 52.5z" />
    <glyph glyph-name="uni2463" unicode="4" horiz-adv-x="835" 
d="M54 338q0 151 106.5 257t257.5 106t257 -106t106 -257t-106 -257.5t-257 -106.5q-152 0 -258 106t-106 258zM95 338q0 -135 94.5 -229.5t228.5 -94.5t228 94.5t94 229.5q0 134 -94.5 229t-227.5 95q-134 0 -228.5 -95t-94.5 -229zM248 269l210 254h38v-254h56v-40h-56
v-77h-41v77h-207v40zM298 269h157v191z" />
    <glyph glyph-name="uni2464" unicode="5" horiz-adv-x="835" 
d="M54 338q0 151 106.5 257t257.5 106t257 -106t106 -257t-106 -257.5t-257 -106.5q-152 0 -258 106t-106 258zM95 338q0 -135 94.5 -229.5t228.5 -94.5t228 94.5t94 229.5q0 134 -94.5 229t-227.5 95q-134 0 -228.5 -95t-94.5 -229zM283 227l41 12q27 -52 89 -52
q40 0 67 23.5t27 57.5q0 35 -28.5 59t-69.5 24h-99l18 172h193v-38h-159l-10 -97h64q57 0 95.5 -34.5t38.5 -84.5q0 -52 -39.5 -86.5t-97.5 -34.5q-45 0 -79.5 21.5t-50.5 57.5z" />
    <glyph glyph-name="uni2465" unicode="6" horiz-adv-x="835" 
d="M54 338q0 151 106.5 257t257.5 106t257 -106t106 -257t-106 -257.5t-257 -106.5q-152 0 -258 106t-106 258zM95 338q0 -135 94.5 -229.5t228.5 -94.5t228 94.5t94 229.5q0 134 -94.5 229t-227.5 95q-134 0 -228.5 -95t-94.5 -229zM286 267v130q0 55 40 92.5t99 37.5
q82 0 120 -64l-37 -19q-27 43 -84 43q-41 0 -69.5 -26t-28.5 -63v-60q14 22 40 36t57 14q55 0 93.5 -35t38.5 -86q0 -50 -39 -84.5t-95 -34.5q-58 0 -96.5 34.5t-38.5 84.5zM421 187q38 0 64.5 23.5t26.5 57.5t-26.5 57t-64.5 23q-40 0 -66.5 -23t-26.5 -57q0 -35 26.5 -58
t66.5 -23z" />
    <glyph glyph-name="uni2466" unicode="7" horiz-adv-x="835" 
d="M54 338q0 151 106.5 257t257.5 106t257 -106t106 -257t-106 -257.5t-257 -106.5q-152 0 -258 106t-106 258zM418 14q134 0 228 94.5t94 229.5q0 134 -94.5 229t-227.5 95q-134 0 -228.5 -95t-94.5 -229q0 -135 94.5 -229.5t228.5 -94.5zM285 485v38h244v-40l-133 -331
h-46l134 333h-199z" />
    <glyph glyph-name="uni2467" unicode="8" horiz-adv-x="835" 
d="M418 701q151 0 257 -106t106 -257t-106 -257.5t-257 -106.5q-152 0 -258 106t-106 258q0 151 106.5 257t257.5 106zM418 14q134 0 228 94.5t94 229.5q0 134 -94.5 229t-227.5 95q-134 0 -228.5 -95t-94.5 -229q0 -135 94.5 -229.5t228.5 -94.5zM359 345
q-28 12 -44.5 34.5t-16.5 49.5q0 41 35.5 69.5t87.5 28.5t87 -28.5t35 -69.5q0 -57 -60 -84q33 -12 52.5 -36.5t19.5 -55.5q0 -45 -38.5 -75t-95.5 -30t-95.5 30t-38.5 75q0 31 19.5 55.5t52.5 36.5zM421 187q39 0 65 20t26 50q0 29 -26 48.5t-65 19.5q-40 0 -66 -19.5
t-26 -48.5q0 -30 26 -50t66 -20zM421 364q35 0 57.5 17.5t22.5 44.5q0 26 -23 43.5t-57 17.5q-35 0 -58 -17.5t-23 -43.5q0 -27 23 -44.5t58 -17.5z" />
    <glyph glyph-name="uni2468" unicode="9" horiz-adv-x="835" 
d="M54 338q0 151 106.5 257t257.5 106t257 -106t106 -257t-106 -257.5t-257 -106.5q-152 0 -258 106t-106 258zM95 338q0 -135 94.5 -229.5t228.5 -94.5t228 94.5t94 229.5q0 134 -94.5 229t-227.5 95q-134 0 -228.5 -95t-94.5 -229zM282 405q0 52 39 87t95 35
q57 0 95 -34.5t38 -85.5v-130q0 -55 -40 -92t-101 -37q-85 0 -123 64l36 19q28 -44 87 -44q43 0 72 26t29 64v59q-30 -55 -96 -55q-55 0 -93 35.5t-38 88.5zM416 320q39 0 65 24.5t26 59.5t-26 59t-65 24t-65 -24t-26 -59t26 -59.5t65 -24.5z" />
    <glyph glyph-name="colon.ss11" unicode=":" horiz-adv-x="195" 
d="M50 0v96h95v-96h-95zM145 354h-95v96h95v-96z" />
    <glyph glyph-name="semicolon.ss11" unicode=";" horiz-adv-x="195" 
d="M145 0q0 -64 -32.5 -107t-80.5 -43v35q32 0 53 32.5t21 82.5h-56v96h95v-96zM50 354v96h95v-96h-95z" />
    <glyph glyph-name="less" unicode="&#x3c;" horiz-adv-x="600" 
d="M72 360l436 204v-58l-360 -168l360 -169v-57l-436 203v45z" />
    <glyph glyph-name="equal" unicode="=" horiz-adv-x="600" 
d="M523 422h-446v53h446v-53zM523 200h-446v53h446v-53z" />
    <glyph glyph-name="greater" unicode="&#x3e;" horiz-adv-x="600" 
d="M92 169l360 169l-360 168v58l436 -204v-45l-436 -203v57z" />
    <glyph glyph-name="question.ss11" unicode="?" horiz-adv-x="510" 
d="M23 540q22 64 81.5 103.5t137.5 39.5q95 0 160.5 -55t65.5 -135q0 -40 -19 -76.5t-46 -60t-53.5 -41t-45.5 -25.5l-19 -7l-3 -82h-52l-5 113l20 7.5t44 22t56.5 36.5t44.5 50t20 64q0 56 -48.5 95t-118.5 39q-58 0 -102 -29t-60 -77zM215 92h92v-92h-92v92z" />
    <glyph glyph-name="at" unicode="@" horiz-adv-x="913" 
d="M457 633q173 0 290.5 -114.5t117.5 -278.5q0 -95 -41.5 -155t-108.5 -60q-41 0 -72.5 23t-42.5 59q-56 -82 -156 -82q-81 0 -135.5 57.5t-54.5 142.5t54.5 142.5t135.5 57.5q97 0 152 -76v69h48v-278q0 -29 20.5 -48.5t50.5 -19.5q46 0 74 46t28 120q0 145 -104 246
t-257 101q-154 0 -257 -103t-103 -257q0 -153 102.5 -256.5t252.5 -103.5q92 0 166 45l20 -44q-83 -49 -187 -49q-170 0 -286 117t-116 291t117 291t292 117zM450 73q62 0 104 43.5t42 108.5t-42 108.5t-104 43.5t-104 -43.5t-42 -108.5t42 -108.5t104 -43.5z" />
    <glyph glyph-name="A" unicode="A" horiz-adv-x="692" 
d="M22 0l301 675h46l301 -675h-63l-74 167h-374l-74 -167h-63zM346 587l-162 -364h324z" />
    <glyph glyph-name="B" unicode="B" horiz-adv-x="672" 
d="M87 0v675h316q79 0 131 -49t52 -122q0 -97 -85 -146q55 -20 87.5 -66t32.5 -105q0 -80 -57 -133.5t-142 -53.5h-335zM422 325h-274v-269h274q58 0 97.5 38.5t39.5 95.5q0 58 -39 96.5t-98 38.5zM403 619h-255v-238h255q52 0 87 34t35 85q0 50 -35 84.5t-87 34.5z" />
    <glyph glyph-name="C" unicode="C" horiz-adv-x="755" 
d="M57 338q0 148 98.5 246.5t246.5 98.5q97 0 175.5 -44.5t123.5 -121.5l-58 -23q-37 61 -100.5 96t-140.5 35q-121 0 -202.5 -82t-81.5 -205t81.5 -205.5t202.5 -82.5q77 0 140.5 35t100.5 96l58 -23q-45 -77 -124 -122t-175 -45q-148 0 -246.5 99t-98.5 248z" />
    <glyph glyph-name="D" unicode="D" horiz-adv-x="752" 
d="M87 0v675h263q147 0 246.5 -97t99.5 -240t-99.5 -240.5t-246.5 -97.5h-263zM350 619h-202v-563h202q121 0 202.5 81t81.5 201q0 118 -81.5 199.5t-202.5 81.5z" />
    <glyph glyph-name="E" unicode="E" horiz-adv-x="611" 
d="M87 675h479v-56h-418v-249h371v-56h-371v-258h423v-56h-484v675z" />
    <glyph glyph-name="F" unicode="F" horiz-adv-x="604" 
d="M148 0h-61v675h479v-56h-418v-243h371v-56h-371v-320z" />
    <glyph glyph-name="G" unicode="G" horiz-adv-x="800" 
d="M57 338q0 148 100 246.5t251 98.5q98 0 178 -44.5t124 -121.5l-57 -23q-37 61 -101.5 96t-143.5 35q-124 0 -207 -82t-83 -205t81 -205.5t199 -82.5q108 0 187 68.5t91 174.5h-305v57h372v-25q-4 -142 -102 -238t-242 -96q-146 0 -244 99.5t-98 247.5z" />
    <glyph glyph-name="H" unicode="H" horiz-adv-x="739" 
d="M87 0v675h61v-305h444v305h60v-675h-60v314h-444v-314h-61z" />
    <glyph glyph-name="I" unicode="I" horiz-adv-x="235" 
d="M87 0v675h61v-675h-61z" />
    <glyph glyph-name="Jacute" unicode="J" horiz-adv-x="582" 
d="M246 -9q-68 0 -124 30.5t-90 83.5l50 32q25 -41 68.5 -65t95.5 -24q83 0 138.5 55t55.5 137v435h58v-435q0 -106 -72 -177.5t-180 -71.5zM426 753l-21 33l155 105l29 -48z" />
    <glyph glyph-name="K" unicode="K" horiz-adv-x="612" 
d="M184 344l310 331h78l-311 -331l330 -344h-78zM148 0h-61v675h61v-675z" />
    <glyph glyph-name="L" unicode="L" horiz-adv-x="562" 
d="M87 0v675h61v-619h380v-56h-441z" />
    <glyph glyph-name="M" unicode="M" horiz-adv-x="875" 
d="M87 675h61l290 -505l290 505h60v-675h-60v561l-271 -472h-39l-270 471v-560h-61v675z" />
    <glyph glyph-name="N" unicode="N" horiz-adv-x="741" 
d="M87 675h52l457 -570v570h58v-675h-52l-456 570v-570h-59v675z" />
    <glyph glyph-name="O" unicode="O" 
d="M402 -9q-148 0 -246.5 99t-98.5 248q0 148 98.5 246.5t246.5 98.5t247 -98.5t99 -246.5t-99 -247.5t-247 -99.5zM118 338q0 -123 81.5 -205.5t202.5 -82.5q122 0 203 82t81 206q0 123 -81 205t-203 82q-121 0 -202.5 -82t-81.5 -205z" />
    <glyph glyph-name="P" unicode="P" horiz-adv-x="637" 
d="M87 0v675h292q90 0 150 -58t60 -144t-60 -144t-150 -58h-231v-271h-61zM379 619h-231v-292h231q63 0 105.5 41.5t42.5 104.5q0 62 -42.5 104t-105.5 42z" />
    <glyph glyph-name="Q" unicode="Q" 
d="M402 -9q-148 0 -246.5 99t-98.5 248q0 148 98.5 246.5t246.5 98.5t247 -98.5t99 -246.5q0 -147 -97 -246l100 -100l-40 -41l-104 104q-91 -64 -205 -64zM402 625q-121 0 -202.5 -82t-81.5 -205t81.5 -205.5t202.5 -82.5q92 0 162 48l-123 123l40 41l127 -127
q78 81 78 203q0 123 -81 205t-203 82z" />
    <glyph glyph-name="R.1" unicode="R" horiz-adv-x="652" 
d="M148 0h-61v675h301q91 0 151 -55.5t60 -138.5q0 -59 -32 -105.5t-86 -69.5q73 -43 89 -119l46 -187h-60l-44 176q-10 45 -47.5 74.5t-83.5 29.5h-233v-280zM388 619h-240v-282h240q64 0 106.5 40t42.5 101q0 60 -42.5 100.5t-106.5 40.5z" />
    <glyph glyph-name="S" unicode="S" horiz-adv-x="599" 
d="M56 153l60 17q9 -52 61 -86t126 -34q77 0 128.5 37.5t51.5 95.5q0 39 -27 66t-60.5 39.5t-86.5 24.5q-43 11 -68 18t-61.5 22.5t-56 33t-34.5 46.5t-15 65q0 81 63 133t160 52q88 0 151 -42.5t78 -108.5l-60 -16q-9 47 -56 78t-112 31q-70 0 -117 -35t-47 -89
q0 -29 14 -50t44 -36t57.5 -24t74.5 -20t78 -21.5t67.5 -31t55 -53.5t18.5 -78q0 -86 -68 -141t-173 -55q-95 0 -162.5 46t-83.5 116z" />
    <glyph glyph-name="T" unicode="T" horiz-adv-x="656" 
d="M27 619v56h602v-56h-271v-619h-60v619h-271z" />
    <glyph glyph-name="U" unicode="U" horiz-adv-x="719" 
d="M77 270v405h60v-405q0 -95 64 -158.5t159 -63.5q94 0 158 64t64 158v405h60v-405q0 -119 -80.5 -199t-201.5 -80t-202 80t-81 199z" />
    <glyph glyph-name="V" unicode="V" horiz-adv-x="682" 
d="M22 675h63l256 -587l256 587h63l-296 -675h-46z" />
    <glyph glyph-name="W" unicode="W" horiz-adv-x="985" 
d="M256 0l-234 675h61l195 -577l191 577h47l191 -577l195 577h62l-235 -675h-46l-190 570l-191 -570h-46z" />
    <glyph glyph-name="X" unicode="X" horiz-adv-x="640" 
d="M31 675h72l217 -284l217 284h72l-253 -331l263 -344h-72l-227 297l-226 -297h-72l262 344z" />
    <glyph glyph-name="Y" unicode="Y" horiz-adv-x="637" 
d="M22 675h69l227 -344l228 344h69l-267 -399v-276h-60v274z" />
    <glyph glyph-name="Z" unicode="Z" horiz-adv-x="622" 
d="M581 0h-533v46l446 573h-444v56h529v-46l-447 -573h449v-56z" />
    <glyph glyph-name="bracketleft.case" unicode="[" horiz-adv-x="290" 
d="M73 -100v875h195v-49h-141v-777h141v-49h-195z" />
    <glyph glyph-name="backslash.case" unicode="\" horiz-adv-x="463" 
d="M463 -100h-55l-408 875h54z" />
    <glyph glyph-name="bracketright.case" unicode="]" horiz-adv-x="290" 
d="M217 -100h-195v49h141v777h-141v49h195v-875z" />
    <glyph glyph-name="asciicircum" unicode="^" horiz-adv-x="600" 
d="M277 675h45l201 -273h-63l-160 211l-161 -211h-62z" />
    <glyph glyph-name="underscore" unicode="_" horiz-adv-x="273" 
d="M0 -50h273v-52h-273v52z" />
    <glyph glyph-name="grave" unicode="`" horiz-adv-x="310" 
d="M63 770l29 48l155 -105l-21 -33z" />
    <glyph glyph-name="a" unicode="a" horiz-adv-x="570" 
d="M43 225q0 100 64 166.5t159 66.5q55 0 101 -24t77 -66v82h55v-450h-55v82q-64 -90 -178 -90q-95 0 -159 66.5t-64 166.5zM272 403q-73 0 -122 -51t-49 -127t49 -127t122 -51t121.5 51t48.5 127t-48.5 127t-121.5 51z" />
    <glyph glyph-name="b" unicode="b" horiz-adv-x="569" 
d="M71 725h54v-357q31 42 77 66t101 24q95 0 159 -66.5t64 -166.5t-64 -166.5t-159 -66.5q-114 0 -178 90v-82h-54v725zM298 403q-73 0 -122 -51t-49 -127t49 -127t122 -51t122 51t49 127t-49 127t-122 51z" />
    <glyph glyph-name="c" unicode="c" horiz-adv-x="523" 
d="M276 -8q-99 0 -166 66.5t-67 166.5t67 166.5t166 66.5q70 0 126.5 -35t83.5 -94l-55 -18q-21 42 -62.5 67t-92.5 25q-75 0 -125 -51t-50 -127t50 -127t125 -51q51 0 92.5 25t62.5 67l55 -18q-27 -59 -83.5 -94t-126.5 -35z" />
    <glyph glyph-name="d" unicode="d" horiz-adv-x="569" 
d="M43 225q0 100 64 166.5t159 66.5q55 0 101 -24t77 -66v357h55v-725h-55v82q-64 -90 -178 -90q-95 0 -159 66.5t-64 166.5zM272 403q-73 0 -122 -51t-49 -127t49 -127t122 -51t121.5 51t48.5 127t-48.5 127t-121.5 51z" />
    <glyph glyph-name="e" unicode="e" horiz-adv-x="541" 
d="M44 225q0 100 65.5 166.5t163.5 66.5t164 -66.5t66 -165.5q0 -12 -1 -18h-402q5 -71 56 -117.5t125 -46.5q96 0 148 75l53 -18q-30 -51 -83 -80t-118 -29q-102 0 -169.5 66.5t-67.5 166.5zM272 406q-66 0 -114 -43t-57 -110h345q-9 67 -57.5 110t-116.5 43z" />
    <glyph glyph-name="f" unicode="f" horiz-adv-x="298" 
d="M98 401h-79v49h79v148q0 54 34.5 90.5t86.5 36.5h59v-53h-55q-30 0 -50 -23t-20 -57v-142h126v-49h-126v-401h-55v401z" />
    <glyph glyph-name="g.1" unicode="g" horiz-adv-x="569" 
d="M44 225q0 100 63.5 166.5t158.5 66.5q55 0 101 -24t77 -66v82h55v-456q0 -97 -66.5 -162t-165.5 -65q-43 0 -86 15l21 50q32 -10 63 -10q77 0 128 49t51 123v88q-64 -90 -178 -90q-95 0 -158.5 66.5t-63.5 166.5zM100 225q0 -76 49 -127t122 -51t122 51t49 127t-49 127
t-122 51t-122 -51t-49 -127z" />
    <glyph glyph-name="h" unicode="h" horiz-adv-x="547" 
d="M126 0h-55v725h55v-361q53 94 171 94q79 0 130.5 -52t51.5 -130v-276h-55v263q0 61 -40 101.5t-100 40.5q-67 0 -112.5 -41.5t-45.5 -102.5v-261z" />
    <glyph glyph-name="i.ss11" unicode="i" horiz-adv-x="196" 
d="M71 0v450h55v-450h-55zM60 564v78h77v-78h-77z" />
    <glyph glyph-name="j" unicode="j" horiz-adv-x="203" 
d="M-25 -225v53h33q29 0 49.5 23t20.5 57v542h55v-548q0 -54 -34.5 -90.5t-86.5 -36.5h-37zM64 599q0 17 11.5 29t29.5 12t30 -12t12 -29q0 -18 -12 -29.5t-30 -11.5t-29.5 11.5t-11.5 29.5z" />
    <glyph glyph-name="k" unicode="k" horiz-adv-x="442" 
d="M126 0h-55v725h55v-725zM354 0l-211 233l193 217h68l-192 -217l211 -233h-69z" />
    <glyph glyph-name="l" unicode="l" horiz-adv-x="196" 
d="M71 0v725h55v-725h-55z" />
    <glyph glyph-name="m" unicode="m" horiz-adv-x="849" 
d="M126 0h-55v450h55v-75q50 83 158 83q52 0 93 -26t61 -70q10 19 25 37.5t54.5 38.5t89.5 20q75 0 124.5 -48t49.5 -120v-290h-55v277q0 55 -36.5 91.5t-91.5 36.5q-62 0 -103.5 -37.5t-41.5 -92.5v-275h-55v277q0 55 -36 91.5t-91 36.5q-62 0 -103.5 -37t-41.5 -93v-275z
" />
    <glyph glyph-name="n" unicode="n" horiz-adv-x="549" 
d="M71 0v450h55v-87q52 95 172 95q79 0 131 -52t52 -129v-277h-55v263q0 61 -40.5 101.5t-101.5 40.5q-67 0 -112.5 -41.5t-45.5 -102.5v-261h-55z" />
    <glyph glyph-name="o" unicode="o" horiz-adv-x="553" 
d="M277 458q99 0 166 -66.5t67 -166.5t-67 -166.5t-166 -66.5q-100 0 -167 66.5t-67 166.5t67 166.5t167 66.5zM101 225q0 -76 50 -127t125 -51q76 0 126 51t50 127t-50 127t-126 51q-75 0 -125 -51t-50 -127z" />
    <glyph glyph-name="p" unicode="p" horiz-adv-x="569" 
d="M71 -225v675h54v-82q31 42 77 66t101 24q95 0 159 -66.5t64 -166.5t-64 -166.5t-159 -66.5q-114 0 -178 90v-307h-54zM298 403q-73 0 -122 -51t-49 -127t49 -127t122 -51t122 51t49 127t-49 127t-122 51z" />
    <glyph glyph-name="q" unicode="q" horiz-adv-x="569" 
d="M43 225q0 100 64 166.5t159 66.5q55 0 101 -24t77 -66v82h55v-675h-55v307q-31 -42 -77 -66t-101 -24q-95 0 -159 66.5t-64 166.5zM272 403q-73 0 -122 -51t-49 -127t49 -127t122 -51t121.5 51t48.5 127t-48.5 127t-121.5 51z" />
    <glyph glyph-name="r" unicode="r" horiz-adv-x="332" 
d="M71 0v450h55v-87q52 95 185 95v-61q-12 4 -27 4q-67 0 -112.5 -41t-45.5 -102v-258h-55z" />
    <glyph glyph-name="s" unicode="s" horiz-adv-x="416" 
d="M207 -8q-68 0 -113 30.5t-54 79.5l52 10q7 -31 38.5 -51t78.5 -20q48 0 79 21.5t31 54.5q0 47 -64 70l-114 42q-88 31 -88 107q0 57 44 89.5t112 32.5q62 0 103 -27.5t50 -72.5l-52 -11q-7 28 -35 45t-70 17q-43 0 -71 -19.5t-28 -49.5q0 -43 53 -62l118 -42
q95 -36 95 -116q0 -59 -46.5 -93.5t-118.5 -34.5z" />
    <glyph glyph-name="t.1" unicode="t" horiz-adv-x="318" 
d="M94 401h-77v29l101 102h31v-82h134v-49h-134v-268q0 -34 20 -57t49 -23h65v-53h-68q-52 0 -86.5 36.5t-34.5 90.5v274z" />
    <glyph glyph-name="u.1" unicode="u" horiz-adv-x="544" 
d="M272 -8q-87 0 -145.5 58t-58.5 146v254h55v-249q0 -67 42.5 -110.5t107.5 -43.5q63 0 105.5 43.5t42.5 110.5v249h55v-254q0 -88 -58 -146t-146 -58z" />
    <glyph glyph-name="v" unicode="v" horiz-adv-x="473" 
d="M212 0l-198 450h58l165 -378l165 378h57l-198 -450h-49z" />
    <glyph glyph-name="w" unicode="w" horiz-adv-x="676" 
d="M171 0l-157 450h56l124 -364l121 364h47l121 -364l124 364h55l-156 -450h-47l-121 357l-120 -357h-47z" />
    <glyph glyph-name="x" unicode="x" horiz-adv-x="465" 
d="M87 0h-66l179 230l-171 220h66l138 -176l138 176h66l-171 -220l178 -230h-66l-145 185z" />
    <glyph glyph-name="y.1" unicode="y" horiz-adv-x="456" 
d="M198 13l-184 437h58l154 -371l158 371h58l-290 -675h-56z" />
    <glyph glyph-name="z" unicode="z" horiz-adv-x="443" 
d="M38 44l289 355h-285v51h360v-44l-290 -355h295v-51h-369v44z" />
    <glyph glyph-name="braceleft.case" unicode="{" horiz-adv-x="317" 
d="M106 438v217q0 52 33 86t83 34h74v-49h-72q-27 0 -45.5 -19t-18.5 -47v-218q0 -43 -22.5 -69.5t-55.5 -34.5q33 -9 55.5 -35t22.5 -69v-219q0 -28 18.5 -47t46.5 -19h71v-49h-74q-50 0 -83 34t-33 86v217q0 28 -21.5 47t-43.5 24l-22 5v50q10 1 24.5 5t38.5 23t24 47z
" />
    <glyph glyph-name="bar.case" unicode="|" horiz-adv-x="184" 
d="M67 -100v875h50v-875h-50z" />
    <glyph glyph-name="braceright.case" unicode="}" horiz-adv-x="317" 
d="M95 -100h-73v49h70q28 0 46.5 19t18.5 47v219q0 43 22.5 69t56.5 35q-34 8 -56.5 34.5t-22.5 69.5v218q0 28 -18.5 47t-46.5 19h-70v49h73q50 0 83 -34t33 -86v-217q0 -28 21.5 -46.5t43.5 -23.5l22 -5v-50q-4 -1 -9.5 -2t-20.5 -6.5t-26.5 -13.5t-21 -22t-9.5 -32v-217
q0 -52 -33 -86t-83 -34z" />
    <glyph glyph-name="asciitilde" unicode="~" horiz-adv-x="600" 
d="M132 275h-55q0 57 38 94.5t94 37.5q30 0 56 -13t42.5 -28.5t39 -28.5t45.5 -13q33 0 54.5 22t21.5 55h55q0 -56 -38.5 -94t-95.5 -38q-30 0 -56.5 13t-42.5 28.5t-38 28.5t-45 13q-33 0 -54 -22t-21 -55z" />
    <glyph glyph-name="exclamdown.case" unicode="&#xa1;" horiz-adv-x="224" 
d="M143 0h-62l6 477h50zM112 593q-20 0 -32.5 12.5t-12.5 32.5t12.5 32.5t32.5 12.5t32.5 -12.5t12.5 -32.5t-12.5 -32.5t-32.5 -12.5z" />
    <glyph glyph-name="cent" unicode="&#xa2;" horiz-adv-x="523" 
d="M254 105q-92 8 -151 73.5t-59 159.5t59 159t151 73v110h45v-110q63 -6 112 -40t75 -89l-55 -17q-22 42 -63 66.5t-92 24.5q-75 0 -125 -50.5t-50 -126.5q0 -77 50 -128t125 -51q51 0 92 24.5t63 67.5l55 -17q-26 -55 -75 -89t-112 -40v-110h-45v110z" />
    <glyph glyph-name="sterling" unicode="&#xa3;" horiz-adv-x="570" 
d="M36 0v56h91v232h-70v45h70v154q0 83 58 139.5t140 56.5q71 0 130.5 -42.5t82.5 -106.5l-57 -18q-17 48 -60 80t-94 32q-59 0 -100.5 -40.5t-41.5 -99.5v-155h221v-45h-221v-232h335v-56h-484z" />
    <glyph glyph-name="currency" unicode="&#xa4;" horiz-adv-x="572" 
d="M102 120l-35 35l74 73q-36 47 -36 110t36 110l-73 73l35 35l73 -74q48 37 110 37t110 -37l74 74l34 -35l-73 -73q36 -47 36 -110q0 -64 -36 -111l73 -73l-35 -35l-73 74q-48 -37 -110 -37q-63 0 -111 37zM286 470q-56 0 -94 -38t-38 -94q0 -57 38 -94.5t94 -37.5t94 37.5
t38 94.5q0 56 -38 94t-94 38z" />
    <glyph glyph-name="yen" unicode="&#xa5;" horiz-adv-x="637" 
d="M288 275l-266 400h69l227 -343l228 343h69l-267 -398v-33h151v-45h-151v-74h151v-45h-151v-80h-60v80h-151v45h151v74h-151v45h151v31z" />
    <glyph glyph-name="brokenbar.case" unicode="&#xa6;" horiz-adv-x="184" 
d="M117 -100h-50v357h50v-357zM117 420h-50v355h50v-355z" />
    <glyph glyph-name="section" unicode="&#xa7;" horiz-adv-x="467" 
d="M45 -53l51 19q9 -43 46.5 -70.5t90.5 -27.5q58 0 96.5 33.5t38.5 81.5q0 67 -71 98l-139 58q-45 19 -70.5 56t-25.5 82q0 78 67 125q-67 42 -67 123q0 70 49.5 115.5t125.5 45.5q64 0 111.5 -32.5t61.5 -85.5l-50 -19q-9 39 -42.5 63.5t-79.5 24.5q-52 0 -87 -33.5
t-35 -79.5q0 -33 17.5 -59t43.5 -36l144 -57q47 -19 74 -57t27 -85q0 -79 -70 -125q70 -44 70 -123q0 -70 -53.5 -116.5t-134.5 -46.5q-72 0 -124 35.5t-65 92.5zM116 276q0 -31 16 -55t42 -36l127 -52q67 31 67 98t-73 98l-116 46q-27 -11 -45 -39t-18 -60z" />
    <glyph glyph-name="dieresis.ss11" unicode="&#xa8;" horiz-adv-x="396" 
d="M63 683v82h82v-82h-82zM333 683h-82v82h82v-82z" />
    <glyph glyph-name="copyright" unicode="&#xa9;" horiz-adv-x="800" 
d="M56 338q0 142 101 242.5t243 100.5t243 -100.5t101 -242.5t-101 -243t-243 -101t-243 101t-101 243zM86 338q0 -130 92 -222t222 -92t222 92t92 222t-92 221.5t-222 91.5t-222 -91.5t-92 -221.5zM223 338q0 76 51.5 127t128.5 51q52 0 93 -24t65 -65l-41 -15
q-39 64 -117 64q-58 0 -97.5 -39.5t-39.5 -98.5q0 -60 39 -99.5t98 -39.5q78 0 117 64l41 -16q-24 -41 -65.5 -65t-92.5 -24q-77 0 -128.5 51.5t-51.5 128.5z" />
    <glyph glyph-name="ordfeminine" unicode="&#xaa;" horiz-adv-x="393" 
d="M27 517q0 69 43.5 115.5t108.5 46.5q78 0 122 -63v59h46v-315h-46v58q-44 -62 -122 -62q-65 0 -108.5 46t-43.5 115zM187 634q-47 0 -79 -33.5t-32 -82.5q0 -50 32 -83.5t79 -33.5t79.5 34t32.5 83t-32.5 82.5t-79.5 33.5z" />
    <glyph glyph-name="guillemotleft.case" unicode="&#xab;" horiz-adv-x="471" 
d="M37 338l167 166l34 -34l-132 -132l132 -133l-34 -34zM216 338l166 166l35 -34l-132 -132l132 -133l-35 -34z" />
    <glyph glyph-name="logicalnot" unicode="&#xac;" horiz-adv-x="600" 
d="M77 311v53h446v-195h-50v142h-396z" />
    <glyph glyph-name="uni00AD" unicode="&#xad;" horiz-adv-x="388" 
d="M72 251h244v-52h-244v52z" />
    <glyph glyph-name="registered" unicode="&#xae;" horiz-adv-x="800" 
d="M56 338q0 142 101 242.5t243 100.5t243 -100.5t101 -242.5t-101 -243t-243 -101t-243 101t-101 243zM400 24q130 0 222 92t92 222t-92 221.5t-222 91.5t-222 -91.5t-92 -221.5t92 -222t222 -92zM275 163v350h158q49 0 81.5 -31t32.5 -78q0 -36 -20.5 -63.5t-53.5 -38.5
l85 -139h-47l-82 133h-112v-133h-42zM433 474h-116v-139h116q30 0 50 19.5t20 49.5t-20 50t-50 20z" />
    <glyph glyph-name="macron" unicode="&#xaf;" horiz-adv-x="373" 
d="M63 705v48h247v-48h-247z" />
    <glyph glyph-name="degree" unicode="&#xb0;" horiz-adv-x="378" 
d="M189 734q64 0 106 -42.5t42 -105.5t-42 -105.5t-106 -42.5q-62 0 -104.5 42.5t-42.5 105.5t42.5 105.5t104.5 42.5zM95 586q0 -40 27 -67.5t67 -27.5q41 0 68 27.5t27 67.5t-27 67.5t-68 27.5q-40 0 -67 -27.5t-27 -67.5z" />
    <glyph glyph-name="plusminus" unicode="&#xb1;" horiz-adv-x="600" 
d="M77 381v53h197v197h52v-197h197v-53h-197v-178h-52v178h-197zM77 70v53h446v-53h-446z" />
    <glyph glyph-name="twosuperior" unicode="&#xb2;" horiz-adv-x="309" 
d="M24 643q16 39 49.5 62.5t75.5 23.5q52 0 88.5 -32.5t36.5 -78.5q0 -52 -77 -124l-106 -101h189v-39h-253v29l142 137q21 20 32 32.5t20.5 30t9.5 34.5q0 30 -24 51t-58 21q-62 0 -87 -64z" />
    <glyph glyph-name="threesuperior" unicode="&#xb3;" horiz-adv-x="314" 
d="M27 422l38 14q9 -21 32.5 -34t54.5 -13q39 0 65 20t26 49t-25.5 48.5t-63.5 19.5h-27v34h20q37 0 62 18.5t25 46.5q0 27 -24 45.5t-59 18.5q-62 0 -84 -46l-35 14q15 32 47 52t74 20q53 0 88.5 -29.5t35.5 -73.5q0 -26 -16.5 -48t-44.5 -33q32 -11 50.5 -35t18.5 -53
q0 -46 -38 -76.5t-94 -30.5q-45 0 -78.5 19.5t-47.5 52.5z" />
    <glyph glyph-name="acute" unicode="&#xb4;" horiz-adv-x="310" 
d="M63 709l155 105l29 -47l-163 -91z" />
    <glyph glyph-name="uni00B5" unicode="&#xb5;" horiz-adv-x="549" 
d="M69 -225l-1 398v277h55v-263v-6q2 -59 42.5 -97.5t98.5 -38.5q68 0 113.5 41.5t45.5 102.5v261h55v-450h-55v86q-53 -94 -172 -94q-76 0 -128 49v-266h-54z" />
    <glyph glyph-name="paragraph" unicode="&#xb6;" horiz-adv-x="643" 
d="M52 484q0 82 55 136.5t137 54.5h363v-45h-106v-805h-49v805h-159v-805h-49v468q-82 0 -137 54.5t-55 136.5z" />
    <glyph glyph-name="periodcentered.ss11" unicode="&#xb7;" horiz-adv-x="195" 
d="M50 290v95h95v-95h-95z" />
    <glyph glyph-name="cedilla" unicode="&#xb8;" horiz-adv-x="286" 
d="M50 -163l15 31q26 -32 70 -32q25 0 43 12t18 28q0 17 -20 28t-40 14l-21 2l19 80h46l-13 -53q3 0 8 -1.5t18 -6.5t22.5 -12.5t17.5 -20.5t8 -30q0 -33 -28 -56t-70 -23q-26 0 -49 10t-34 20z" />
    <glyph glyph-name="onesuperior" unicode="&#xb9;" horiz-adv-x="226" 
d="M27 667l108 58h27v-371h-41v320l-78 -42z" />
    <glyph glyph-name="ordmasculine" unicode="&#xba;" horiz-adv-x="382" 
d="M191 679q70 0 117 -46.5t47 -115.5t-47 -115.5t-117 -46.5t-117 47t-47 115q0 69 47 115.5t117 46.5zM75 517q0 -49 33.5 -82.5t83.5 -33.5q49 0 82 33.5t33 82.5t-33.5 82.5t-82.5 33.5t-82.5 -33.5t-33.5 -82.5z" />
    <glyph glyph-name="guillemotright.case" unicode="&#xbb;" horiz-adv-x="472" 
d="M435 338l-167 -167l-35 34l133 133l-133 132l35 34zM256 338l-167 -167l-34 34l132 133l-132 132l34 34z" />
    <glyph glyph-name="onequarter" unicode="&#xbc;" horiz-adv-x="741" 
d="M417 117l210 255h38v-254h55v-40h-55v-78h-41v78h-207v39zM140 0h-53l475 675h53zM27 617l108 58h27v-371h-41v320l-78 -42zM466 118h158v190z" />
    <glyph glyph-name="onehalf" unicode="&#xbd;" horiz-adv-x="767" 
d="M121 624l-78 -42l-16 35l108 58h27v-371h-41v320zM140 0h-53l475 675h53zM689 263q0 30 -24 51.5t-58 21.5q-61 0 -88 -65l-38 19q17 39 50.5 62t75.5 23q52 0 88.5 -32.5t36.5 -77.5q0 -54 -77 -124l-106 -102h189v-39h-253v29l141 137q32 31 47.5 52.5t15.5 44.5z" />
    <glyph glyph-name="threequarters" unicode="&#xbe;" horiz-adv-x="829" 
d="M504 78v39l211 255h38v-254h55v-40h-55v-78h-41v78h-208zM224 0h-53l475 675h53zM27 372l38 14q9 -21 32.5 -34t54.5 -13q39 0 65 20t26 49t-25.5 48.5t-63.5 19.5h-27v34h20q37 0 62 18.5t25 46.5q0 27 -24 45.5t-59 18.5q-62 0 -84 -46l-35 14q15 32 47 52t74 20
q53 0 88.5 -29.5t35.5 -73.5q0 -26 -16.5 -48t-44.5 -33q32 -11 50.5 -35t18.5 -53q0 -46 -38 -76.5t-94 -30.5q-45 0 -78.5 19.5t-47.5 52.5zM554 118h158v190z" />
    <glyph glyph-name="questiondown.case" unicode="&#xbf;" horiz-adv-x="515" 
d="M275 -8q-95 0 -160 55t-65 134q0 41 18.5 77.5t45.5 60t54 41t46 24.5l18 8l3 85h52l5 -116l-20 -7.5t-44 -22t-56.5 -36.5t-44.5 -50t-20 -64q0 -56 48.5 -95t118.5 -39q58 0 102 29t60 77l58 -17q-22 -65 -81.5 -104.5t-137.5 -39.5zM215 637q0 20 13 33t33 13
q19 0 32 -13t13 -33q0 -19 -13 -31.5t-32 -12.5q-20 0 -33 12.5t-13 31.5z" />
    <glyph glyph-name="Agrave" unicode="&#xc0;" horiz-adv-x="692" 
d="M85 0h-63l301 675h46l301 -675h-63l-74 167h-374zM346 587l-162 -364h324zM221 847l30 47l154 -105l-21 -33z" />
    <glyph glyph-name="Aacute" unicode="&#xc1;" horiz-adv-x="692" 
d="M85 0h-63l301 675h46l301 -675h-63l-74 167h-374zM346 587l-162 -364h324zM284 786l155 105l29 -48l-163 -90z" />
    <glyph glyph-name="Acircumflex" unicode="&#xc2;" horiz-adv-x="692" 
d="M85 0h-63l301 675h46l301 -675h-63l-74 167h-374zM346 587l-162 -364h324zM206 784l137 111h6l137 -111l-25 -31l-115 83l-116 -83z" />
    <glyph glyph-name="Atilde" unicode="&#xc3;" horiz-adv-x="692" 
d="M22 0l301 675h46l301 -675h-63l-74 167h-374l-74 -167h-63zM346 587l-162 -364h324zM255 765h-46q0 38 24 64t60 26q30 0 57.5 -25t44.5 -25q18 0 30 12.5t12 32.5h46q0 -39 -24 -64t-60 -25q-30 0 -58 25t-45 25q-18 0 -29.5 -13t-11.5 -33z" />
    <glyph glyph-name="Adieresis.ss11" unicode="&#xc4;" horiz-adv-x="692" 
d="M22 0l301 675h46l301 -675h-63l-74 167h-374l-74 -167h-63zM346 587l-162 -364h324zM210 760v81h82v-81h-82zM480 760h-82v81h82v-81z" />
    <glyph glyph-name="Aring" unicode="&#xc5;" horiz-adv-x="692" 
d="M22 0l301 675h46l301 -675h-63l-74 167h-374l-74 -167h-63zM346 587l-162 -364h324zM346 935q40 0 67.5 -27.5t27.5 -67.5q0 -39 -27.5 -66.5t-67.5 -27.5t-67 27.5t-27 66.5q0 40 27 67.5t67 27.5zM346 789q22 0 37 14.5t15 36.5t-15 37t-37 15t-37 -15t-15 -37
t15 -36.5t37 -14.5z" />
    <glyph glyph-name="AE" unicode="&#xc6;" horiz-adv-x="950" 
d="M22 0l432 675h451v-56h-364v-249h317v-56h-317v-258h369v-56h-429v167h-284l-107 -167h-68zM481 613l-249 -390h249v390z" />
    <glyph glyph-name="Ccedilla" unicode="&#xc7;" horiz-adv-x="755" 
d="M57 338q0 148 98.5 246.5t246.5 98.5q97 0 175.5 -44.5t123.5 -121.5l-58 -23q-37 61 -100.5 96t-140.5 35q-121 0 -202.5 -82t-81.5 -205t81.5 -205.5t202.5 -82.5q77 0 140.5 35t100.5 96l58 -23q-42 -71 -112 -114.5t-156 -50.5l-12 -46q3 0 8 -1.5t18 -6.5t23 -12.5
t18 -20.5t8 -30q0 -33 -28 -56t-70 -23q-26 0 -49.5 10t-34.5 20l-10 10l16 31q26 -32 70 -32q25 0 42.5 12t17.5 28q0 17 -20 28t-40 14l-21 2l18 72q-142 5 -236 103.5t-94 242.5z" />
    <glyph glyph-name="Egrave" unicode="&#xc8;" horiz-adv-x="611" 
d="M87 0v675h479v-56h-418v-249h371v-56h-371v-258h423v-56h-484zM359 756l-163 91l30 47l154 -105z" />
    <glyph glyph-name="Eacute" unicode="&#xc9;" horiz-adv-x="611" 
d="M87 0v675h479v-56h-418v-249h371v-56h-371v-258h423v-56h-484zM280 753l-21 33l155 105l29 -48z" />
    <glyph glyph-name="Ecircumflex" unicode="&#xca;" horiz-adv-x="611" 
d="M87 0v675h479v-56h-418v-249h371v-56h-371v-258h423v-56h-484zM181 784l137 111h6l137 -111l-25 -31l-115 83l-115 -83z" />
    <glyph glyph-name="Edieresis.ss11" unicode="&#xcb;" horiz-adv-x="611" 
d="M87 0v675h479v-56h-418v-249h371v-56h-371v-258h423v-56h-484zM186 841h81v-81h-81v81zM373 841h82v-81h-82v81z" />
    <glyph glyph-name="Igrave" unicode="&#xcc;" horiz-adv-x="235" 
d="M87 0v675h61v-675h-61zM-7 847l29 47l155 -105l-21 -33z" />
    <glyph glyph-name="Iacute" unicode="&#xcd;" horiz-adv-x="235" 
d="M87 0v675h61v-675h-61zM56 786l154 105l29 -48l-162 -90z" />
    <glyph glyph-name="Icircumflex" unicode="&#xce;" horiz-adv-x="235" 
d="M87 0v675h61v-675h-61zM2 753l-25 31l137 111h7l137 -111l-25 -31l-115 83z" />
    <glyph glyph-name="Idieresis.ss11" unicode="&#xcf;" horiz-adv-x="235" 
d="M148 0h-61v675h61v-675zM-18 760v81h82v-81h-82zM252 760h-82v81h82v-81z" />
    <glyph glyph-name="Eth" unicode="&#xd0;" horiz-adv-x="759" 
d="M95 312h-85v51h85v312h262q147 0 246.5 -97t99.5 -240t-99.5 -240.5t-246.5 -97.5h-262v312zM381 312h-226v-256h202q121 0 202.5 81t81.5 201q0 118 -81.5 199.5t-202.5 81.5h-202v-256h226v-51z" />
    <glyph glyph-name="Ntilde" unicode="&#xd1;" horiz-adv-x="741" 
d="M87 0v675h52l457 -570v570h58v-675h-52l-456 570v-570h-59zM280 765h-46q0 39 23.5 64.5t60.5 25.5q30 0 57 -25t45 -25t29.5 12t11.5 33h46q0 -39 -24 -64t-60 -25q-30 0 -58 25t-45 25t-28.5 -13t-11.5 -33z" />
    <glyph glyph-name="Ograve" unicode="&#xd2;" 
d="M402 -9q-148 0 -246.5 99t-98.5 248q0 148 98.5 246.5t246.5 98.5t247 -98.5t99 -246.5t-99 -247.5t-247 -99.5zM118 338q0 -123 81.5 -205.5t202.5 -82.5q122 0 203 82t81 206q0 123 -81 205t-203 82q-121 0 -202.5 -82t-81.5 -205zM441 756l-163 91l29 47l155 -105z
" />
    <glyph glyph-name="Oacute" unicode="&#xd3;" 
d="M402 -9q-148 0 -246.5 99t-98.5 248q0 148 98.5 246.5t246.5 98.5t247 -98.5t99 -246.5t-99 -247.5t-247 -99.5zM118 338q0 -123 81.5 -205.5t202.5 -82.5q122 0 203 82t81 206q0 123 -81 205t-203 82q-121 0 -202.5 -82t-81.5 -205zM362 753l-21 33l154 105l29 -48z" />
    <glyph glyph-name="Ocircumflex" unicode="&#xd4;" 
d="M402 -9q-148 0 -246.5 99t-98.5 248q0 148 98.5 246.5t246.5 98.5t247 -98.5t99 -246.5t-99 -247.5t-247 -99.5zM402 625q-121 0 -202.5 -82t-81.5 -205t81.5 -205.5t202.5 -82.5q122 0 203 82t81 206q0 123 -81 205t-203 82zM287 753l-25 31l137 111h7l137 -111l-25 -31
l-116 83z" />
    <glyph glyph-name="Otilde" unicode="&#xd5;" 
d="M402 -9q-148 0 -246.5 99t-98.5 248q0 148 98.5 246.5t246.5 98.5t247 -98.5t99 -246.5t-99 -247.5t-247 -99.5zM118 338q0 -123 81.5 -205.5t202.5 -82.5q122 0 203 82t81 206q0 123 -81 205t-203 82q-121 0 -202.5 -82t-81.5 -205zM312 765h-46q0 39 23.5 64.5
t60.5 25.5q30 0 57 -25t45 -25t29.5 12t11.5 33h46q0 -39 -24 -64t-60 -25q-30 0 -58 25t-45 25t-28.5 -13t-11.5 -33z" />
    <glyph glyph-name="Odieresis.ss11" unicode="&#xd6;" 
d="M57 338q0 148 98.5 246.5t246.5 98.5t247 -98.5t99 -246.5t-99 -247.5t-247 -99.5t-246.5 99t-98.5 248zM402 625q-121 0 -202.5 -82t-81.5 -205q0 -124 81.5 -206.5t202.5 -82.5q122 0 203 82.5t81 206.5q0 123 -81 205t-203 82zM537 760h-82v81h82v-81zM267 841h82v-81
h-82v81z" />
    <glyph glyph-name="multiply" unicode="&#xd7;" horiz-adv-x="600" 
d="M104 496l37 37l159 -158l159 158l37 -37l-159 -158l159 -159l-37 -37l-159 158l-159 -158l-37 37l159 159z" />
    <glyph glyph-name="Oslash" unicode="&#xd8;" 
d="M57 338q0 148 98.5 246.5t246.5 98.5q99 0 180 -47l33 47l41 -28l-33 -47q59 -47 92 -117t33 -153q0 -148 -99 -247.5t-247 -99.5q-99 0 -178 48l-33 -48l-41 28l34 47q-60 47 -93.5 117.5t-33.5 154.5zM118 338q0 -137 100 -222l330 471q-64 38 -146 38
q-121 0 -202.5 -82t-81.5 -205zM258 87q66 -38 144 -38q122 0 203 82.5t81 206.5q0 138 -99 219z" />
    <glyph glyph-name="Ugrave" unicode="&#xd9;" horiz-adv-x="719" 
d="M77 675h60v-405q0 -95 64 -158.5t159 -63.5q94 0 158 64t64 158v405h60v-405q0 -119 -80.5 -199t-201.5 -80t-202 80t-81 199v405zM398 756l-163 91l29 47l155 -105z" />
    <glyph glyph-name="Uacute" unicode="&#xda;" horiz-adv-x="719" 
d="M77 675h60v-405q0 -95 64 -158.5t159 -63.5q94 0 158 64t64 158v405h60v-405q0 -119 -80.5 -199t-201.5 -80t-202 80t-81 199v405zM318 753l-20 33l154 105l29 -48z" />
    <glyph glyph-name="Ucircumflex" unicode="&#xdb;" horiz-adv-x="719" 
d="M77 270v405h60v-405q0 -95 64 -158.5t159 -63.5q94 0 158 64t64 158v405h60v-405q0 -119 -80.5 -199t-201.5 -80t-202 80t-81 199zM219 784l137 111h6l138 -111l-25 -31l-116 83l-115 -83z" />
    <glyph glyph-name="Udieresis.ss11" unicode="&#xdc;" horiz-adv-x="719" 
d="M77 270v405h60v-405q0 -95 64 -158.5t159 -63.5q94 0 158 64t64 158v405h60v-405q0 -119 -80.5 -199t-201.5 -80t-202 80t-81 199zM224 760v81h82v-81h-82zM412 841h82v-81h-82v81z" />
    <glyph glyph-name="Yacute" unicode="&#xdd;" horiz-adv-x="637" 
d="M288 274l-266 401h69l227 -344l228 344h69l-267 -399v-276h-60v274zM278 753l-21 33l154 105l29 -48z" />
    <glyph glyph-name="Thorn" unicode="&#xde;" horiz-adv-x="637" 
d="M87 675h61v-135h231q90 0 150 -58t60 -144q0 -87 -60 -145t-150 -58h-231v-135h-61v675zM379 483h-231v-291h231q63 0 105.5 41.5t42.5 104.5q0 62 -42.5 103.5t-105.5 41.5z" />
    <glyph glyph-name="germandbls.1" unicode="&#xdf;" horiz-adv-x="541" 
d="M126 0h-55v567q0 70 48.5 117.5t120.5 47.5h27v-56h-27q-49 0 -81.5 -31.5t-32.5 -78.5v-116h318v-43l-124 -159q80 -20 130 -85t50 -153q0 -104 -72.5 -174t-179.5 -70v56q84 0 140.5 54t56.5 135q0 80 -56.5 134t-140.5 54v45l120 153h-242v-397z" />
    <glyph glyph-name="agrave" unicode="&#xe0;" horiz-adv-x="570" 
d="M266 -8q-95 0 -159 66.5t-64 166.5t64 166.5t159 66.5q55 0 101 -24t77 -66v82h55v-450h-55v82q-64 -90 -178 -90zM101 225q0 -76 49 -127t122 -51t121.5 51t48.5 127t-48.5 127t-121.5 51t-122 -51t-49 -127zM324 553l-163 91l29 47l155 -105z" />
    <glyph glyph-name="aacute" unicode="&#xe1;" horiz-adv-x="570" 
d="M266 -8q-95 0 -159 66.5t-64 166.5t64 166.5t159 66.5q55 0 101 -24t77 -66v82h55v-450h-55v82q-64 -90 -178 -90zM101 225q0 -76 49 -127t122 -51t121.5 51t48.5 127t-48.5 127t-121.5 51t-122 -51t-49 -127zM244 550l-20 33l154 105l29 -48z" />
    <glyph glyph-name="acircumflex" unicode="&#xe2;" horiz-adv-x="570" 
d="M266 -8q-95 0 -159 66.5t-64 166.5t64 166.5t159 66.5q55 0 101 -24t77 -66v82h55v-450h-55v82q-64 -90 -178 -90zM101 225q0 -76 49 -127t122 -51t121.5 51t48.5 127t-48.5 127t-121.5 51t-122 -51t-49 -127zM145 581l137 111h7l137 -111l-25 -31l-116 83l-115 -84z" />
    <glyph glyph-name="atilde" unicode="&#xe3;" horiz-adv-x="570" 
d="M266 -8q-95 0 -159 66.5t-64 166.5t64 166.5t159 66.5q55 0 101 -24t77 -66v82h55v-450h-55v82q-64 -90 -178 -90zM101 225q0 -76 49 -127t122 -51t121.5 51t48.5 127t-48.5 127t-121.5 51t-122 -51t-49 -127zM149 562q0 38 23.5 63.5t60.5 25.5q29 0 57 -25t45 -25
q18 0 29.5 12.5t11.5 33.5h46q0 -39 -24 -64t-60 -25q-30 0 -58 25t-45 25t-28.5 -13t-11.5 -33h-46z" />
    <glyph glyph-name="adieresis.ss11" unicode="&#xe4;" horiz-adv-x="570" 
d="M266 -8q-95 0 -158.5 66.5t-63.5 166.5t63.5 166.5t158.5 66.5q55 0 101 -24t77 -66v82h55v-450h-55v82q-64 -90 -178 -90zM271 403q-73 0 -121.5 -51t-48.5 -127t48.5 -127t121.5 -51t122 51t49 127q0 77 -49 127.5t-122 50.5zM420 556h-82v82h82v-82zM232 556h-82v82
h82v-82z" />
    <glyph glyph-name="aring" unicode="&#xe5;" horiz-adv-x="570" 
d="M43 225q0 100 64 166.5t159 66.5q55 0 101 -24t77 -66v82h55v-450h-55v82q-64 -90 -178 -90q-95 0 -159 66.5t-64 166.5zM101 225q0 -76 49 -127t122 -51t121.5 51t48.5 127t-48.5 127t-121.5 51t-122 -51t-49 -127zM191 637q0 40 27.5 67.5t67.5 27.5q39 0 66.5 -27.5
t27.5 -67.5t-27.5 -67t-66.5 -27q-40 0 -67.5 27t-27.5 67zM234 637q0 -22 15 -36.5t37 -14.5t36.5 14.5t14.5 36.5t-14.5 37t-36.5 15t-37 -15t-15 -37z" />
    <glyph glyph-name="ae" unicode="&#xe6;" horiz-adv-x="941" 
d="M43 225q0 100 64 166.5t159 66.5q55 0 101 -24t77 -66v82h55v-83q65 91 180 91q95 0 159.5 -66.5t64.5 -165.5q0 -12 -1 -18h-402q6 -71 57 -117.5t125 -46.5q95 0 147 75l54 -18q-30 -51 -81.5 -80t-115.5 -29q-121 0 -187 92v-84h-55v82q-64 -90 -178 -90
q-95 0 -159 66.5t-64 166.5zM272 403q-73 0 -122 -51t-49 -127t49 -127t122 -51t121.5 51t48.5 127t-48.5 127t-121.5 51zM673 406q-67 0 -115 -43t-57 -110h345q-9 67 -57.5 110t-115.5 43z" />
    <glyph glyph-name="ccedilla" unicode="&#xe7;" horiz-adv-x="523" 
d="M258 -7q-93 6 -154 71.5t-61 160.5q0 100 67 166.5t166 66.5q70 0 126.5 -35t83.5 -94l-55 -18q-21 42 -62.5 67t-92.5 25q-75 0 -125 -51t-50 -127t50 -127t125 -51q51 0 92.5 25t62.5 67l55 -18q-25 -53 -73 -87t-109 -41l-11 -46q3 0 8 -1.5t18 -6.5t22.5 -12.5
t17.5 -20.5t8 -30q0 -33 -28 -56t-70 -23q-26 0 -49 10t-34 20l-10 10l15 31q26 -32 70 -32q25 0 43 12t18 28q0 17 -20 28t-40 14l-21 2z" />
    <glyph glyph-name="egrave" unicode="&#xe8;" horiz-adv-x="540" 
d="M44 225q0 100 65.5 166.5t163.5 66.5t164 -66.5t66 -165.5q0 -12 -1 -18h-402q5 -71 56 -117.5t125 -46.5q96 0 148 75l53 -18q-30 -51 -83 -80t-118 -29q-102 0 -169.5 66.5t-67.5 166.5zM101 253h345q-9 67 -57.5 110t-116.5 43q-66 0 -114 -43t-57 -110zM151 644
l29 47l154 -105l-20 -33z" />
    <glyph glyph-name="eacute" unicode="&#xe9;" horiz-adv-x="540" 
d="M44 225q0 100 65.5 166.5t163.5 66.5t164 -66.5t66 -165.5q0 -12 -1 -18h-402q5 -71 56 -117.5t125 -46.5q96 0 148 75l53 -18q-30 -51 -83 -80t-118 -29q-102 0 -169.5 66.5t-67.5 166.5zM101 253h345q-9 67 -57.5 110t-116.5 43q-66 0 -114 -43t-57 -110zM213 583
l155 105l29 -48l-163 -90z" />
    <glyph glyph-name="ecircumflex" unicode="&#xea;" horiz-adv-x="540" 
d="M44 225q0 100 65.5 166.5t163.5 66.5t164 -66.5t66 -165.5q0 -12 -1 -18h-402q5 -71 56 -117.5t125 -46.5q96 0 148 75l53 -18q-30 -51 -83 -80t-118 -29q-102 0 -169.5 66.5t-67.5 166.5zM101 253h345q-9 67 -57.5 110t-116.5 43q-66 0 -114 -43t-57 -110zM135 581
l137 111h6l137 -111l-25 -31l-115 83l-115 -84z" />
    <glyph glyph-name="edieresis.ss11" unicode="&#xeb;" horiz-adv-x="540" 
d="M44 225q0 100 65.5 166.5t163.5 66.5t164 -66.5t66 -165.5q0 -12 -1 -18h-402q5 -71 56 -117.5t125 -46.5q96 0 148 75l53 -18q-30 -51 -83 -80t-118 -29q-102 0 -169.5 66.5t-67.5 166.5zM272 406q-66 0 -114 -43t-57 -110h345q-9 67 -57.5 110t-116.5 43zM328 638h82
v-82h-82v82zM140 638h82v-82h-82v82z" />
    <glyph glyph-name="igrave" unicode="&#xec;" horiz-adv-x="196" 
d="M71 0v450h55v-450h-55zM6 692l155 -106l-22 -33l-162 91z" />
    <glyph glyph-name="iacute" unicode="&#xed;" horiz-adv-x="196" 
d="M71 0v450h55v-450h-55zM187 688l30 -48l-163 -90l-21 33z" />
    <glyph glyph-name="icircumflex" unicode="&#xee;" horiz-adv-x="196" 
d="M71 0v450h55v-450h-55zM-42 581l137 111h6l137 -111l-25 -31l-115 83l-116 -83z" />
    <glyph glyph-name="idieresis.ss11" unicode="&#xef;" horiz-adv-x="196" 
d="M126 0h-55v450h55v-450zM-31 638h81v-82h-81v82zM145 638h81v-82h-81v82z" />
    <glyph glyph-name="eth" unicode="&#xf0;" horiz-adv-x="553" 
d="M43 225q0 100 67 166.5t167 66.5q96 0 163 -64q-18 95 -60 151.5t-111 81.5l-59 -93l-40 25l51 81q-52 11 -111 11v55q80 0 143 -16l50 80l40 -26l-44 -69q65 -26 109 -75t65 -114t29 -126t8 -135q0 -100 -67 -166.5t-166 -66.5q-100 0 -167 66.5t-67 166.5zM276 47
q76 0 126 51t50 127t-50 127t-126 51q-75 0 -125 -51t-50 -127t50 -127t125 -51z" />
    <glyph glyph-name="ntilde" unicode="&#xf1;" horiz-adv-x="548" 
d="M71 0v450h55v-87q52 95 172 95q79 0 131 -52t52 -129v-277h-55v263q0 61 -40.5 101.5t-101.5 40.5q-67 0 -112.5 -41.5t-45.5 -102.5v-261h-55zM187 562h-46q0 38 24 63.5t60 25.5q29 0 57 -25t46 -25t29.5 12.5t11.5 33.5h46q0 -39 -24 -64t-60 -25q-30 0 -58 25t-45 25
t-29 -13t-12 -33z" />
    <glyph glyph-name="ograve" unicode="&#xf2;" horiz-adv-x="553" 
d="M277 458q99 0 166 -66.5t67 -166.5t-67 -166.5t-166 -66.5q-100 0 -167 66.5t-67 166.5t67 166.5t167 66.5zM101 225q0 -76 50 -127t125 -51q76 0 126 51t50 127t-50 127t-126 51q-75 0 -125 -51t-50 -127zM315 553l-163 91l29 47l155 -105z" />
    <glyph glyph-name="oacute" unicode="&#xf3;" horiz-adv-x="553" 
d="M277 458q99 0 166 -66.5t67 -166.5t-67 -166.5t-166 -66.5q-100 0 -167 66.5t-67 166.5t67 166.5t167 66.5zM101 225q0 -76 50 -127t125 -51q76 0 126 51t50 127t-50 127t-126 51q-75 0 -125 -51t-50 -127zM235 550l-20 33l154 105l29 -48z" />
    <glyph glyph-name="ocircumflex" unicode="&#xf4;" horiz-adv-x="553" 
d="M277 458q99 0 166 -66.5t67 -166.5t-67 -166.5t-166 -66.5q-100 0 -167 66.5t-67 166.5t67 166.5t167 66.5zM276 47q76 0 126 51t50 127t-50 127t-126 51q-75 0 -125 -51t-50 -127t50 -127t125 -51zM161 549l-25 32l137 111h7l137 -111l-25 -31l-116 83z" />
    <glyph glyph-name="otilde" unicode="&#xf5;" horiz-adv-x="553" 
d="M277 458q99 0 166 -66.5t67 -166.5t-67 -166.5t-166 -66.5q-100 0 -167 66.5t-67 166.5t67 166.5t167 66.5zM101 225q0 -76 50 -127t125 -51q76 0 126 51t50 127t-50 127t-126 51q-75 0 -125 -51t-50 -127zM224 651q30 0 57 -25t45 -25t29.5 12.5t11.5 33.5h46
q0 -39 -24 -64t-60 -25q-30 0 -58 25t-45 25t-28.5 -13t-11.5 -33h-47q0 38 24 63.5t61 25.5z" />
    <glyph glyph-name="odieresis.ss11" unicode="&#xf6;" horiz-adv-x="553" 
d="M44 225q0 100 66.5 166.5t166.5 66.5q99 0 165.5 -66.5t66.5 -166.5t-66.5 -166.5t-165.5 -66.5q-100 0 -166.5 66.5t-66.5 166.5zM277 47q75 0 125 51t50 127t-50 127t-125 51q-76 0 -126 -50.5t-50 -127.5q0 -76 50 -127t126 -51zM329 556v82h82v-82h-82zM141 638h82
v-82h-82v82z" />
    <glyph glyph-name="divide" unicode="&#xf7;" horiz-adv-x="600" 
d="M77 311v53h446v-53h-446zM255 516q0 20 12.5 32.5t32.5 12.5t32.5 -12.5t12.5 -32.5t-12.5 -32.5t-32.5 -12.5t-32.5 12.5t-12.5 32.5zM300 114q-20 0 -32.5 13t-12.5 32t12.5 32t32.5 13t32.5 -13t12.5 -32t-12.5 -32t-32.5 -13z" />
    <glyph glyph-name="oslash" unicode="&#xf8;" horiz-adv-x="553" 
d="M277 458q62 0 113 -28l20 28l40 -28l-19 -28q78 -68 78 -177q0 -100 -66.5 -166.5t-165.5 -66.5q-63 0 -114 28l-20 -28l-40 28l20 28q-79 68 -79 177q0 100 66.5 166.5t166.5 66.5zM101 225q0 -80 55 -129l201 287q-37 20 -80 20q-76 0 -126 -50.5t-50 -127.5zM397 354
l-201 -287q37 -20 81 -20q75 0 125 51t50 127q0 79 -55 129z" />
    <glyph glyph-name="ugrave.1" unicode="&#xf9;" horiz-adv-x="544" 
d="M68 196v254h55v-249q0 -67 42.5 -110.5t107.5 -43.5q63 0 105.5 43.5t42.5 110.5v249h55v-254q0 -88 -58 -146t-146 -58q-87 0 -145.5 58t-58.5 146zM152 644l29 47l155 -105l-21 -33z" />
    <glyph glyph-name="uacute.1" unicode="&#xfa;" horiz-adv-x="544" 
d="M68 196v254h55v-249q0 -67 42.5 -110.5t107.5 -43.5q63 0 105.5 43.5t42.5 110.5v249h55v-254q0 -88 -58 -146t-146 -58q-87 0 -145.5 58t-58.5 146zM215 583l154 105l30 -48l-163 -90z" />
    <glyph glyph-name="ucircumflex.1" unicode="&#xfb;" horiz-adv-x="544" 
d="M68 196v254h55v-249q0 -67 42.5 -110.5t107.5 -43.5q63 0 105.5 43.5t42.5 110.5v249h55v-254q0 -88 -58 -146t-146 -58q-87 0 -145.5 58t-58.5 146zM136 581l137 111h7l137 -111l-25 -31l-115 83l-116 -84z" />
    <glyph glyph-name="udieresis1.ss11" unicode="&#xfc;" horiz-adv-x="544" 
d="M272 -8q-87 0 -145.5 58t-58.5 146v254h55v-249q0 -67 42.5 -110.5t107.5 -43.5q63 0 105.5 43.5t42.5 110.5v249h55v-254q0 -88 -58 -146t-146 -58zM329 638h82v-82h-82v82zM141 638h82v-82h-82v82z" />
    <glyph glyph-name="yacute.1" unicode="&#xfd;" horiz-adv-x="456" 
d="M198 13l-184 437h58l154 -371l158 371h58l-290 -675h-56zM187 550l-20 33l154 105l29 -48z" />
    <glyph glyph-name="thorn" unicode="&#xfe;" horiz-adv-x="570" 
d="M71 -225v950h55v-357q65 90 178 90q95 0 158.5 -66.5t63.5 -166.5t-63.5 -166.5t-158.5 -66.5q-114 0 -178 90v-307h-55zM298 403q-73 0 -121.5 -51t-48.5 -127t48.5 -127t121.5 -51t122 51t49 127t-49 127t-122 51z" />
    <glyph glyph-name="ydieresis1.ss11" unicode="&#xff;" horiz-adv-x="456" 
d="M198 13l-184 437h58l154 -371l158 371h58l-290 -675h-56zM93 638h82v-82h-82v82zM281 556v82h82v-82h-82z" />
    <glyph glyph-name="Amacron" unicode="&#x100;" horiz-adv-x="692" 
d="M85 0h-63l301 675h46l301 -675h-63l-74 167h-374zM346 587l-162 -364h324zM223 781v49h246v-49h-246z" />
    <glyph glyph-name="amacron" unicode="&#x101;" horiz-adv-x="570" 
d="M43 225q0 100 64 166.5t159 66.5q55 0 101 -24t77 -66v82h55v-450h-55v82q-64 -90 -178 -90q-95 0 -159 66.5t-64 166.5zM272 403q-73 0 -122 -51t-49 -127t49 -127t122 -51t121.5 51t48.5 127t-48.5 127t-121.5 51zM409 578h-247v48h247v-48z" />
    <glyph glyph-name="Abreve" unicode="&#x102;" horiz-adv-x="692" 
d="M85 0h-63l301 675h46l301 -675h-63l-74 167h-374zM346 587l-162 -364h324zM220 874h46q0 -35 23 -58.5t57 -23.5t57 23.5t23 58.5h46q0 -53 -36 -89t-90 -36t-90 36t-36 89z" />
    <glyph glyph-name="abreve" unicode="&#x103;" horiz-adv-x="570" 
d="M266 -8q-95 0 -159 66.5t-64 166.5t64 166.5t159 66.5q55 0 101 -24t77 -66v82h55v-450h-55v82q-64 -90 -178 -90zM101 225q0 -76 49 -127t122 -51t121.5 51t48.5 127t-48.5 127t-121.5 51t-122 -51t-49 -127zM286 546q-54 0 -90 36t-36 89h46q0 -35 23 -58.5t57 -23.5
t57 23.5t23 58.5h46q0 -53 -36 -89t-90 -36z" />
    <glyph glyph-name="Aogonek" unicode="&#x104;" horiz-adv-x="692" 
d="M85 0h-63l301 675h46l301 -675h-7q-6 -5 -15.5 -14.5t-25 -35.5t-15.5 -48t12.5 -35.5t32.5 -13.5q14 0 28.5 7.5t21.5 14.5l8 7l21 -24q-4 -5 -12 -12.5t-31.5 -20.5t-46.5 -13q-34 0 -56.5 23t-22.5 58q0 27 14 53.5t28 39.5l15 14h-12l-74 167h-374zM346 587
l-162 -364h324z" />
    <glyph glyph-name="aogonek" unicode="&#x105;" horiz-adv-x="570" 
d="M266 -8q-95 0 -159 66.5t-64 166.5t64 166.5t159 66.5q55 0 101 -24t77 -66v82h55v-450h-6q-6 -5 -15 -14.5t-24.5 -35.5t-15.5 -48t12.5 -35.5t32.5 -13.5q14 0 28.5 7.5t21.5 14.5l7 7l21 -24q-4 -5 -11.5 -12.5t-31 -20.5t-47.5 -13q-34 0 -56 23t-22 58
q0 27 14.5 53.5t28.5 39.5l14 14h-6v82q-64 -90 -178 -90zM101 225q0 -76 49 -127t122 -51t121.5 51t48.5 127t-48.5 127t-121.5 51t-122 -51t-49 -127z" />
    <glyph glyph-name="Cacute" unicode="&#x106;" horiz-adv-x="755" 
d="M57 338q0 148 98.5 246.5t246.5 98.5q97 0 175.5 -44.5t123.5 -121.5l-58 -23q-37 61 -100.5 96t-140.5 35q-121 0 -202.5 -82t-81.5 -205t81.5 -205.5t202.5 -82.5q77 0 140.5 35t100.5 96l58 -23q-45 -77 -124 -122t-175 -45q-148 0 -246.5 99t-98.5 248zM356 753
l-20 33l154 105l29 -48z" />
    <glyph glyph-name="cacute" unicode="&#x107;" horiz-adv-x="523" 
d="M276 -8q-99 0 -166 66.5t-67 166.5t67 166.5t166 66.5q70 0 126.5 -35t83.5 -94l-55 -18q-21 42 -62.5 67t-92.5 25q-75 0 -125 -51t-50 -127t50 -127t125 -51q51 0 92.5 25t62.5 67l55 -18q-27 -59 -83.5 -94t-126.5 -35zM217 583l154 105l29 -48l-163 -90z" />
    <glyph glyph-name="Ccircumflex" unicode="&#x108;" horiz-adv-x="755" 
d="M57 338q0 148 98.5 246.5t246.5 98.5q97 0 175.5 -44.5t123.5 -121.5l-58 -23q-37 61 -100.5 96t-140.5 35q-121 0 -202.5 -82t-81.5 -205t81.5 -205.5t202.5 -82.5q77 0 140.5 35t100.5 96l58 -23q-45 -77 -124 -122t-175 -45q-148 0 -246.5 99t-98.5 248zM257 784
l137 111h6l138 -111l-25 -31l-116 83l-115 -83z" />
    <glyph glyph-name="ccircumflex" unicode="&#x109;" horiz-adv-x="523" 
d="M276 -8q-99 0 -166 66.5t-67 166.5t67 166.5t166 66.5q70 0 126.5 -35t83.5 -94l-55 -18q-21 42 -62.5 67t-92.5 25q-75 0 -125 -51t-50 -127t50 -127t125 -51q51 0 92.5 25t62.5 67l55 -18q-27 -59 -83.5 -94t-126.5 -35zM138 581l137 111h6l137 -111l-24 -31l-116 83
l-115 -84z" />
    <glyph glyph-name="Cdotaccent.ss11" unicode="&#x10a;" horiz-adv-x="755" 
d="M57 338q0 148 98.5 246.5t246.5 98.5q97 0 175.5 -44.5t123.5 -121.5l-58 -23q-37 61 -100.5 96t-140.5 35q-121 0 -202.5 -82t-81.5 -205q0 -124 81.5 -206.5t202.5 -82.5q77 0 140.5 35t100.5 96l58 -22q-45 -77 -124 -122t-175 -45q-148 0 -246.5 99t-98.5 248z
M353 848h89v-88h-89v88z" />
    <glyph glyph-name="cdotaccent.ss11" unicode="&#x10b;" horiz-adv-x="523" 
d="M276 -8q-99 0 -165.5 66.5t-66.5 166.5t66.5 166.5t165.5 66.5q70 0 126.5 -35t83.5 -94l-55 -17q-22 42 -63 66.5t-92 24.5q-75 0 -125 -51t-50 -127t50 -127t125 -51q51 0 92 24.5t63 67.5l55 -18q-27 -59 -83 -94t-127 -35zM234 645h89v-89h-89v89z" />
    <glyph glyph-name="Ccaron" unicode="&#x10c;" horiz-adv-x="755" 
d="M57 338q0 148 98.5 246.5t246.5 98.5q97 0 175.5 -44.5t123.5 -121.5l-58 -23q-37 61 -100.5 96t-140.5 35q-121 0 -202.5 -82t-81.5 -205t81.5 -205.5t202.5 -82.5q77 0 140.5 35t100.5 96l58 -23q-45 -77 -124 -122t-175 -45q-148 0 -246.5 99t-98.5 248zM257 864
l25 32l115 -85l116 84l25 -31l-138 -111h-6z" />
    <glyph glyph-name="ccaron" unicode="&#x10d;" horiz-adv-x="523" 
d="M276 -8q-99 0 -166 66.5t-67 166.5t67 166.5t166 66.5q70 0 126.5 -35t83.5 -94l-55 -18q-21 42 -62.5 67t-92.5 25q-75 0 -125 -51t-50 -127t50 -127t125 -51q51 0 92.5 25t62.5 67l55 -18q-27 -59 -83.5 -94t-126.5 -35zM138 661l25 31l115 -84l116 84l25 -31
l-138 -111h-6z" />
    <glyph glyph-name="Dcaron" unicode="&#x10e;" horiz-adv-x="752" 
d="M87 0v675h263q147 0 246.5 -97t99.5 -240t-99.5 -240.5t-246.5 -97.5h-263zM350 619h-202v-563h202q121 0 202.5 81t81.5 201q0 118 -81.5 199.5t-202.5 81.5zM111 864l25 32l115 -85l116 84l24 -31l-137 -111h-6z" />
    <glyph glyph-name="dcaron.ss11" unicode="&#x10f;" horiz-adv-x="668" 
d="M44 225q0 100 63.5 166.5t158.5 66.5q58 0 104.5 -27t73.5 -74v368h55v-725h-55v93q-27 -47 -73.5 -74t-104.5 -27q-95 0 -158.5 66.5t-63.5 166.5zM272 403q-73 0 -122 -50.5t-49 -127.5q0 -76 49 -127t122 -51t122.5 51t49.5 127t-49 127t-123 51zM573 582
q22 0 37.5 18.5t15.5 45.5h-48v79h80v-79q0 -40 -24.5 -66.5t-60.5 -26.5v29z" />
    <glyph glyph-name="Dcroat" unicode="&#x110;" horiz-adv-x="759" 
d="M95 312h-85v51h85v312h262q147 0 246.5 -97t99.5 -240t-99.5 -240.5t-246.5 -97.5h-262v312zM381 312h-226v-256h202q121 0 202.5 81t81.5 201q0 118 -81.5 199.5t-202.5 81.5h-202v-256h226v-51z" />
    <glyph glyph-name="dcroat" unicode="&#x111;" horiz-adv-x="569" 
d="M266 -8q-95 0 -159 66.5t-64 166.5t64 166.5t159 66.5q55 0 101 -24t77 -66v201h-177v47h177v109h55v-109h59v-47h-59v-569h-55v82q-64 -90 -178 -90zM101 225q0 -76 49 -127t122 -51t121.5 51t48.5 127t-48.5 127t-121.5 51t-122 -51t-49 -127z" />
    <glyph glyph-name="Emacron" unicode="&#x112;" horiz-adv-x="611" 
d="M87 0v675h479v-56h-418v-249h371v-56h-371v-258h423v-56h-484zM198 830h247v-49h-247v49z" />
    <glyph glyph-name="emacron" unicode="&#x113;" horiz-adv-x="540" 
d="M44 225q0 100 65.5 166.5t163.5 66.5t164 -66.5t66 -165.5q0 -12 -1 -18h-402q5 -71 56 -117.5t125 -46.5q96 0 148 75l53 -18q-30 -51 -83 -80t-118 -29q-102 0 -169.5 66.5t-67.5 166.5zM101 253h345q-9 67 -57.5 110t-116.5 43q-66 0 -114 -43t-57 -110zM152 626h247
v-48h-247v48z" />
    <glyph glyph-name="Ebreve" unicode="&#x114;" horiz-adv-x="611" 
d="M87 0v675h479v-56h-418v-249h371v-56h-371v-258h423v-56h-484zM321 749q-54 0 -90 36t-36 89h46q0 -35 23 -58.5t57 -23.5t57 23.5t23 58.5h46q0 -53 -36 -89t-90 -36z" />
    <glyph glyph-name="ebreve" unicode="&#x115;" horiz-adv-x="540" 
d="M44 225q0 100 65.5 166.5t163.5 66.5t164 -66.5t66 -165.5q0 -12 -1 -18h-402q5 -71 56 -117.5t125 -46.5q96 0 148 75l53 -18q-30 -51 -83 -80t-118 -29q-102 0 -169.5 66.5t-67.5 166.5zM101 253h345q-9 67 -57.5 110t-116.5 43q-66 0 -114 -43t-57 -110zM149 671h46
q0 -35 23.5 -58.5t57.5 -23.5t56.5 23.5t22.5 58.5h47q0 -53 -36.5 -89t-90.5 -36t-90 36t-36 89z" />
    <glyph glyph-name="Edotaccent.ss11" unicode="&#x116;" horiz-adv-x="611" 
d="M87 0v675h479v-56h-418v-249h371v-56h-371v-258h423v-56h-484zM277 848h88v-88h-88v88z" />
    <glyph glyph-name="edotaccent.ss11" unicode="&#x117;" horiz-adv-x="540" 
d="M44 225q0 100 65.5 166.5t163.5 66.5t164 -66.5t66 -165.5q0 -12 -1 -18h-402q5 -71 56 -117.5t125 -46.5q96 0 148 75l53 -18q-30 -51 -83 -80t-118 -29q-102 0 -169.5 66.5t-67.5 166.5zM101 253h345q-9 67 -57.5 110t-116.5 43q-66 0 -114 -43t-57 -110zM231 645h89
v-89h-89v89z" />
    <glyph glyph-name="Eogonek" unicode="&#x118;" horiz-adv-x="611" 
d="M87 0v675h479v-56h-418v-249h371v-56h-371v-258h423v-56h-39q-6 -5 -15 -14.5t-24.5 -35.5t-15.5 -48t12.5 -35.5t32.5 -13.5q14 0 28.5 7.5t21.5 14.5l7 7l21 -24q-4 -5 -11.5 -12.5t-31 -20.5t-46.5 -13q-34 0 -56.5 23t-22.5 58q0 27 14 53.5t28 39.5l15 14h-402z" />
    <glyph glyph-name="eogonek" unicode="&#x119;" horiz-adv-x="540" 
d="M44 225q0 100 65.5 166.5t163.5 66.5t164 -66.5t66 -165.5q0 -12 -1 -18h-402q5 -71 56 -117.5t125 -46.5q96 0 148 75l53 -18q-52 -87 -155 -105q-51 -51 -51 -94q0 -22 12.5 -35.5t31.5 -13.5q15 0 29.5 7.5t21.5 14.5l7 7l21 -24q-4 -5 -11.5 -12.5t-31 -20.5
t-47.5 -13q-34 0 -56.5 23t-22.5 58q0 50 49 99q-102 1 -168.5 67.5t-66.5 165.5zM101 253h345q-9 67 -57.5 110t-116.5 43q-66 0 -114 -43t-57 -110z" />
    <glyph glyph-name="Ecaron" unicode="&#x11a;" horiz-adv-x="611" 
d="M87 0v675h479v-56h-418v-249h371v-56h-371v-258h423v-56h-484zM318 753l-137 111l25 32l115 -85l115 84l25 -31l-137 -111h-6z" />
    <glyph glyph-name="ecaron" unicode="&#x11b;" horiz-adv-x="540" 
d="M44 225q0 100 65.5 166.5t163.5 66.5t164 -66.5t66 -165.5q0 -12 -1 -18h-402q5 -71 56 -117.5t125 -46.5q96 0 148 75l53 -18q-30 -51 -83 -80t-118 -29q-102 0 -169.5 66.5t-67.5 166.5zM101 253h345q-9 67 -57.5 110t-116.5 43q-66 0 -114 -43t-57 -110zM272 550
l-137 111l25 31l115 -84l116 84l25 -31l-138 -111h-6z" />
    <glyph glyph-name="Gcircumflex" unicode="&#x11c;" horiz-adv-x="800" 
d="M57 338q0 148 100 246.5t251 98.5q98 0 178 -44.5t124 -121.5l-57 -23q-37 61 -101.5 96t-143.5 35q-124 0 -207 -82t-83 -205t81 -205.5t199 -82.5q108 0 187 68.5t91 174.5h-305v57h372v-25q-4 -142 -102 -238t-242 -96q-146 0 -244 99.5t-98 247.5zM257 784l137 111h6
l138 -111l-25 -31l-116 83l-115 -83z" />
    <glyph glyph-name="gcircumflex.1" unicode="&#x11d;" horiz-adv-x="569" 
d="M44 225q0 100 63.5 166.5t158.5 66.5q55 0 101 -24t77 -66v82h55v-456q0 -97 -66.5 -162t-165.5 -65q-43 0 -86 15l21 50q32 -10 63 -10q77 0 128 49t51 123v88q-64 -90 -178 -90q-95 0 -158.5 66.5t-63.5 166.5zM100 225q0 -76 49 -127t122 -51t122 51t49 127t-49 127
t-122 51t-122 -51t-49 -127zM163 549l-24 32l137 111h6l137 -111l-25 -31l-115 83z" />
    <glyph glyph-name="Gbreve" unicode="&#x11e;" horiz-adv-x="800" 
d="M399 -9q-146 0 -244 99.5t-98 247.5t100 246.5t251 98.5q98 0 178 -44.5t124 -121.5l-57 -23q-37 61 -101.5 96t-143.5 35q-124 0 -207 -82t-83 -205t81 -205.5t199 -82.5q108 0 187 68.5t91 174.5h-305v57h372v-25q-4 -142 -102 -238t-242 -96zM271 874h47
q0 -35 23 -58.5t57 -23.5t56.5 23.5t22.5 58.5h47q0 -53 -36.5 -89t-89.5 -36q-55 0 -91 36t-36 89z" />
    <glyph glyph-name="gbreve.1" unicode="&#x11f;" horiz-adv-x="569" 
d="M44 225q0 100 63.5 166.5t158.5 66.5q55 0 101 -24t77 -66v82h55v-456q0 -97 -66.5 -162t-165.5 -65q-43 0 -86 15l21 50q32 -10 63 -10q77 0 128 49t51 123v88q-64 -90 -178 -90q-95 0 -158.5 66.5t-63.5 166.5zM100 225q0 -76 49 -127t122 -51t122 51t49 127t-49 127
t-122 51t-122 -51t-49 -127zM153 671h46q0 -35 23 -58.5t57 -23.5t57 23.5t23 58.5h46q0 -53 -36 -89t-90 -36t-90 36t-36 89z" />
    <glyph glyph-name="Gdotaccent.ss11" unicode="&#x120;" horiz-adv-x="800" 
d="M57 338q0 148 100 246.5t251 98.5q98 0 178 -44.5t124 -121.5l-57 -23q-37 61 -101.5 96t-143.5 35q-123 0 -206.5 -82t-83.5 -205t81 -206t199 -83q108 0 187 69t91 175h-305v57h372v-25q-4 -142 -102 -238t-242 -96q-146 0 -244 99.5t-98 247.5zM353 760v88h89v-88h-89
z" />
    <glyph glyph-name="gdotaccent1.ss11" unicode="&#x121;" horiz-adv-x="569" 
d="M44 225q0 100 63.5 166.5t158.5 66.5q55 0 101 -24t77 -66v82h55v-456q0 -97 -66.5 -162t-165.5 -65q-43 0 -86 15l21 50q32 -10 63 -10q77 0 128 49t51 123v88q-64 -90 -178 -90q-95 0 -158.5 66.5t-63.5 166.5zM271 403q-73 0 -122 -51t-49 -127t49 -127t122 -51
t122 51t49 127t-49 127t-122 51zM323 556h-88v89h88v-89z" />
    <glyph glyph-name="Gcommaaccent.ss11" unicode="&#x122;" horiz-adv-x="800" 
d="M57 338q0 148 100 246.5t251 98.5q98 0 178 -44.5t124 -121.5l-57 -23q-37 61 -101.5 96t-143.5 35q-123 0 -206.5 -82t-83.5 -205t81 -206t199 -83q108 0 187 69t91 175h-305v57h372v-25q-4 -142 -102 -238t-242 -96q-146 0 -244 99.5t-98 247.5zM370 -201q23 0 38 18
t15 45h-47v80h80v-80q0 -40 -24.5 -66t-61.5 -26v29z" />
    <glyph glyph-name="gcommaaccent1.ss11" unicode="&#x123;" horiz-adv-x="569" 
d="M266 -8q-95 0 -158.5 66.5t-63.5 166.5t63.5 166.5t158.5 66.5q55 0 101 -24t77 -66v82h55v-456q0 -97 -66.5 -162t-165.5 -65q-43 0 -86 15l21 50q32 -10 63 -10q77 0 128 49t51 123v88q-64 -90 -178 -90zM271 403q-73 0 -122 -51t-49 -127t49 -127t122 -51t122 51
t49 127t-49 127t-122 51zM238 547v80q0 40 24 66t61 26v-29q-23 0 -38 -18t-15 -45h47v-80h-79z" />
    <glyph glyph-name="Hcircumflex" unicode="&#x124;" horiz-adv-x="739" 
d="M87 0v675h61v-305h444v305h60v-675h-60v314h-444v-314h-61zM229 784l137 111h7l137 -111l-25 -31l-116 83l-115 -83z" />
    <glyph glyph-name="hcircumflex" unicode="&#x125;" horiz-adv-x="547" 
d="M126 0h-55v725h55v-361q53 94 171 94q79 0 130.5 -52t51.5 -130v-276h-55v263q0 61 -40 101.5t-100 40.5q-67 0 -112.5 -41.5t-45.5 -102.5v-261zM-44 811l138 111h6l137 -111l-25 -31l-115 83l-116 -84z" />
    <glyph glyph-name="Hbar" unicode="&#x126;" horiz-adv-x="750" 
d="M655 550h85v-51h-85v-499h-60v314h-444v-314h-60v499h-81v51h81v125h60v-125h444v125h60v-125zM595 499h-444v-129h444v129z" />
    <glyph glyph-name="hbar" unicode="&#x127;" horiz-adv-x="547" 
d="M11 569v47h60v109h55v-109h177v-47h-177v-205q53 94 171 94q79 0 130.5 -52t51.5 -130v-276h-55v263q0 61 -40 101.5t-100 40.5q-67 0 -112.5 -41.5t-45.5 -102.5v-261h-55v569h-60z" />
    <glyph glyph-name="Itilde" unicode="&#x128;" horiz-adv-x="235" 
d="M87 675h61v-675h-61v675zM27 765h-47q0 38 24.5 64t60.5 26q29 0 57 -25t45 -25q18 0 29.5 12t11.5 33h46q0 -39 -24 -64t-60 -25q-30 0 -58 25t-45 25t-28.5 -13t-11.5 -33z" />
    <glyph glyph-name="itilde" unicode="&#x129;" horiz-adv-x="200" 
d="M73 450h55v-450h-55v450zM9 562h-46q0 38 24 63.5t60 25.5q29 0 57 -25t46 -25q17 0 29 13t12 33h46q0 -39 -24 -64t-60 -25q-30 0 -58 25t-45 25q-18 0 -29.5 -13t-11.5 -33z" />
    <glyph glyph-name="Imacron" unicode="&#x12a;" horiz-adv-x="235" 
d="M87 0v675h61v-675h-61zM-6 781v49h247v-49h-247z" />
    <glyph glyph-name="imacron" unicode="&#x12b;" horiz-adv-x="196" 
d="M71 0v450h55v-450h-55zM-25 626h247v-48h-247v48z" />
    <glyph glyph-name="Ibreve" unicode="&#x12c;" horiz-adv-x="235" 
d="M87 0v675h61v-675h-61zM118 749q-54 0 -90.5 36t-36.5 89h47q0 -35 23 -58.5t57 -23.5t57 23.5t23 58.5h46q0 -53 -36 -89t-90 -36z" />
    <glyph glyph-name="ibreve" unicode="&#x12d;" horiz-adv-x="196" 
d="M71 0v450h55v-450h-55zM-28 671h46q0 -35 23 -58.5t57 -23.5t57 23.5t23 58.5h46q0 -53 -36 -89t-90 -36t-90 36t-36 89z" />
    <glyph glyph-name="Iogonek" unicode="&#x12e;" horiz-adv-x="235" 
d="M42 -107q0 27 14 53.5t28 39.5l15 14h-12v675h61v-675h-5q-6 -5 -15 -14.5t-24.5 -35.5t-15.5 -48t12.5 -35.5t31.5 -13.5q15 0 29.5 7.5t21.5 14.5l7 7l21 -24q-4 -5 -12 -12.5t-31.5 -20.5t-46.5 -13q-34 0 -56.5 23t-22.5 58z" />
    <glyph glyph-name="iogonek.ss11" unicode="&#x12f;" horiz-adv-x="196" 
d="M22 -107q0 27 14 53.5t28 39.5l15 14h-8v450h55v-450h-3q-6 -5 -15.5 -14.5t-25 -35.5t-15.5 -48t12.5 -35.5t32.5 -13.5q15 0 29.5 7.5t21.5 14.5l7 7l21 -24q-4 -5 -12 -12.5t-31.5 -20.5t-46.5 -13q-34 0 -56.5 23t-22.5 58zM60 642h77v-78h-77v78z" />
    <glyph glyph-name="Idotaccent.ss11" unicode="&#x130;" horiz-adv-x="235" 
d="M87 0v675h61v-675h-61zM73 760v88h89v-88h-89z" />
    <glyph glyph-name="dotlessi" unicode="&#x131;" horiz-adv-x="196" 
d="M71 0v450h55v-450h-55z" />
    <glyph glyph-name="IJ" unicode="&#x132;" horiz-adv-x="817" 
d="M267 105l50 32q25 -41 68.5 -65t95.5 -24q83 0 138.5 55t55.5 137v435h58v-435q0 -106 -72 -177.5t-180 -71.5q-68 0 -124 30.5t-90 83.5zM148 0h-61v675h61v-675z" />
    <glyph glyph-name="ij.ss11" unicode="&#x133;" horiz-adv-x="400" 
d="M208 -225h-37v53h33q30 0 50 23t20 57v542h55v-548q0 -54 -34.5 -90.5t-86.5 -36.5zM71 450h55v-450h-55v450zM261 642h77v-78h-77v78zM60 642h77v-78h-77v78z" />
    <glyph glyph-name="Jcircumflex" unicode="&#x134;" horiz-adv-x="582" 
d="M32 105l50 32q25 -41 68.5 -65t95.5 -24q83 0 138.5 55t55.5 137v435h58v-435q0 -106 -72 -177.5t-180 -71.5q-68 0 -124 30.5t-90 83.5zM327 784l137 111h6l137 -111l-25 -31l-115 83l-115 -83z" />
    <glyph glyph-name="jcircumflex" unicode="&#x135;" horiz-adv-x="203" 
d="M-25 -172h33q30 0 50 23t20 57v542h55v-548q0 -54 -34.5 -90.5t-86.5 -36.5h-37v53zM-35 581l138 111h6l137 -111l-25 -31l-115 83l-116 -84z" />
    <glyph glyph-name="Kcommaaccent.ss11" unicode="&#x136;" horiz-adv-x="612" 
d="M184 344l310 331h78l-311 -331l330 -344h-78zM87 675h61v-675h-61v675zM279 -230v29q23 0 38 18t15 45h-47v80h80v-80q0 -40 -24.5 -66t-61.5 -26z" />
    <glyph glyph-name="kcommaaccent.ss11" unicode="&#x137;" horiz-adv-x="442" 
d="M126 0h-55v725h55v-725zM354 0l-211 233l193 217h68l-192 -217l211 -233h-69zM194 -230v29q23 0 38 18t15 45h-47v80h80v-80q0 -40 -24.5 -66t-61.5 -26z" />
    <glyph glyph-name="Lacute" unicode="&#x139;" horiz-adv-x="562" 
d="M87 0v675h61v-619h380v-56h-441zM56 786l155 105l29 -48l-163 -90z" />
    <glyph glyph-name="lacute" unicode="&#x13a;" horiz-adv-x="196" 
d="M71 0v725h55v-725h-55zM36 813l155 105l29 -48l-163 -90z" />
    <glyph glyph-name="Lcommaaccent.ss11" unicode="&#x13b;" horiz-adv-x="562" 
d="M87 0v675h61v-619h380v-56h-441zM274 -201q23 0 38 18t15 45h-47v80h79v-80q0 -40 -24 -66t-61 -26v29z" />
    <glyph glyph-name="lcommaaccent.ss11" unicode="&#x13c;" horiz-adv-x="196" 
d="M126 0h-55v725h55v-725zM56 -201q22 0 37.5 18t15.5 45h-48v80h80v-80q0 -40 -24.5 -66t-60.5 -26v29z" />
    <glyph glyph-name="Lcaron.ss11" unicode="&#x13d;" horiz-adv-x="562" 
d="M87 675h61v-619h380v-56h-441v675zM319 503v29q23 0 38.5 18.5t15.5 45.5h-48v79h80v-79q0 -40 -24.5 -66.5t-61.5 -26.5z" />
    <glyph glyph-name="lcaron.ss11" unicode="&#x13e;" horiz-adv-x="295" 
d="M71 0v725h55v-725h-55zM200 553v29q22 0 37.5 18.5t15.5 45.5h-47v79h79v-79q0 -40 -24 -66.5t-61 -26.5z" />
    <glyph glyph-name="Ldot.ss11" unicode="&#x13f;" horiz-adv-x="562" 
d="M87 0v675h61v-619h380v-56h-441zM350 385h96v-95h-96v95z" />
    <glyph glyph-name="ldot.ss11" unicode="&#x140;" horiz-adv-x="384" 
d="M71 0v725h55v-725h-55zM242 290v95h96v-95h-96z" />
    <glyph glyph-name="Lslash" unicode="&#x141;" horiz-adv-x="575" 
d="M40 207l-26 45l87 50v373h60v-337l146 85l25 -45l-171 -100v-222h381v-56h-441v243z" />
    <glyph glyph-name="lslash" unicode="&#x142;" horiz-adv-x="200" 
d="M128 368l72 42v-55l-72 -41v-314h-55v282l-73 -41v54l73 42v388h55v-357z" />
    <glyph glyph-name="Nacute" unicode="&#x143;" horiz-adv-x="741" 
d="M87 0v675h52l457 -570v570h58v-675h-52l-456 570v-570h-59zM329 753l-20 33l154 105l29 -48z" />
    <glyph glyph-name="nacute" unicode="&#x144;" horiz-adv-x="548" 
d="M71 0v450h55v-87q52 95 172 95q79 0 131 -52t52 -129v-277h-55v263q0 61 -40.5 101.5t-101.5 40.5q-67 0 -112.5 -41.5t-45.5 -102.5v-261h-55zM237 550l-20 33l154 105l29 -48z" />
    <glyph glyph-name="Ncommaaccent.ss11" unicode="&#x145;" horiz-adv-x="741" 
d="M87 0v675h52l457 -570v570h58v-675h-52l-456 570v-570h-59zM331 -230v29q23 0 38 18t15 45h-47v80h79v-80q0 -40 -24 -66t-61 -26z" />
    <glyph glyph-name="ncommaaccent.ss11" unicode="&#x146;" horiz-adv-x="548" 
d="M71 450h55v-87q52 95 172 95q78 0 130 -52t52 -129v-277h-54v263q0 61 -40.5 101.5t-101.5 40.5q-67 0 -112.5 -41.5t-45.5 -102.5v-261h-55v450zM237 -230v29q23 0 38 18t15 45h-47v80h80v-80q0 -40 -24.5 -66t-61.5 -26z" />
    <glyph glyph-name="Ncaron" unicode="&#x147;" horiz-adv-x="741" 
d="M87 675h52l457 -570v570h58v-675h-52l-456 570v-570h-59v675zM367 753l-137 111l25 32l115 -85l116 84l25 -31l-137 -111h-7z" />
    <glyph glyph-name="ncaron" unicode="&#x148;" horiz-adv-x="548" 
d="M71 450h55v-87q52 95 172 95q79 0 131 -52t52 -129v-277h-55v263q0 61 -40.5 101.5t-101.5 40.5q-67 0 -112.5 -41.5t-45.5 -102.5v-261h-55v450zM138 661l25 31l115 -84l116 84l25 -31l-138 -111h-6z" />
    <glyph glyph-name="Eng" unicode="&#x14a;" horiz-adv-x="741" 
d="M87 0v675h52l457 -570v570h58v-663q0 -106 -72.5 -177.5t-180.5 -71.5l1 57q82 0 137 54t57 134l-450 562v-570h-59z" />
    <glyph glyph-name="eng" unicode="&#x14b;" horiz-adv-x="549" 
d="M71 450h55v-87q52 95 172 95q78 0 130 -52t52 -129v-375q0 -54 -34 -90.5t-86 -36.5h-38v53h34q29 0 49.5 23t20.5 57v355q0 61 -40.5 101.5t-101.5 40.5q-67 0 -112.5 -41.5t-45.5 -102.5v-261h-55v450z" />
    <glyph glyph-name="Omacron" unicode="&#x14c;" 
d="M57 338q0 148 98.5 246.5t246.5 98.5t247 -98.5t99 -246.5t-99 -247.5t-247 -99.5t-246.5 99t-98.5 248zM402 625q-121 0 -202.5 -82t-81.5 -205t81.5 -205.5t202.5 -82.5q122 0 203 82t81 206q0 123 -81 205t-203 82zM526 781h-247v49h247v-49z" />
    <glyph glyph-name="omacron" unicode="&#x14d;" horiz-adv-x="553" 
d="M43 225q0 100 67 166.5t167 66.5q99 0 166 -66.5t67 -166.5t-67 -166.5t-166 -66.5q-100 0 -167 66.5t-67 166.5zM276 47q76 0 126 51t50 127t-50 127t-126 51q-75 0 -125 -51t-50 -127t50 -127t125 -51zM153 626h247v-48h-247v48z" />
    <glyph glyph-name="Obreve" unicode="&#x14e;" 
d="M402 -9q-148 0 -246.5 99t-98.5 248q0 148 98.5 246.5t246.5 98.5t247 -98.5t99 -246.5t-99 -247.5t-247 -99.5zM402 625q-121 0 -202.5 -82t-81.5 -205t81.5 -205.5t202.5 -82.5q122 0 203 82t81 206q0 123 -81 205t-203 82zM277 874h46q0 -35 23 -58.5t57 -23.5
t57 23.5t23 58.5h46q0 -53 -36 -89t-90 -36q-55 0 -90.5 35.5t-35.5 89.5z" />
    <glyph glyph-name="obreve" unicode="&#x14f;" horiz-adv-x="553" 
d="M277 458q99 0 166 -66.5t67 -166.5t-67 -166.5t-166 -66.5q-100 0 -167 66.5t-67 166.5t67 166.5t167 66.5zM276 47q76 0 126 51t50 127t-50 127t-126 51q-75 0 -125 -51t-50 -127t50 -127t125 -51zM150 671h47q0 -35 23 -58.5t57 -23.5t57 23.5t23 58.5h46
q0 -53 -36 -89t-90 -36q-55 0 -91 36t-36 89z" />
    <glyph glyph-name="Ohungarumlaut" unicode="&#x150;" 
d="M402 -9q-148 0 -246.5 99t-98.5 248q0 148 98.5 246.5t246.5 98.5t247 -98.5t99 -246.5t-99 -247.5t-247 -99.5zM118 338q0 -123 81.5 -205.5t202.5 -82.5q122 0 203 82t81 206q0 123 -81 205t-203 82q-121 0 -202.5 -82t-81.5 -205zM290 771l116 138l41 -38l-128 -126z
M482 745l-30 26l116 137l41 -37z" />
    <glyph glyph-name="ohungarumlaut" unicode="&#x151;" horiz-adv-x="553" 
d="M277 458q99 0 166 -66.5t67 -166.5t-67 -166.5t-166 -66.5q-100 0 -167 66.5t-67 166.5t67 166.5t167 66.5zM101 225q0 -76 50 -127t125 -51q76 0 126 51t50 127t-50 127t-126 51q-75 0 -125 -51t-50 -127zM164 568l115 137l41 -37l-127 -126zM355 542l-29 26l116 137
l41 -37z" />
    <glyph glyph-name="OE" unicode="&#x152;" horiz-adv-x="1201" 
d="M402 -9q-148 0 -246.5 99t-98.5 248q0 148 98.5 246.5t246.5 98.5q92 0 167.5 -40t121.5 -110v142h465v-56h-404v-249h357v-56h-357v-258h409v-56h-470v142q-46 -70 -121.5 -110.5t-167.5 -40.5zM402 625q-121 0 -202.5 -82t-81.5 -205t81.5 -205.5t202.5 -82.5
q122 0 203 82t81 206q0 123 -81 205t-203 82z" />
    <glyph glyph-name="oe" unicode="&#x153;" horiz-adv-x="949" 
d="M277 458q67 0 121 -32t84 -87q29 55 82.5 87t119.5 32q97 0 162 -66.5t65 -165.5q0 -12 -1 -18h-401q6 -72 56.5 -118t124.5 -46q96 0 148 75l53 -18q-30 -51 -82.5 -80t-116.5 -29q-70 0 -125 32t-85 88q-30 -56 -84 -88t-121 -32q-100 0 -167 66.5t-67 166.5t67 166.5
t167 66.5zM101 225q0 -76 50 -127t125 -51q76 0 126 51t50 127t-50 127t-126 51q-75 0 -125 -51t-50 -127zM510 253h345q-9 67 -58 110t-116 43t-115 -43t-56 -110z" />
    <glyph glyph-name="Racute.1" unicode="&#x154;" horiz-adv-x="656" 
d="M148 0h-61v675h301q91 0 151 -55.5t60 -138.5q0 -59 -32 -105.5t-86 -69.5q73 -43 89 -119l46 -187h-60l-44 176q-10 45 -47.5 74.5t-83.5 29.5h-233v-280zM388 619h-240v-282h240q64 0 106.5 40t42.5 101q0 60 -42.5 100.5t-106.5 40.5zM248 753l-21 33l154 105l30 -48z
" />
    <glyph glyph-name="racute" unicode="&#x155;" horiz-adv-x="332" 
d="M126 0h-55v450h55v-87q52 95 185 95v-61q-12 4 -27 4q-67 0 -112.5 -41t-45.5 -102v-258zM113 583l155 105l29 -48l-163 -90z" />
    <glyph glyph-name="Rcommaaccent1.ss11" unicode="&#x156;" horiz-adv-x="652" 
d="M148 0h-61v675h301q91 0 151 -55.5t60 -138.5q0 -59 -32 -105.5t-86 -69.5q73 -43 89 -119l46 -187h-60l-44 176q-10 45 -47.5 74.5t-83.5 29.5h-233v-280zM388 619h-240v-282h240q64 0 106.5 40t42.5 101q0 60 -42.5 100.5t-106.5 40.5zM311 -201q23 0 38 18t15 45h-48
v80h80v-80q0 -40 -24.5 -66t-60.5 -26v29z" />
    <glyph glyph-name="rcommaaccent.ss11" unicode="&#x157;" horiz-adv-x="332" 
d="M126 0h-55v450h55v-87q52 95 185 95v-61q-12 4 -27 4q-67 0 -112.5 -41t-45.5 -102v-258zM59 -201q23 0 38 18t15 45h-47v80h80v-80q0 -40 -24.5 -66t-61.5 -26v29z" />
    <glyph glyph-name="Rcaron.1" unicode="&#x158;" horiz-adv-x="656" 
d="M148 0h-61v675h301q91 0 151 -55.5t60 -138.5q0 -59 -32 -105.5t-86 -69.5q73 -43 89 -119l46 -187h-60l-44 176q-10 45 -47.5 74.5t-83.5 29.5h-233v-280zM388 619h-240v-282h240q64 0 106.5 40t42.5 101q0 60 -42.5 100.5t-106.5 40.5zM144 864l25 32l115 -85l116 84
l25 -31l-137 -111h-7z" />
    <glyph glyph-name="rcaron" unicode="&#x159;" horiz-adv-x="332" 
d="M126 0h-55v450h55v-87q52 95 185 95v-61q-12 4 -27 4q-67 0 -112.5 -41t-45.5 -102v-258zM172 550l-137 111l25 31l115 -84l116 84l25 -31l-138 -111h-6z" />
    <glyph glyph-name="Sacute" unicode="&#x15a;" horiz-adv-x="599" 
d="M302 -9q-95 0 -162.5 46t-83.5 116l60 17q9 -52 61 -86t126 -34q77 0 128.5 37.5t51.5 95.5q0 39 -27 66t-60.5 39.5t-86.5 24.5q-43 11 -68 18t-61.5 22.5t-56 33t-34.5 46.5t-15 65q0 81 63 133t160 52q88 0 151 -42.5t78 -108.5l-60 -16q-9 47 -56 78t-112 31
q-70 0 -117 -35t-47 -89q0 -29 14 -50t44 -36t57.5 -24t74.5 -20t78 -21.5t67.5 -31t55 -53.5t18.5 -78q0 -86 -68 -141t-173 -55zM239 786l154 105l30 -48l-163 -90z" />
    <glyph glyph-name="sacute" unicode="&#x15b;" horiz-adv-x="416" 
d="M207 -8q-68 0 -113 30.5t-54 79.5l52 10q7 -31 38.5 -51t78.5 -20q48 0 79 21.5t31 54.5q0 47 -64 70l-114 42q-88 31 -88 107q0 57 44 89.5t112 32.5q62 0 103 -27.5t50 -72.5l-52 -11q-7 28 -35 45t-70 17q-43 0 -71 -19.5t-28 -49.5q0 -43 53 -62l118 -42
q95 -36 95 -116q0 -59 -46.5 -93.5t-118.5 -34.5zM165 550l-20 33l154 105l29 -48z" />
    <glyph glyph-name="Scircumflex" unicode="&#x15c;" horiz-adv-x="599" 
d="M302 -9q-95 0 -162.5 46t-83.5 116l60 17q9 -52 61 -86t126 -34q77 0 128.5 37.5t51.5 95.5q0 39 -27 66t-60.5 39.5t-86.5 24.5q-43 11 -68 18t-61.5 22.5t-56 33t-34.5 46.5t-15 65q0 81 63 133t160 52q88 0 151 -42.5t78 -108.5l-60 -16q-9 47 -56 78t-112 31
q-70 0 -117 -35t-47 -89q0 -29 14 -50t44 -36t57.5 -24t74.5 -20t78 -21.5t67.5 -31t55 -53.5t18.5 -78q0 -86 -68 -141t-173 -55zM160 784l137 111h7l137 -111l-25 -31l-115 83l-116 -83z" />
    <glyph glyph-name="scircumflex" unicode="&#x15d;" horiz-adv-x="416" 
d="M207 -8q-68 0 -113 30.5t-54 79.5l52 10q7 -31 38.5 -51t78.5 -20q48 0 79 21.5t31 54.5q0 47 -64 70l-114 42q-88 31 -88 107q0 57 44 89.5t112 32.5q62 0 103 -27.5t50 -72.5l-52 -11q-7 28 -35 45t-70 17q-43 0 -71 -19.5t-28 -49.5q0 -43 53 -62l118 -42
q95 -36 95 -116q0 -59 -46.5 -93.5t-118.5 -34.5zM66 581l137 111h6l138 -111l-25 -31l-116 83l-115 -84z" />
    <glyph glyph-name="uni0218" unicode="&#x15e;" horiz-adv-x="599" 
d="M56 153l60 17q9 -52 61 -86t126 -34q77 0 128.5 37.5t51.5 95.5q0 39 -27 66t-60.5 39.5t-86.5 24.5q-43 11 -68 18t-61.5 22.5t-56 33t-34.5 46.5t-15 65q0 81 63 133t160 52q88 0 151 -42.5t78 -108.5l-60 -16q-9 47 -56 78t-112 31q-70 0 -117 -35t-47 -89
q0 -29 14 -50t44 -36t57.5 -24t74.5 -20t78 -21.5t67.5 -31t55 -53.5t18.5 -78q0 -86 -68 -141t-173 -55q-95 0 -162.5 46t-83.5 116zM283 -200q5 3 11.5 9t17 22t8.5 30q-15 1 -25.5 12.5t-10.5 27.5t11.5 27t28.5 11q19 0 31 -14.5t12 -39.5q0 -29 -17.5 -54.5t-32.5 -36
t-18 -10.5z" />
    <glyph glyph-name="uni0219" unicode="&#x15f;" horiz-adv-x="416" 
d="M207 -8q-68 0 -113 30.5t-54 79.5l52 10q7 -31 38.5 -51t78.5 -20q48 0 79 21.5t31 54.5q0 47 -64 70l-114 42q-88 31 -88 107q0 57 44 89.5t112 32.5q62 0 103 -27.5t50 -72.5l-52 -11q-7 28 -35 45t-70 17q-43 0 -71 -19.5t-28 -49.5q0 -43 53 -62l118 -42
q95 -36 95 -116q0 -59 -46.5 -93.5t-118.5 -34.5zM181 -200q5 3 11.5 9t17 22t9.5 30q-16 1 -26.5 12.5t-10.5 27.5t11.5 27t28.5 11q19 0 31.5 -14.5t12.5 -39.5q0 -18 -7 -35.5t-17 -29t-20.5 -20t-17 -12.5t-7.5 -4z" />
    <glyph glyph-name="Scaron" unicode="&#x160;" horiz-adv-x="599" 
d="M56 153l60 17q9 -52 61 -86t126 -34q77 0 128.5 37.5t51.5 95.5q0 39 -27 66t-60.5 39.5t-86.5 24.5q-43 11 -68 18t-61.5 22.5t-56 33t-34.5 46.5t-15 65q0 81 63 133t160 52q88 0 151 -42.5t78 -108.5l-60 -16q-9 47 -56 78t-112 31q-70 0 -117 -35t-47 -89
q0 -29 14 -50t44 -36t57.5 -24t74.5 -20t78 -21.5t67.5 -31t55 -53.5t18.5 -78q0 -86 -68 -141t-173 -55q-95 0 -162.5 46t-83.5 116zM160 864l25 32l116 -85l115 84l25 -31l-137 -111h-7z" />
    <glyph glyph-name="scaron" unicode="&#x161;" horiz-adv-x="416" 
d="M40 102l52 10q7 -31 38.5 -51t78.5 -20q48 0 79 21.5t31 54.5q0 47 -64 70l-114 42q-88 31 -88 107q0 57 44 89.5t112 32.5q62 0 103 -27.5t50 -72.5l-52 -11q-7 28 -35 45t-70 17q-43 0 -71 -19.5t-28 -49.5q0 -43 53 -62l118 -42q95 -36 95 -116q0 -59 -46.5 -93.5
t-118.5 -34.5q-68 0 -113 30.5t-54 79.5zM66 661l25 31l115 -84l116 84l25 -31l-138 -111h-6z" />
    <glyph glyph-name="uni0162" unicode="&#x162;" horiz-adv-x="656" 
d="M27 619v56h602v-56h-271v-619h-60v619h-271zM290 -200q5 3 11.5 9t17 22t8.5 30q-15 1 -25.5 12.5t-10.5 27.5t11.5 27t28.5 11q19 0 31 -14.5t12 -39.5q0 -29 -17.5 -54.5t-32.5 -36t-18 -10.5z" />
    <glyph glyph-name="uni0163" unicode="&#x163;" horiz-adv-x="318" 
d="M17 401v49h77v96h55v-96h134v-49h-134v-268q0 -34 20 -57t49 -23h65v-53h-68q-52 0 -86.5 36.5t-34.5 90.5v274h-77zM158 -216l-15 16q4 3 11 9t17 22t9 30q-15 1 -26 12.5t-11 27.5t12 27t29 11q19 0 31 -14.5t12 -39.5q0 -18 -7 -35.5t-17 -29t-20.5 -20t-17 -12.5
t-7.5 -4z" />
    <glyph glyph-name="Tcaron" unicode="&#x164;" horiz-adv-x="656" 
d="M27 619v56h602v-56h-271v-619h-60v619h-271zM325 753l-137 111l25 32l115 -85l116 84l25 -31l-138 -111h-6z" />
    <glyph glyph-name="tcaron1.ss11" unicode="&#x165;" horiz-adv-x="330" 
d="M17 401v29l101 102h31v-82h134v-49h-134v-268q0 -34 20 -57t49 -23h65v-53h-68q-52 0 -86.5 36.5t-34.5 90.5v274h-77zM218 549q23 0 38 18t15 45h-47v80h80v-80q0 -40 -24.5 -66t-61.5 -26v29z" />
    <glyph glyph-name="Tbar" unicode="&#x166;" horiz-adv-x="656" 
d="M27 619v56h602v-56h-271v-258h143v-53h-143v-308h-60v308h-143v53h143v258h-271z" />
    <glyph glyph-name="tbar.1" unicode="&#x167;" horiz-adv-x="318" 
d="M94 401h-77v29l101 102h31v-82h134v-49h-134v-127h94v-47h-94v-94q0 -34 20 -57t49 -23h65v-53h-68q-52 0 -86.5 36.5t-34.5 90.5v100h-63v47h63v127z" />
    <glyph glyph-name="Utilde" unicode="&#x168;" horiz-adv-x="719" 
d="M77 270v405h60v-405q0 -95 64 -158.5t159 -63.5q94 0 158 64t64 158v405h60v-405q0 -119 -80.5 -199t-201.5 -80t-202 80t-81 199zM222 765q0 38 24 64t61 26q29 0 56.5 -25t45.5 -25t29.5 12t11.5 33h46q0 -39 -24 -64t-60 -25q-30 0 -58 25t-45 25t-29 -13t-12 -33h-46
z" />
    <glyph glyph-name="utilde.1" unicode="&#x169;" horiz-adv-x="544" 
d="M68 450h55v-249q0 -67 42.5 -110.5t107.5 -43.5q63 0 105.5 43.5t42.5 110.5v249h55v-254q0 -88 -58 -146t-146 -58q-87 0 -145.5 58t-58.5 146v254zM186 562h-46q0 38 23.5 63.5t60.5 25.5q30 0 57 -25t45 -25t29.5 12.5t11.5 33.5h46q0 -39 -24 -64t-60 -25
q-30 0 -58 25t-45 25t-28.5 -13t-11.5 -33z" />
    <glyph glyph-name="Umacron" unicode="&#x16a;" horiz-adv-x="719" 
d="M360 -9q-121 0 -202 80t-81 199v405h60v-405q0 -95 64 -158.5t159 -63.5q94 0 158 64t64 158v405h60v-405q0 -119 -80.5 -199t-201.5 -80zM236 830h247v-49h-247v49z" />
    <glyph glyph-name="umacron.1" unicode="&#x16b;" horiz-adv-x="544" 
d="M68 196v254h55v-249q0 -67 42.5 -110.5t107.5 -43.5q63 0 105.5 43.5t42.5 110.5v249h55v-254q0 -88 -58 -146t-146 -58q-87 0 -145.5 58t-58.5 146zM153 578v48h247v-48h-247z" />
    <glyph glyph-name="Ubreve" unicode="&#x16c;" horiz-adv-x="719" 
d="M77 270v405h60v-405q0 -95 64 -158.5t159 -63.5q94 0 158 64t64 158v405h60v-405q0 -119 -80.5 -199t-201.5 -80t-202 80t-81 199zM360 749q-55 0 -91 36t-36 89h47q0 -35 23 -58.5t57 -23.5t56.5 23.5t22.5 58.5h47q0 -53 -36.5 -89t-89.5 -36z" />
    <glyph glyph-name="ubreve.1" unicode="&#x16d;" horiz-adv-x="544" 
d="M68 450h55v-249q0 -67 42.5 -110.5t107.5 -43.5q63 0 105.5 43.5t42.5 110.5v249h55v-254q0 -88 -58 -146t-146 -58q-87 0 -145.5 58t-58.5 146v254zM151 671h46q0 -35 23 -58.5t57 -23.5t57 23.5t23 58.5h46q0 -53 -36 -89t-90 -36t-90 36t-36 89z" />
    <glyph glyph-name="Uring" unicode="&#x16e;" horiz-adv-x="719" 
d="M77 675h60v-405q0 -95 64 -158.5t159 -63.5q94 0 158 64t64 158v405h60v-405q0 -119 -80.5 -199t-201.5 -80t-202 80t-81 199v405zM360 746q-40 0 -67.5 27.5t-27.5 66.5q0 40 27.5 67.5t67.5 27.5q39 0 66.5 -27.5t27.5 -67.5q0 -39 -27.5 -66.5t-66.5 -27.5zM308 840
q0 -22 15 -36.5t37 -14.5t36.5 14.5t14.5 36.5t-14.5 37t-36.5 15t-37 -15t-15 -37z" />
    <glyph glyph-name="uring.1" unicode="&#x16f;" horiz-adv-x="544" 
d="M272 -8q-87 0 -145.5 58t-58.5 146v254h55v-249q0 -67 42.5 -110.5t107.5 -43.5q63 0 105.5 43.5t42.5 110.5v249h55v-254q0 -88 -58 -146t-146 -58zM182 637q0 40 27.5 67.5t67.5 27.5q39 0 66.5 -27.5t27.5 -67.5t-27.5 -67t-66.5 -27q-40 0 -67.5 27t-27.5 67z
M225 637q0 -22 15 -36.5t37 -14.5t37 14.5t15 36.5t-15 37t-37 15t-37 -15t-15 -37z" />
    <glyph glyph-name="Uhungarumlaut" unicode="&#x170;" horiz-adv-x="719" 
d="M77 270v405h60v-405q0 -95 64 -158.5t159 -63.5q94 0 158 64t64 158v405h60v-405q0 -119 -80.5 -199t-201.5 -80t-202 80t-81 199zM276 745l-29 26l115 138l41 -38zM438 745l-29 26l116 137l41 -37z" />
    <glyph glyph-name="uhungarumlaut.1" unicode="&#x171;" horiz-adv-x="544" 
d="M272 -8q-87 0 -145.5 58t-58.5 146v254h55v-249q0 -67 42.5 -110.5t107.5 -43.5q63 0 105.5 43.5t42.5 110.5v249h55v-254q0 -88 -58 -146t-146 -58zM164 568l116 137l41 -37l-128 -126zM326 568l116 137l41 -37l-127 -126z" />
    <glyph glyph-name="Uogonek" unicode="&#x172;" horiz-adv-x="719" 
d="M77 270v405h60v-405q0 -95 64 -158.5t159 -63.5q94 0 158 64t64 158v405h60v-405q0 -105 -65 -181.5t-167 -93.5q-51 -47 -51 -93q0 -22 12.5 -35.5t32.5 -13.5q14 0 28.5 7.5t21.5 14.5l7 7l21 -24q-4 -5 -11.5 -12.5t-31 -20.5t-46.5 -13q-34 0 -56.5 23t-22.5 58
q0 50 48 98q-121 -1 -203 79t-82 200z" />
    <glyph glyph-name="uogonek.1" unicode="&#x173;" horiz-adv-x="544" 
d="M68 196v254h55v-249q0 -67 42.5 -110.5t107.5 -43.5q63 0 105.5 43.5t42.5 110.5v249h55v-254q0 -79 -47 -134.5t-121 -66.5q-50 -47 -50 -93q0 -22 12.5 -35.5t32.5 -13.5q14 0 28.5 7.5t21.5 14.5l7 7l21 -24q-4 -5 -11.5 -12.5t-31 -20.5t-46.5 -13q-34 0 -56.5 23
t-22.5 58q0 51 48 99q-84 4 -138.5 61.5t-54.5 142.5z" />
    <glyph glyph-name="Wcircumflex" unicode="&#x174;" horiz-adv-x="985" 
d="M256 0l-234 675h61l195 -577l191 577h47l191 -577l195 577h62l-235 -675h-46l-190 570l-191 -570h-46zM352 784l137 111h7l137 -111l-25 -31l-115 83l-116 -83z" />
    <glyph glyph-name="wcircumflex" unicode="&#x175;" horiz-adv-x="677" 
d="M171 0l-157 450h56l124 -364l121 364h47l121 -364l124 364h55l-156 -450h-47l-121 357l-120 -357h-47zM198 581l137 111h6l137 -111l-25 -31l-115 83l-115 -84z" />
    <glyph glyph-name="Ycircumflex" unicode="&#x176;" horiz-adv-x="637" 
d="M288 274l-266 401h69l227 -344l228 344h69l-267 -399v-276h-60v274zM178 784l137 111h7l137 -111l-25 -31l-116 83l-115 -83z" />
    <glyph glyph-name="ycircumflex.1" unicode="&#x177;" horiz-adv-x="456" 
d="M198 13l-184 437h58l154 -371l158 371h58l-290 -675h-56zM113 549l-25 32l137 111h6l137 -111l-25 -31l-115 83z" />
    <glyph glyph-name="Ydieresis.ss11" unicode="&#x178;" horiz-adv-x="637" 
d="M288 274l-266 401h69l227 -344l228 344h69l-267 -399v-276h-60v274zM371 841h82v-81h-82v81zM183 760v81h82v-81h-82z" />
    <glyph glyph-name="Zacute" unicode="&#x179;" horiz-adv-x="622" 
d="M581 0h-533v46l446 573h-444v56h529v-46l-447 -573h449v-56zM273 753l-20 33l154 105l29 -48z" />
    <glyph glyph-name="zacute" unicode="&#x17a;" horiz-adv-x="443" 
d="M38 0v44l289 355h-285v51h360v-44l-290 -355h295v-51h-369zM181 550l-21 33l155 105l29 -48z" />
    <glyph glyph-name="Zdotaccent.ss11" unicode="&#x17b;" horiz-adv-x="622" 
d="M581 0h-533v46l446 573h-444v56h529v-46l-447 -573h449v-56zM270 760v88h89v-88h-89z" />
    <glyph glyph-name="zdotaccent.ss11" unicode="&#x17c;" horiz-adv-x="443" 
d="M407 0h-370v44l290 355h-285v51h360v-44l-290 -355h295v-51zM178 645h89v-89h-89v89z" />
    <glyph glyph-name="Zcaron" unicode="&#x17d;" horiz-adv-x="622" 
d="M48 0v46l446 573h-444v56h529v-46l-447 -573h449v-56h-533zM311 753l-137 111l25 32l115 -85l116 84l25 -31l-138 -111h-6z" />
    <glyph glyph-name="zcaron" unicode="&#x17e;" horiz-adv-x="443" 
d="M38 0v44l289 355h-285v51h360v-44l-290 -355h295v-51h-369zM82 661l25 31l115 -84l116 84l25 -31l-138 -111h-6z" />
    <glyph glyph-name="uni018F" unicode="&#x18f;" horiz-adv-x="803" 
d="M57 338q0 17 1 26h627q-10 114 -89 187.5t-194 73.5q-71 0 -131 -30.5t-98 -84.5l-58 24q46 70 121 109.5t166 39.5q148 0 247 -98.5t99 -246.5q0 -149 -99 -248t-247 -99q-146 0 -245.5 99.5t-99.5 247.5zM121 308q10 -112 89 -185.5t192 -73.5q114 0 193 73.5t89 185.5
h-563z" />
    <glyph glyph-name="florin" unicode="&#x192;" horiz-adv-x="304" 
d="M-108 -225l10 53h55q30 0 54 23t30 57l79 447h-79l9 49h79l34 194q9 54 50 90.5t93 36.5h59l-9 -53h-56q-29 0 -53 -23t-30 -57l-33 -188h125l-9 -49h-125l-80 -453q-10 -54 -51 -90.5t-93 -36.5h-59z" />
    <glyph glyph-name="uni01DD" unicode="&#x1dd;" horiz-adv-x="540" 
d="M38 225q0 11 1 17h401q-5 71 -56 117.5t-125 46.5q-96 0 -147 -74l-54 17q30 50 83.5 79.5t117.5 29.5q103 0 170.5 -66.5t67.5 -166.5t-66 -166.5t-164 -66.5t-163.5 66.5t-65.5 166.5zM95 197q9 -67 57.5 -110t115.5 -43t115 43t57 110h-345z" />
    <glyph glyph-name="Aringacute" unicode="&#x1fa;" horiz-adv-x="692" 
d="M22 0l296 665q-30 9 -48 33.5t-18 56.5q0 40 27 67.5t67 27.5q41 0 69 -30l136 92l29 -47l-144 -81q5 -15 5 -29q0 -32 -19 -57t-49 -33l297 -665h-63l-74 167h-374l-74 -167h-63zM346 587l-162 -364h324zM346 704q22 0 37 14.5t15 36.5t-15 37t-37 15t-37 -15t-15 -37
t15 -36.5t37 -14.5z" />
    <glyph glyph-name="aringacute" unicode="&#x1fb;" horiz-adv-x="570" 
d="M43 225q0 100 64 166.5t159 66.5q55 0 101 -24t77 -66v82h55v-450h-55v82q-64 -90 -178 -90q-95 0 -159 66.5t-64 166.5zM101 225q0 -76 49 -127t122 -51t121.5 51t48.5 127t-48.5 127t-121.5 51t-122 -51t-49 -127zM191 637q0 40 27.5 67.5t67.5 27.5q33 0 58 -20
l136 93l29 -48l-139 -77q10 -19 10 -43q0 -40 -27.5 -67t-66.5 -27q-40 0 -67.5 27t-27.5 67zM234 637q0 -22 15 -36.5t37 -14.5t36.5 14.5t14.5 36.5t-14.5 37t-36.5 15t-37 -15t-15 -37z" />
    <glyph glyph-name="AEacute" unicode="&#x1fc;" horiz-adv-x="950" 
d="M22 0l432 675h451v-56h-364v-249h317v-56h-317v-258h369v-56h-429v167h-284l-107 -167h-68zM481 613l-249 -390h249v390zM489 753l-21 33l155 105l29 -48z" />
    <glyph glyph-name="aeacute" unicode="&#x1fd;" horiz-adv-x="941" 
d="M43 225q0 100 64 166.5t159 66.5q55 0 101 -24t77 -66v82h55v-83q65 91 180 91q95 0 159.5 -66.5t64.5 -165.5q0 -12 -1 -18h-402q6 -71 57 -117.5t125 -46.5q95 0 147 75l54 -18q-30 -51 -81.5 -80t-115.5 -29q-121 0 -187 92v-84h-55v82q-64 -90 -178 -90
q-95 0 -159 66.5t-64 166.5zM272 403q-73 0 -122 -51t-49 -127t49 -127t122 -51t121.5 51t48.5 127t-48.5 127t-121.5 51zM501 253h345q-9 67 -57.5 110t-115.5 43t-115 -43t-57 -110zM428 550l-21 33l155 105l29 -48z" />
    <glyph glyph-name="Oslashacute" unicode="&#x1fe;" 
d="M57 338q0 148 98.5 246.5t246.5 98.5q99 0 180 -47l33 47l41 -28l-33 -47q59 -47 92 -117t33 -153q0 -148 -99 -247.5t-247 -99.5q-99 0 -178 48l-33 -48l-41 28l34 47q-60 47 -93.5 117.5t-33.5 154.5zM402 625q-121 0 -202.5 -82t-81.5 -205q0 -137 100 -222l330 471
q-64 38 -146 38zM258 87q66 -38 144 -38q122 0 203 82.5t81 206.5q0 138 -99 219zM341 786l154 105l29 -48l-162 -90z" />
    <glyph glyph-name="oslashacute" unicode="&#x1ff;" horiz-adv-x="553" 
d="M44 225q0 100 66.5 166.5t166.5 66.5q62 0 113 -28l20 28l40 -28l-19 -28q78 -68 78 -177q0 -100 -66.5 -166.5t-165.5 -66.5q-63 0 -114 28l-20 -28l-40 28l20 28q-79 68 -79 177zM156 96l201 287q-37 20 -80 20q-76 0 -126 -50.5t-50 -127.5q0 -80 55 -129zM397 354
l-201 -287q37 -20 81 -20q75 0 125 51t50 127q0 79 -55 129zM215 583l154 105l29 -48l-163 -90z" />
    <glyph glyph-name="Scommaaccent.ss11" unicode="&#x218;" horiz-adv-x="599" 
d="M56 153l60 17q9 -52 61 -86t126 -34q77 0 128.5 37.5t51.5 95.5q0 39 -27 66t-60.5 39.5t-86.5 24.5q-43 11 -68 18t-61.5 22.5t-56 33t-34.5 46.5t-15 65q0 81 63 133t160 52q88 0 151 -42.5t78 -108.5l-60 -16q-9 47 -56 78t-112 31q-70 0 -117 -35t-47 -89
q0 -29 14 -50t44 -36t57.5 -24t74.5 -20t78 -21.5t67.5 -31t55 -53.5t18.5 -78q0 -86 -68 -141t-173 -55q-95 0 -162.5 46t-83.5 116zM367 -138q0 -40 -24.5 -66t-61.5 -26v29q23 0 38 18t15 45h-47v80h80v-80z" />
    <glyph glyph-name="scommaaccent.ss11" unicode="&#x219;" horiz-adv-x="416" 
d="M207 -8q-68 0 -113 30.5t-54 79.5l52 10q7 -31 38.5 -51t78.5 -20q48 0 79 21.5t31 54.5q0 47 -64 70l-114 42q-88 31 -88 107q0 57 44 89.5t112 32.5q62 0 103 -27.5t50 -72.5l-52 -11q-7 28 -35 45t-70 17q-43 0 -71 -19.5t-28 -49.5q0 -43 53 -62l118 -42
q95 -36 95 -116q0 -59 -46.5 -93.5t-118.5 -34.5zM265 -138q0 -40 -24 -66t-61 -26v29q23 0 38 18t15 45h-47v80h79v-80z" />
    <glyph glyph-name="Tcommaaccent.ss11" unicode="&#x21a;" horiz-adv-x="656" 
d="M27 619v56h602v-56h-271v-619h-60v619h-271zM288 -230v29q23 0 38.5 18t15.5 45h-48v80h80v-80q0 -40 -24.5 -66t-61.5 -26z" />
    <glyph glyph-name="uni021B.1" unicode="&#x21b;" horiz-adv-x="318" 
d="M94 401h-77v29l101 102h31v-82h134v-49h-134v-268q0 -34 20 -57t49 -23h65v-53h-68q-52 0 -86.5 36.5t-34.5 90.5v274zM158 -216l-15 16q4 3 11 9t17 22t9 30q-15 1 -26 12.5t-11 27.5t12 27t29 11q19 0 31 -14.5t12 -39.5q0 -18 -7 -35.5t-17 -29t-20.5 -20t-17 -12.5
t-7.5 -4z" />
    <glyph glyph-name="uni0237" unicode="&#x237;" horiz-adv-x="203" 
d="M-25 -172h33q30 0 50 23t20 57v542h55v-548q0 -54 -34.5 -90.5t-86.5 -36.5h-37v53z" />
    <glyph glyph-name="uni0259" unicode="&#x259;" horiz-adv-x="540" 
d="M38 225q0 11 1 17h401q-5 71 -56 117.5t-125 46.5q-96 0 -147 -74l-54 17q30 50 83.5 79.5t117.5 29.5q103 0 170.5 -66.5t67.5 -166.5t-66 -166.5t-164 -66.5t-163.5 66.5t-65.5 166.5zM95 197q9 -67 57.5 -110t115.5 -43t115 43t57 110h-345z" />
    <glyph glyph-name="circumflex" unicode="&#x2c6;" horiz-adv-x="407" 
d="M88 676l-25 31l137 112h7l137 -112l-25 -31l-115 84z" />
    <glyph glyph-name="caron" unicode="&#x2c7;" horiz-adv-x="407" 
d="M319 819l25 -31l-137 -112h-7l-137 112l25 31l116 -84z" />
    <glyph glyph-name="breve" unicode="&#x2d8;" horiz-adv-x="379" 
d="M63 798h47q0 -35 23 -58.5t57 -23.5t56.5 23.5t22.5 58.5h47q0 -54 -36.5 -90t-90.5 -36t-90 36t-36 90z" />
    <glyph glyph-name="dotaccent.ss11" unicode="&#x2d9;" horiz-adv-x="213" 
d="M62 683v89h89v-89h-89z" />
    <glyph glyph-name="ring" unicode="&#x2da;" horiz-adv-x="315" 
d="M158 858q39 0 66.5 -27t27.5 -67t-27.5 -67.5t-66.5 -27.5q-40 0 -67.5 27.5t-27.5 67.5t27.5 67t67.5 27zM106 764q0 -22 15 -37t37 -15t37 15t15 37t-15 37t-37 15t-37 -15t-15 -37z" />
    <glyph glyph-name="ogonek" unicode="&#x2db;" horiz-adv-x="295" 
d="M63 -107q0 27 14 53.5t29 39.5l14 14h44q-6 -5 -15 -14.5t-24.5 -35.5t-15.5 -48t12.5 -35.5t31.5 -13.5q15 0 29.5 7.5t21.5 14.5l7 7l21 -24q-4 -5 -12 -12.5t-31.5 -20.5t-46.5 -13q-34 0 -56.5 23t-22.5 58z" />
    <glyph glyph-name="tilde" unicode="&#x2dc;" horiz-adv-x="400" 
d="M63 689q0 38 24 63.5t60 25.5q29 0 57 -25t46 -25q17 0 29 12.5t12 33.5h46q0 -39 -24 -64.5t-60 -25.5q-30 0 -58 25t-45 25q-18 0 -29.5 -12.5t-11.5 -32.5h-46z" />
    <glyph glyph-name="hungarumlaut" unicode="&#x2dd;" horiz-adv-x="446" 
d="M63 695l116 137l41 -38l-128 -126zM226 695l115 137l42 -38l-128 -126z" />
    <glyph glyph-name="commaaccent.ss11" unicode="&#x326;" horiz-adv-x="220" 
d="M152 -138q0 -40 -24.5 -66t-61.5 -26v29q23 0 38 18t15 45h-47v80h80v-80z" />
    <glyph glyph-name="uni0394" unicode="&#x394;" horiz-adv-x="687" 
d="M22 0l298 675h47l299 -675h-644zM110 56h468l-234 531z" />
    <glyph glyph-name="uni03A9" unicode="&#x3a9;" horiz-adv-x="814" 
d="M325 0h-266v56h149q-69 46 -108.5 121t-39.5 165q0 146 98.5 243.5t246.5 97.5t247 -98t99 -244q0 -90 -39.5 -164.5t-108.5 -120.5h154v-56h-269v56q90 26 145.5 102t55.5 177q0 124 -81.5 207t-202.5 83t-202.5 -83t-81.5 -207q0 -101 56.5 -177.5t147.5 -101.5v-56z
" />
    <glyph glyph-name="uni0400" unicode="&#x400;" horiz-adv-x="611" 
d="M87 0v675h479v-56h-418v-249h371v-56h-371v-258h423v-56h-484zM359 756l-163 91l30 47l154 -105z" />
    <glyph glyph-name="afii10023.ss11" unicode="&#x401;" horiz-adv-x="611" 
d="M87 0v675h479v-56h-418v-249h371v-56h-371v-258h423v-56h-484zM186 841h81v-81h-81v81zM373 841h82v-81h-82v81z" />
    <glyph glyph-name="uni0402" unicode="&#x402;" horiz-adv-x="869" 
d="M27 619v56h602v-56h-271v-226q83 22 163 22q133 0 205 -57t72 -161q0 -103 -69 -154.5t-183 -51.5l-1 57q193 0 193 148q0 163 -218 163q-80 0 -162 -22v-337h-60v619h-271z" />
    <glyph glyph-name="uni0403" unicode="&#x403;" horiz-adv-x="538" 
d="M148 0h-61v675h424v-56h-363v-619zM232 786l155 105l29 -48l-163 -90z" />
    <glyph glyph-name="uni0404" unicode="&#x404;" horiz-adv-x="755" 
d="M57 338q0 148 98.5 246.5t246.5 98.5q97 0 175.5 -44.5t123.5 -122.5l-58 -22q-37 61 -100.5 96t-140.5 35q-113 0 -192 -72t-90 -183h379v-56h-380q8 -115 88 -190t195 -75q77 0 140.5 35t100.5 97l58 -23q-45 -77 -124 -122t-175 -45q-148 0 -246.5 99t-98.5 248z" />
    <glyph glyph-name="uni0405" unicode="&#x405;" horiz-adv-x="599" 
d="M302 -9q-95 0 -162.5 46t-83.5 116l59 17q10 -52 62 -86.5t126 -34.5q77 0 128.5 38t51.5 96q0 39 -27 66t-60.5 39.5t-86.5 24.5q-43 11 -68 18t-61.5 22.5t-56 33t-34.5 46.5t-15 65q0 82 63 133.5t160 51.5q88 0 151 -42.5t78 -107.5l-60 -17q-9 47 -56 78t-112 31
q-70 0 -117 -35t-47 -89q0 -23 11 -42t25.5 -31t43 -23.5t50 -17.5t60.5 -16q36 -8 62 -15.5t58 -22t51.5 -33t33.5 -47.5t14 -66q0 -86 -68 -141t-173 -55z" />
    <glyph glyph-name="uni0406" unicode="&#x406;" horiz-adv-x="235" 
d="M87 0v675h61v-675h-61z" />
    <glyph glyph-name="afii10056.ss11" unicode="&#x407;" horiz-adv-x="235" 
d="M148 0h-61v675h61v-675zM-18 760v81h82v-81h-82zM252 760h-82v81h82v-81z" />
    <glyph glyph-name="uni0408" unicode="&#x408;" horiz-adv-x="582" 
d="M246 -9q-68 0 -124 30.5t-90 83.5l50 32q25 -41 68.5 -65t95.5 -24q83 0 138.5 55t55.5 137v435h58v-435q0 -106 -72 -177.5t-180 -71.5z" />
    <glyph glyph-name="uni0409" unicode="&#x409;" horiz-adv-x="1115" 
d="M43 0h-21v56h21q120 0 120 290v329h470v-277h228q89 0 148 -57t59 -142t-59.5 -142t-147.5 -57h-288v619h-350v-273q0 -346 -180 -346zM633 56h228q62 0 103.5 41t41.5 102t-41.5 102t-103.5 41h-228v-286z" />
    <glyph glyph-name="uni040A" unicode="&#x40a;" horiz-adv-x="1135" 
d="M87 675h61v-291h444v291h60v-291h228q88 0 147.5 -55t59.5 -137t-59.5 -137t-147.5 -55h-288v328h-444v-328h-61v675zM652 56h228q62 0 104 39t42 97t-42 97t-104 39h-228v-272z" />
    <glyph glyph-name="uni040B" unicode="&#x40b;" horiz-adv-x="869" 
d="M27 619v56h602v-56h-271v-224q80 20 158 20q135 0 208.5 -57.5t73.5 -163.5v-194h-60v194q0 165 -222 165q-76 0 -158 -20v-339h-60v619h-271z" />
    <glyph glyph-name="uni040C" unicode="&#x40c;" horiz-adv-x="612" 
d="M184 344l310 331h78l-311 -331l330 -344h-78zM148 0h-61v675h61v-675zM271 753l-21 33l155 105l29 -48z" />
    <glyph glyph-name="uni040D" unicode="&#x40d;" horiz-adv-x="741" 
d="M141 0h-54v675h61v-572l452 572h54v-675h-60v572zM409 756l-163 91l29 47l155 -105z" />
    <glyph glyph-name="uni040E" unicode="&#x40e;" horiz-adv-x="651" 
d="M321 162l-299 513h66l263 -451l214 451h64l-259 -545q-29 -62 -75 -96t-100 -34h-72v56h68q80 0 127 99zM326 754q-72 0 -119 41t-47 103h51q0 -41 33 -68t82 -27t81 27t32 68h51q0 -62 -46.5 -103t-117.5 -41z" />
    <glyph glyph-name="uni040F" unicode="&#x40f;" horiz-adv-x="718" 
d="M87 0v675h61v-619h423v619h59v-675h-241v-164h-60v164h-242z" />
    <glyph glyph-name="uni0410" unicode="&#x410;" horiz-adv-x="692" 
d="M22 0l301 675h46l301 -675h-63l-74 167h-374l-74 -167h-63zM346 587l-162 -364h324z" />
    <glyph glyph-name="uni0411" unicode="&#x411;" horiz-adv-x="642" 
d="M87 675h435v-56h-374v-221h228q89 0 148 -57t59 -142t-59.5 -142t-147.5 -57h-289v675zM148 56h228q62 0 103.5 41t41.5 102t-41.5 102t-103.5 41h-228v-286z" />
    <glyph glyph-name="uni0412" unicode="&#x412;" horiz-adv-x="674" 
d="M87 0v675h316q79 0 131 -49t52 -122q0 -97 -85 -146q55 -20 87.5 -66t32.5 -105q0 -80 -57 -133.5t-142 -53.5h-335zM422 325h-274v-269h274q58 0 97.5 38.5t39.5 95.5q0 58 -39 96.5t-98 38.5zM403 619h-255v-238h255q52 0 87 34t35 85q0 50 -35 84.5t-87 34.5z" />
    <glyph glyph-name="uni0413" unicode="&#x413;" horiz-adv-x="538" 
d="M148 0h-61v675h424v-56h-363v-619z" />
    <glyph glyph-name="afii10021.1" unicode="&#x414;" horiz-adv-x="807" 
d="M25 0v56h74q96 25 96 289v330h471v-619h116v-56h-757zM189 56h418v563h-352v-272q0 -209 -66 -291z" />
    <glyph glyph-name="uni0415" unicode="&#x415;" horiz-adv-x="611" 
d="M87 675h479v-56h-418v-249h371v-56h-371v-258h423v-56h-484v675z" />
    <glyph glyph-name="uni0416" unicode="&#x416;" horiz-adv-x="949" 
d="M535 344l296 331h76l-296 -331l316 -344h-76zM22 0l315 344l-296 331h76l297 -331l-316 -344h-76zM445 0v675h59v-675h-59z" />
    <glyph glyph-name="uni0417" unicode="&#x417;" horiz-adv-x="614" 
d="M305 -9q-185 0 -259 160l57 22q58 -124 201 -124q86 0 142 40t56 103q0 54 -39.5 92t-97.5 38h-132v56h129q51 0 86 34.5t35 82.5q0 58 -50.5 94t-130.5 36q-140 0 -197 -124l-57 23q72 159 255 159q106 0 174 -51t68 -132q0 -48 -25 -87.5t-68 -61.5q51 -22 81.5 -66
t30.5 -97q0 -86 -73.5 -141.5t-185.5 -55.5z" />
    <glyph glyph-name="uni0418" unicode="&#x418;" horiz-adv-x="741" 
d="M141 0h-54v675h61v-572l452 572h54v-675h-60v572z" />
    <glyph glyph-name="uni0419" unicode="&#x419;" horiz-adv-x="741" 
d="M87 675h61v-572l452 572h54v-675h-60v572l-453 -572h-54v675zM208 898h51q0 -41 33 -68t82 -27t81 27t32 68h51q0 -62 -46.5 -103t-117.5 -41q-72 0 -119 41t-47 103z" />
    <glyph glyph-name="uni041A" unicode="&#x41a;" horiz-adv-x="612" 
d="M184 344l310 331h78l-311 -331l330 -344h-78zM148 0h-61v675h61v-675z" />
    <glyph glyph-name="uni041B" unicode="&#x41b;" horiz-adv-x="720" 
d="M22 0v56h21q120 0 120 290v329h470v-675h-60v619h-350v-273q0 -346 -180 -346h-21z" />
    <glyph glyph-name="uni041C" unicode="&#x41c;" horiz-adv-x="875" 
d="M87 675h61l290 -505l290 505h60v-675h-60v561l-271 -472h-39l-270 471v-560h-61v675z" />
    <glyph glyph-name="uni041D" unicode="&#x41d;" horiz-adv-x="739" 
d="M87 0v675h61v-305h444v305h60v-675h-60v314h-444v-314h-61z" />
    <glyph glyph-name="uni041E" unicode="&#x41e;" 
d="M402 -9q-148 0 -246.5 99t-98.5 248q0 148 98.5 246.5t246.5 98.5t247 -98.5t99 -246.5t-99 -247.5t-247 -99.5zM118 338q0 -123 81.5 -205.5t202.5 -82.5q122 0 203 82t81 206q0 123 -81 205t-203 82q-121 0 -202.5 -82t-81.5 -205z" />
    <glyph glyph-name="uni041F" unicode="&#x41f;" horiz-adv-x="739" 
d="M87 0v675h565v-675h-60v619h-444v-619h-61z" />
    <glyph glyph-name="uni0420" unicode="&#x420;" horiz-adv-x="640" 
d="M87 0v675h292q90 0 150 -58t60 -144t-60 -144t-150 -58h-231v-271h-61zM379 619h-231v-292h231q63 0 105.5 41.5t42.5 104.5q0 62 -42.5 104t-105.5 42z" />
    <glyph glyph-name="uni0421" unicode="&#x421;" horiz-adv-x="755" 
d="M402 -9q-148 0 -246.5 99t-98.5 248q0 148 98.5 246.5t246.5 98.5q97 0 175.5 -44.5t123.5 -121.5l-58 -23q-37 61 -100.5 96t-140.5 35q-121 0 -202.5 -82t-81.5 -205q0 -124 81.5 -206.5t202.5 -82.5q77 0 140.5 35t100.5 96l58 -22q-45 -77 -124 -122t-175 -45z" />
    <glyph glyph-name="uni0422" unicode="&#x422;" horiz-adv-x="656" 
d="M27 619v56h602v-56h-271v-619h-60v619h-271z" />
    <glyph glyph-name="uni0423" unicode="&#x423;" horiz-adv-x="651" 
d="M321 162l-299 513h66l263 -451l214 451h64l-259 -545q-29 -62 -75 -96t-100 -34h-72v56h68q80 0 127 99z" />
    <glyph glyph-name="uni0424" unicode="&#x424;" horiz-adv-x="822" 
d="M57 338q0 119 91 195t233 77v73h60v-73q143 -1 234 -77t91 -195t-91 -195.5t-234 -77.5v-74h-60v74q-142 1 -233 77.5t-91 195.5zM704 338q0 94 -73.5 153.5t-189.5 60.5v-429q116 1 189.5 61t73.5 154zM381 552q-116 -1 -189.5 -60.5t-73.5 -153.5t73.5 -154t189.5 -61
v429z" />
    <glyph glyph-name="uni0425" unicode="&#x425;" horiz-adv-x="640" 
d="M31 675h72l217 -284l217 284h72l-253 -331l263 -344h-72l-227 297l-226 -297h-72l262 344z" />
    <glyph glyph-name="afii10040.1" unicode="&#x426;" horiz-adv-x="771" 
d="M87 0v675h61v-619h423v619h59v-619h115v-56h-658z" />
    <glyph glyph-name="uni0427" unicode="&#x427;" horiz-adv-x="677" 
d="M55 481v194h59v-194q0 -165 238 -165q96 0 178 23v336h60v-675h-60v283q-79 -23 -177 -23q-143 0 -220.5 57.5t-77.5 163.5z" />
    <glyph glyph-name="uni0428" unicode="&#x428;" horiz-adv-x="1065" 
d="M87 0v675h61v-619h353v619h60v-619h357v619h60v-675h-891z" />
    <glyph glyph-name="afii10043.1" unicode="&#x429;" horiz-adv-x="1118" 
d="M87 0v675h61v-619h353v619h60v-619h357v619h60v-619h115v-56h-1006z" />
    <glyph glyph-name="uni042A" unicode="&#x42a;" horiz-adv-x="826" 
d="M27 619v56h316v-277h228q89 0 148 -57t59 -142t-59.5 -142t-147.5 -57h-288v619h-256zM343 56h228q62 0 103.5 41t41.5 102t-41.5 102t-103.5 41h-228v-286z" />
    <glyph glyph-name="uni042B" unicode="&#x42b;" horiz-adv-x="855" 
d="M87 0v675h61v-277h228q89 0 148 -57t59 -142t-59.5 -142t-147.5 -57h-289zM148 56h228q62 0 103.5 41t41.5 102t-41.5 102t-103.5 41h-228v-286zM708 0v675h60v-675h-60z" />
    <glyph glyph-name="uni042C" unicode="&#x42c;" horiz-adv-x="631" 
d="M87 0v675h61v-277h228q89 0 148 -57t59 -142t-59.5 -142t-147.5 -57h-289zM148 56h228q62 0 103.5 41t41.5 102t-41.5 102t-103.5 41h-228v-286z" />
    <glyph glyph-name="uni042D" unicode="&#x42d;" horiz-adv-x="755" 
d="M55 158l57 23q37 -62 100.5 -97t140.5 -35q115 0 195 75t88 190h-339v56h338q-11 111 -90 183t-192 72q-77 0 -140.5 -35t-100.5 -96l-57 22q44 78 122.5 122.5t175.5 44.5q148 0 247 -98.5t99 -246.5q0 -149 -99 -248t-247 -99q-96 0 -175 45t-123 122z" />
    <glyph glyph-name="uni042E" unicode="&#x42e;" horiz-adv-x="1046" 
d="M148 0h-61v675h61v-305h151q11 136 108 224.5t236 88.5q148 0 247 -98.5t99 -246.5t-99 -247.5t-247 -99.5q-141 0 -238.5 91.5t-106.5 231.5h-150v-314zM643 625q-122 0 -203 -82t-81 -205q0 -124 81 -206.5t203 -82.5t203 82.5t81 206.5q0 123 -81 205t-203 82z" />
    <glyph glyph-name="uni042F" unicode="&#x42f;" horiz-adv-x="656" 
d="M118 0h-67l170 278q-72 14 -118 68.5t-46 128.5q0 85 60.5 142.5t150.5 57.5h300v-675h-60v274h-221zM119 475q0 -62 42.5 -103.5t106.5 -41.5h240v289h-240q-64 0 -106.5 -41.5t-42.5 -102.5z" />
    <glyph glyph-name="uni0430" unicode="&#x430;" horiz-adv-x="569" 
d="M43 225q0 100 64 166.5t159 66.5q55 0 101 -24t77 -66v82h55v-450h-55v82q-64 -90 -178 -90q-95 0 -159 66.5t-64 166.5zM272 403q-73 0 -122 -51t-49 -127t49 -127t122 -51t121.5 51t48.5 127t-48.5 127t-121.5 51z" />
    <glyph glyph-name="uni0431" unicode="&#x431;" horiz-adv-x="568" 
d="M45 339q0 151 62.5 227.5t182.5 92.5q55 8 100.5 27t58.5 44l26 -32q-11 -32 -61 -57t-109 -35q-115 -15 -162.5 -87.5t-39.5 -210.5q15 65 68 107.5t127 42.5q96 0 161.5 -67t65.5 -167q0 -99 -65.5 -165.5t-163.5 -66.5q-108 0 -179.5 87t-71.5 260zM297 403
q-74 0 -123 -51t-49 -127t49.5 -127t122.5 -51t122 51t49 127t-49 127t-122 51z" />
    <glyph glyph-name="uni0432" unicode="&#x432;" horiz-adv-x="489" 
d="M71 450h226q56 0 93.5 -33.5t37.5 -83.5q0 -60 -53 -95q34 -15 54 -44.5t20 -65.5q0 -55 -38 -91.5t-96 -36.5h-244v450zM315 210h-189v-157h189q33 0 55 22.5t22 56.5q0 33 -22 55.5t-55 22.5zM126 257h171q32 0 53 20t21 50t-21 50t-53 20h-171v-140z" />
    <glyph glyph-name="uni0433" unicode="&#x433;" horiz-adv-x="377" 
d="M126 0h-55v450h287v-53h-232v-397z" />
    <glyph glyph-name="uni0434" unicode="&#x434;" horiz-adv-x="581" 
d="M24 53h62q47 33 47 153v244h341v-397h84v-187h-55v134h-424v-134h-55v187zM188 206q0 -100 -36 -153h267v344h-231v-191z" />
    <glyph glyph-name="uni0435" unicode="&#x435;" horiz-adv-x="540" 
d="M44 225q0 100 65.5 166.5t163.5 66.5t164 -66.5t66 -166.5q0 -3 -0.5 -8.5t-0.5 -8.5h-402q5 -71 56 -117.5t125 -46.5q96 0 148 75l53 -18q-30 -51 -83 -80t-118 -29q-102 0 -169.5 66.5t-67.5 166.5zM101 254h345q-9 66 -57.5 109t-116.5 43q-66 0 -114 -43t-57 -109z
" />
    <glyph glyph-name="uni0436" unicode="&#x436;" horiz-adv-x="638" 
d="M552 0l-191 233l175 217h66l-175 -217l192 -233h-67zM86 0h-67l191 233l-174 217h66l175 -217zM291 0v450h55v-450h-55z" />
    <glyph glyph-name="uni0437" unicode="&#x437;" horiz-adv-x="472" 
d="M44 111l55 15q35 -81 135 -81q58 0 96.5 26t38.5 64q0 32 -24.5 53t-61.5 21h-109v47h104q35 0 58.5 19.5t23.5 48.5q0 35 -35.5 58t-89.5 23q-99 0 -133 -81l-55 15q23 57 72.5 88t118.5 31q76 0 127 -36.5t51 -90.5q0 -65 -62 -97q71 -34 71 -106q0 -58 -54 -97
t-136 -39q-70 0 -119.5 31t-71.5 88z" />
    <glyph glyph-name="uni0438" unicode="&#x438;" horiz-adv-x="550" 
d="M425 358l-307 -358h-47v450h55v-359l307 359h47v-450h-55v358z" />
    <glyph glyph-name="uni0439" unicode="&#x439;" horiz-adv-x="550" 
d="M425 358l-307 -358h-47v450h55v-359l307 359h47v-450h-55v358zM131 682h49q0 -37 26.5 -61t67.5 -24t67.5 24t26.5 61h49q0 -56 -41 -94.5t-102 -38.5t-102 38.5t-41 94.5z" />
    <glyph glyph-name="uni043A" unicode="&#x43a;" horiz-adv-x="444" 
d="M356 0l-211 233l193 217h68l-192 -217l211 -233h-69zM126 0h-55v450h55v-450z" />
    <glyph glyph-name="uni043B" unicode="&#x43b;" horiz-adv-x="523" 
d="M24 0v53h22q69 0 69 142v255h337v-450h-55v397h-227v-212q0 -93 -33 -139t-87 -46h-26z" />
    <glyph glyph-name="uni043C" unicode="&#x43c;" horiz-adv-x="620" 
d="M126 0h-55v450h55l184 -323l184 323h55v-450h-55v344l-167 -292h-34l-167 292v-344z" />
    <glyph glyph-name="uni043D" unicode="&#x43d;" horiz-adv-x="548" 
d="M126 0h-55v450h55v-194h296v194h55v-450h-55v202l-296 1v-203z" />
    <glyph glyph-name="uni043E" unicode="&#x43e;" horiz-adv-x="553" 
d="M277 458q99 0 166 -66.5t67 -166.5t-67 -166.5t-166 -66.5q-100 0 -167 66.5t-67 166.5t67 166.5t167 66.5zM101 225q0 -76 50 -127t125 -51q76 0 126 51t50 127t-50 127t-126 51q-75 0 -125 -51t-50 -127z" />
    <glyph glyph-name="uni043F" unicode="&#x43f;" horiz-adv-x="542" 
d="M71 0v450h400v-450h-55v397h-290v-397h-55z" />
    <glyph glyph-name="uni0440" unicode="&#x440;" horiz-adv-x="569" 
d="M71 -225v675h54v-82q31 42 77 66t101 24q95 0 159 -66.5t64 -166.5t-64 -166.5t-159 -66.5q-114 0 -178 90v-307h-54zM298 403q-73 0 -122 -51t-49 -127t49 -127t122 -51t122 51t49 127t-49 127t-122 51z" />
    <glyph glyph-name="uni0441" unicode="&#x441;" horiz-adv-x="523" 
d="M276 -8q-99 0 -166 66.5t-67 166.5t67 166.5t166 66.5q70 0 126.5 -35t83.5 -94l-55 -18q-21 42 -62.5 67t-92.5 25q-75 0 -125 -51t-50 -127t50 -127t125 -51q51 0 92.5 25t62.5 67l55 -18q-27 -59 -83.5 -94t-126.5 -35z" />
    <glyph glyph-name="uni0442" unicode="&#x442;" horiz-adv-x="449" 
d="M19 450h411v-53h-178l1 -397h-56v397h-178v53z" />
    <glyph glyph-name="afii10085.1" unicode="&#x443;" horiz-adv-x="456" 
d="M198 13l-184 437h58l154 -371l158 371h58l-290 -675h-56z" />
    <glyph glyph-name="uni0444" unicode="&#x444;" horiz-adv-x="672" 
d="M277 -8q-100 0 -166.5 66.5t-66.5 166.5t66.5 166.5t166.5 66.5q21 0 32 -2v269h55v-269q11 2 31 2q100 0 166.5 -66.5t66.5 -166.5t-66.5 -166.5t-166.5 -66.5q-20 0 -31 2v-219h-55v219q-11 -2 -32 -2zM277 403q-75 0 -125.5 -51t-50.5 -127t50.5 -127t125.5 -51
q15 0 32 3v350q-17 3 -32 3zM364 400v-350q16 -3 31 -3q76 0 126 51t50 127t-50 127t-126 51q-15 0 -31 -3z" />
    <glyph glyph-name="uni0445" unicode="&#x445;" horiz-adv-x="465" 
d="M87 0h-66l179 230l-171 220h66l138 -176l138 176h66l-171 -220l178 -230h-66l-145 185z" />
    <glyph glyph-name="uni0446" unicode="&#x446;" horiz-adv-x="574" 
d="M71 450h55v-397h286v397h55v-397h83v-187h-55v134h-424v450z" />
    <glyph glyph-name="uni0447" unicode="&#x447;" horiz-adv-x="485" 
d="M46 309v141h57v-141q0 -38 29.5 -62t83.5 -24q57 0 143 12v215h56v-450h-56v182q-86 -12 -147 -12q-76 0 -121 39t-45 100z" />
    <glyph glyph-name="uni0448" unicode="&#x448;" horiz-adv-x="767" 
d="M71 0v450h55v-397h230v397h55v-397h230v397h55v-450h-625z" />
    <glyph glyph-name="uni0449" unicode="&#x449;" horiz-adv-x="803" 
d="M71 450h55v-397h230v397h55v-397h230v397h55v-397h84v-187h-56v134h-653v450z" />
    <glyph glyph-name="uni044A" unicode="&#x44a;" horiz-adv-x="581" 
d="M187 397h-168v53h224v-172h161q60 0 99.5 -39.5t39.5 -99.5q0 -59 -39.5 -99t-99.5 -40h-217v397zM243 53h161q35 0 58.5 24.5t23.5 61.5t-23.5 61.5t-58.5 24.5h-161v-172z" />
    <glyph glyph-name="uni044B" unicode="&#x44b;" horiz-adv-x="637" 
d="M71 450h55v-172h161q60 0 99.5 -39.5t39.5 -99.5q0 -59 -39.5 -99t-99.5 -40h-216v450zM126 53h161q35 0 58.5 24.5t23.5 61.5t-23.5 61.5t-58.5 24.5h-161v-172zM512 0v450h55v-450h-55z" />
    <glyph glyph-name="uni044C" unicode="&#x44c;" horiz-adv-x="464" 
d="M71 0v450h55v-172h161q60 0 99.5 -39.5t39.5 -99.5q0 -59 -39.5 -99t-99.5 -40h-216zM126 53h161q35 0 58.5 24.5t23.5 61.5t-23.5 61.5t-58.5 24.5h-161v-172z" />
    <glyph glyph-name="uni044D" unicode="&#x44d;" horiz-adv-x="524" 
d="M38 122l55 16q21 -42 62.5 -66.5t92.5 -24.5q69 0 118 44t57 112h-223v52h222q-11 65 -59 106.5t-115 41.5q-51 0 -92.5 -25t-62.5 -67l-55 17q27 60 83 95t127 35q100 0 166 -66.5t66 -166.5t-66 -166.5t-166 -66.5q-71 0 -127 35t-83 95z" />
    <glyph glyph-name="uni044E" unicode="&#x44e;" horiz-adv-x="738" 
d="M71 450h55v-194h113q11 88 74 145t153 57q98 0 163.5 -66.5t65.5 -166.5t-65.5 -166.5t-163.5 -66.5q-92 0 -155.5 59.5t-71.5 150.5l-113 1v-203h-55v450zM466 403q-73 0 -122 -50.5t-49 -127.5q0 -76 49 -127t122 -51t122.5 51t49.5 127t-49 127t-123 51z" />
    <glyph glyph-name="uni044F" unicode="&#x44f;" horiz-adv-x="500" 
d="M51 312q0 59 39.5 98.5t98.5 39.5h241v-450h-55v173h-137l-121 -173h-65l121 174q-53 5 -87.5 44t-34.5 94zM189 397q-34 0 -57.5 -24.5t-23.5 -60.5q0 -37 23 -61t58 -24h186v170h-186z" />
    <glyph glyph-name="uni0450" unicode="&#x450;" horiz-adv-x="540" 
d="M281 -8q-102 0 -169.5 66.5t-67.5 166.5t65.5 166.5t163.5 66.5t164 -66.5t66 -166.5q0 -3 -0.5 -8.5t-0.5 -8.5h-402q5 -71 56 -117.5t125 -46.5q96 0 148 75l53 -18q-30 -51 -83 -80t-118 -29zM101 254h345q-9 66 -57.5 109t-116.5 43q-66 0 -114 -43t-57 -109z
M314 553l-163 91l29 47l154 -105z" />
    <glyph glyph-name="afii10071.ss11" unicode="&#x451;" horiz-adv-x="540" 
d="M44 225q0 100 65.5 166.5t163.5 66.5t164 -66.5t66 -166.5q0 -3 -0.5 -8.5t-0.5 -8.5h-402q5 -71 56 -117.5t125 -46.5q96 0 148 75l53 -18q-30 -51 -83 -80t-118 -29q-102 0 -169.5 66.5t-67.5 166.5zM101 254h345q-9 66 -57.5 109t-116.5 43q-66 0 -114 -43t-57 -109z
M328 638h82v-82h-82v82zM222 556h-82v82h82v-82z" />
    <glyph glyph-name="uni0452" unicode="&#x452;" horiz-adv-x="547" 
d="M71 569h-60v47h60v109h55v-109h177v-47h-177v-205q53 94 171 94q79 0 130.5 -52t51.5 -130v-374q0 -54 -34 -90.5t-86 -36.5h-38v53h34q29 0 49 23t20 57v355q0 61 -40 101.5t-100 40.5q-67 0 -112.5 -41.5t-45.5 -102.5v-261h-55v569z" />
    <glyph glyph-name="uni0453" unicode="&#x453;" horiz-adv-x="377" 
d="M126 0h-55v450h287v-53h-232v-397zM150 583l154 105l29 -48l-163 -90z" />
    <glyph glyph-name="uni0454" unicode="&#x454;" horiz-adv-x="524" 
d="M277 -8q-100 0 -167 66.5t-67 166.5t67 166.5t167 66.5q71 0 126.5 -35t82.5 -95l-55 -17q-21 42 -62 67t-92 25q-68 0 -116 -41.5t-59 -107.5l238 1v-52h-239q8 -68 57 -112t119 -44q50 0 91.5 24.5t62.5 66.5l55 -16q-27 -60 -82.5 -95t-126.5 -35z" />
    <glyph glyph-name="uni0455" unicode="&#x455;" horiz-adv-x="416" 
d="M208 -8q-69 0 -114 30t-54 80l52 10q7 -31 38.5 -51t78.5 -20t78.5 21.5t31.5 54.5q0 47 -64 70l-114 42q-88 31 -88 107q0 57 44 89.5t112 32.5q62 0 103 -27.5t50 -72.5l-52 -11q-7 28 -35 45t-70 17q-43 0 -71 -19.5t-28 -49.5q0 -43 53 -62l117 -42q96 -35 96 -116
q0 -59 -46.5 -93.5t-117.5 -34.5z" />
    <glyph glyph-name="afii10103.ss11" unicode="&#x456;" horiz-adv-x="196" 
d="M71 0v450h55v-450h-55zM60 564v78h77v-78h-77z" />
    <glyph glyph-name="afii10104.ss11" unicode="&#x457;" horiz-adv-x="196" 
d="M126 0h-55v450h55v-450zM-31 638h81v-82h-81v82zM145 638h81v-82h-81v82z" />
    <glyph glyph-name="afii10105.ss11" unicode="&#x458;" horiz-adv-x="203" 
d="M-25 -172h33q29 0 49.5 23t20.5 57v542h55v-548q0 -54 -34.5 -90.5t-86.5 -36.5h-37v53zM65 642h77v-78h-77v78z" />
    <glyph glyph-name="uni0459" unicode="&#x459;" horiz-adv-x="789" 
d="M50 0h-26v53h22q69 0 69 142v255h337v-172h161q60 0 99.5 -39.5t39.5 -99.5q0 -59 -39.5 -99t-99.5 -40h-216v397h-227v-212q0 -93 -33 -139t-87 -46zM613 225h-161v-172h161q35 0 58.5 24.5t23.5 61.5t-23.5 61.5t-58.5 24.5z" />
    <glyph glyph-name="uni045A" unicode="&#x45a;" horiz-adv-x="815" 
d="M71 450h55v-184h296v184h55v-184h162q59 0 98.5 -38t39.5 -94q0 -58 -39.5 -96t-98.5 -38h-217v213h-296v-213h-55v450zM477 53h162q35 0 58 23t23 58q0 34 -23 56.5t-58 22.5h-162v-160z" />
    <glyph glyph-name="uni045B" unicode="&#x45b;" horiz-adv-x="547" 
d="M11 569v47h60v109h55v-109h177v-47h-177v-205q53 94 171 94q79 0 130.5 -52t51.5 -130v-276h-55v263q0 61 -40 101.5t-100 40.5q-67 0 -112.5 -41.5t-45.5 -102.5v-261h-55v569h-60z" />
    <glyph glyph-name="uni045C" unicode="&#x45c;" horiz-adv-x="444" 
d="M145 233l193 217h68l-192 -217l211 -233h-69zM126 0h-55v450h55v-450zM183 550l-21 33l155 105l29 -48z" />
    <glyph glyph-name="uni045D" unicode="&#x45d;" horiz-adv-x="550" 
d="M425 358l-307 -358h-47v450h55v-359l307 359h47v-450h-55v358zM312 553l-163 91l29 47l155 -105z" />
    <glyph glyph-name="afii10110.1" unicode="&#x45e;" horiz-adv-x="456" 
d="M198 13l-184 437h58l154 -371l158 371h58l-290 -675h-56zM228 549q-61 0 -102 38.5t-41 94.5h49q1 -37 27.5 -61t66.5 -24q41 0 67.5 24t26.5 61h49q0 -56 -41 -94.5t-102 -38.5z" />
    <glyph glyph-name="uni045F" unicode="&#x45f;" horiz-adv-x="537" 
d="M71 0v450h55v-397h286v397h55v-450h-171v-134h-55v134h-170z" />
    <glyph glyph-name="uni0490" unicode="&#x490;" horiz-adv-x="519" 
d="M148 0h-61v675h344v150h61v-206h-344v-619z" />
    <glyph glyph-name="uni0491" unicode="&#x491;" horiz-adv-x="370" 
d="M126 0h-55v450h225v121h55v-174h-225v-397z" />
    <glyph glyph-name="uni04D8" unicode="&#x4d8;" horiz-adv-x="803" 
d="M57 338q0 17 1 26h627q-10 114 -89 187.5t-194 73.5q-71 0 -131 -30.5t-98 -84.5l-58 24q46 70 121 109.5t166 39.5q148 0 247 -98.5t99 -246.5q0 -149 -99 -248t-247 -99q-146 0 -245.5 99.5t-99.5 247.5zM121 308q10 -112 89 -185.5t192 -73.5q114 0 193 73.5t89 185.5
h-563z" />
    <glyph glyph-name="uni04D9" unicode="&#x4d9;" horiz-adv-x="540" 
d="M38 225q0 11 1 17h401q-5 71 -56 117.5t-125 46.5q-96 0 -147 -74l-54 17q30 50 83.5 79.5t117.5 29.5q103 0 170.5 -66.5t67.5 -166.5t-66 -166.5t-164 -66.5t-163.5 66.5t-65.5 166.5zM95 197q9 -67 57.5 -110t115.5 -43t115 43t57 110h-345z" />
    <glyph glyph-name="Wgrave" unicode="&#x1e80;" horiz-adv-x="985" 
d="M256 0l-234 675h61l195 -577l191 577h47l191 -577l195 577h62l-235 -675h-46l-190 570l-191 -570h-46zM531 756l-163 91l29 47l155 -105z" />
    <glyph glyph-name="wgrave" unicode="&#x1e81;" horiz-adv-x="677" 
d="M171 0l-157 450h56l124 -364l121 364h47l121 -364l124 364h55l-156 -450h-47l-121 357l-120 -357h-47zM377 553l-163 91l29 47l154 -105z" />
    <glyph glyph-name="Wacute" unicode="&#x1e82;" horiz-adv-x="985" 
d="M256 0l-234 675h61l195 -577l191 577h47l191 -577l195 577h62l-235 -675h-46l-190 570l-191 -570h-46zM452 753l-21 33l154 105l29 -48z" />
    <glyph glyph-name="wacute" unicode="&#x1e83;" horiz-adv-x="677" 
d="M171 0l-157 450h56l124 -364l121 364h47l121 -364l124 364h55l-156 -450h-47l-121 357l-120 -357h-47zM276 583l155 105l29 -48l-163 -90z" />
    <glyph glyph-name="Wdieresis.ss11" unicode="&#x1e84;" horiz-adv-x="985" 
d="M256 0l-234 675h61l196 -577l190 577h47l191 -577l195 577h62l-234 -675h-47l-190 570l-191 -570h-46zM357 841h82v-81h-82v81zM627 760h-82v81h82v-81z" />
    <glyph glyph-name="wdieresis.ss11" unicode="&#x1e85;" horiz-adv-x="677" 
d="M171 0l-157 450h56l124 -364l121 364h47l121 -364l124 364h55l-156 -450h-47l-121 357l-121 -357h-46zM285 556h-82v82h82v-82zM391 556v82h82v-82h-82z" />
    <glyph glyph-name="Germandbls" unicode="&#x1e9e;" horiz-adv-x="647" 
d="M87 0v439q0 101 70.5 168.5t176.5 67.5h249v-44l-155 -204q73 -13 122.5 -71t49.5 -135q0 -99 -79.5 -164.5t-193.5 -65.5l1 59q88 0 150 48.5t62 123.5q0 71 -57.5 119.5t-148.5 48.5l171 228h-170q-81 0 -135 -51t-54 -129v-438h-59z" />
    <glyph glyph-name="Ygrave" unicode="&#x1ef2;" horiz-adv-x="637" 
d="M288 274l-266 401h69l227 -344l228 344h69l-267 -399v-276h-60v274zM357 756l-163 91l29 47l155 -105z" />
    <glyph glyph-name="ygrave.1" unicode="&#x1ef3;" horiz-adv-x="456" 
d="M198 13l-184 437h58l154 -371l158 371h58l-290 -675h-56zM104 644l29 47l154 -105l-20 -33z" />
    <glyph glyph-name="figuredash" unicode="&#x2012;" horiz-adv-x="600" 
d="M77 364h446v-53h-446v53z" />
    <glyph glyph-name="endash.case" unicode="&#x2013;" horiz-adv-x="600" 
d="M72 363h456v-51h-456v51z" />
    <glyph glyph-name="emdash.case" unicode="&#x2014;" horiz-adv-x="1000" 
d="M72 363h856v-51h-856v51z" />
    <glyph glyph-name="uni2015.case" unicode="&#x2015;" horiz-adv-x="1000" 
d="M72 363h856v-51h-856v51z" />
    <glyph glyph-name="quoteleft" unicode="&#x2018;" horiz-adv-x="192" 
d="M124 743l18 -19q-5 -5 -12.5 -13t-19 -31t-9.5 -43q17 -2 29 -14.5t12 -30.5q0 -19 -13 -31.5t-33 -12.5q-21 0 -35 18t-14 50q0 37 19.5 68.5t37 45t20.5 13.5z" />
    <glyph glyph-name="quoteright" unicode="&#x2019;" horiz-adv-x="192" 
d="M68 538l-18 19q5 5 12.5 13t19 31t9.5 43q-17 2 -29 15t-12 31t13 30.5t32 12.5q22 0 36 -17.5t14 -49.5q0 -79 -76 -127z" />
    <glyph glyph-name="quotesinglbase.ss11" unicode="&#x201a;" horiz-adv-x="189" 
d="M140 0q0 -55 -29 -92t-73 -37v33q28 0 46.5 27.5t18.5 68.5h-53v90h90v-90z" />
    <glyph glyph-name="quotereversed.ss11" unicode="&#x201b;" horiz-adv-x="189" 
d="M50 635v90h90v-90h-53q0 -41 18.5 -68.5t45.5 -27.5v-33q-43 0 -72 36.5t-29 92.5z" />
    <glyph glyph-name="quotedblleft" unicode="&#x201c;" horiz-adv-x="323" 
d="M124 743l18 -19q-5 -5 -12.5 -13t-19 -31t-9.5 -43q17 -2 29 -14.5t12 -30.5q0 -19 -13 -31.5t-33 -12.5q-21 0 -35 18t-14 50q0 37 19.5 68.5t37 45t20.5 13.5zM178 616q0 37 19.5 68.5t37 45t20.5 13.5l18 -19q-5 -5 -12.5 -13t-19 -31t-9.5 -43q17 -2 29 -14.5
t12 -30.5q0 -19 -13 -31.5t-32 -12.5q-22 0 -36 18t-14 50z" />
    <glyph glyph-name="quotedblright" unicode="&#x201d;" horiz-adv-x="323" 
d="M68 538l-18 19q5 5 12.5 13t19 31t9.5 43q-17 2 -29 15t-12 31t13 30.5t32 12.5q22 0 36 -17.5t14 -49.5q0 -79 -76 -127zM222 644q-17 2 -29 15t-12 31t13.5 30.5t32.5 12.5q21 0 35 -17.5t14 -49.5q0 -74 -77 -128l-18 19q5 5 12.5 13t19 31t9.5 43z" />
    <glyph glyph-name="quotedblbase.ss11" unicode="&#x201e;" horiz-adv-x="331" 
d="M180 -96q28 0 46 27.5t18 68.5h-53v90h91v-90q0 -55 -29 -92t-73 -37v33zM140 0q0 -55 -29 -92t-73 -37v33q28 0 46.5 27.5t18.5 68.5h-53v90h90v-90z" />
    <glyph glyph-name="uni201F.ss11" unicode="&#x201f;" horiz-adv-x="331" 
d="M191 635v90h91v-90h-53q0 -41 18.5 -68.5t45.5 -27.5v-33q-44 0 -73 37t-29 92zM50 725h90v-90h-53q0 -41 18.5 -68.5t45.5 -27.5v-33q-43 0 -72 36.5t-29 92.5v90z" />
    <glyph glyph-name="dagger.case" unicode="&#x2020;" horiz-adv-x="475" 
d="M447 428h-185v-428h-49v428h-184v47h184v200h49v-200h185v-47z" />
    <glyph glyph-name="daggerdbl.case" unicode="&#x2021;" horiz-adv-x="475" 
d="M447 432h-186v-189h186v-46h-186v-197h-47v197h-185v46h185v189h-185v46h185v197h47v-197h186v-46z" />
    <glyph glyph-name="bullet.case" unicode="&#x2022;" horiz-adv-x="278" 
d="M49 338q0 39 26 64.5t64 25.5q39 0 65 -25.5t26 -64.5t-26 -65t-65 -26q-38 0 -64 26t-26 65z" />
    <glyph glyph-name="ellipsis.ss11" unicode="&#x2026;" horiz-adv-x="584" 
d="M439 96h96v-96h-96v96zM244 0v96h96v-96h-96zM50 0v96h95v-96h-95z" />
    <glyph glyph-name="perthousand" unicode="&#x2030;" horiz-adv-x="1200" 
d="M995 318q70 0 116.5 -46.5t46.5 -116.5t-46.5 -117t-116.5 -47t-117 47t-47 117t47 116.5t117 46.5zM205 684q70 0 116.5 -47t46.5 -117t-46.5 -116.5t-116.5 -46.5t-116.5 46.5t-46.5 116.5t46.5 117t116.5 47zM609 318q70 0 116.5 -46.5t46.5 -116.5t-46.5 -117
t-116.5 -47t-117 47t-47 117t47 116.5t117 46.5zM995 44q47 0 78.5 32t31.5 79t-31.5 78.5t-78.5 31.5t-79 -31.5t-32 -78.5t32 -79t79 -32zM498 155q0 -47 31.5 -79t78.5 -32t79 32t32 79t-32 78.5t-79 31.5t-78.5 -31.5t-31.5 -78.5zM95 520q0 -47 31.5 -78.5t78.5 -31.5
t78.5 31.5t31.5 78.5t-31.5 79t-78.5 32t-78.5 -32t-31.5 -79zM154 0l-35 29l542 646l34 -29z" />
    <glyph glyph-name="guilsinglleft.case" unicode="&#x2039;" horiz-adv-x="293" 
d="M37 338l167 166l34 -34l-132 -132l132 -133l-34 -34z" />
    <glyph glyph-name="guilsinglright.case" unicode="&#x203a;" horiz-adv-x="293" 
d="M256 338l-167 -167l-34 34l132 133l-132 132l34 34z" />
    <glyph glyph-name="fraction" unicode="&#x2044;" horiz-adv-x="530" 
d="M0 0l475 675h55l-475 -675h-55z" />
    <glyph glyph-name="Euro" unicode="&#x20ac;" horiz-adv-x="833" 
d="M139 395h-107v45h117q32 109 122 176t210 67q96 0 174.5 -44.5t123.5 -121.5l-57 -23q-38 61 -101.5 96t-139.5 35q-94 0 -165.5 -50.5t-101.5 -134.5h298v-45h-311q-5 -32 -5 -57q0 -26 5 -58h311v-45h-298q30 -84 102 -135t165 -51q76 0 139.5 35t101.5 96l57 -22
q-45 -77 -123.5 -122t-174.5 -45q-120 0 -210 67.5t-122 176.5h-117v45h107q-4 25 -4 58q0 32 4 57z" />
    <glyph glyph-name="uni20B4" unicode="&#x20b4;" horiz-adv-x="616" 
d="M335 381h-290v45h374q64 40 64 88q0 45 -47.5 78t-116.5 33q-66 0 -112.5 -31t-55.5 -78l-60 17q15 65 78 107.5t151 42.5q95 0 159 -48t64 -116q0 -50 -48 -93h77v-45h-135q-30 -17 -94 -45.5t-89 -41.5h318v-45h-392q-46 -36 -46 -79q0 -49 52 -85t128 -36
q74 0 126 34.5t61 86.5l59 -17q-15 -70 -82.5 -116t-162.5 -46q-103 0 -172 51t-69 125q0 45 34 82h-63v45h112q22 15 51 29.5t69.5 32t57.5 25.5z" />
    <glyph glyph-name="uni20BF" unicode="&#x20bf;" horiz-adv-x="674" 
d="M87 0v675h70v121h46v-121h177v121h45v-122q71 -8 116 -55.5t45 -114.5q0 -97 -85 -146q55 -20 87.5 -66t32.5 -105q0 -76 -51.5 -128.5t-130.5 -57.5v-122h-45v121h-189v-121h-45v121h-73zM422 325h-274v-269h274q58 0 97.5 38.5t39.5 95.5q0 58 -39 96.5t-98 38.5z
M403 619h-255v-238h255q52 0 87 34t35 85q0 50 -35 84.5t-87 34.5z" />
    <glyph glyph-name="uni2113" unicode="&#x2113;" horiz-adv-x="462" 
d="M46 189v59q36 13 84 39v277q0 74 38 121.5t97 47.5q61 0 100 -48.5t39 -122.5q0 -168 -218 -303v-125q0 -37 22 -62t54 -25q27 0 52.5 18t37.5 36l12 18l35 -35q-2 -4 -6.5 -10t-19 -22t-30 -28t-39 -22t-47.5 -10q-53 0 -90 41.5t-37 102.5v92zM186 321q163 109 163 240
q0 50 -23.5 83.5t-59.5 33.5q-35 0 -57.5 -32t-22.5 -80v-245z" />
    <glyph glyph-name="uni2116" unicode="&#x2116;" horiz-adv-x="1080" 
d="M146 0h-59v675h52l457 -570v570h58v-675h-52l-456 570v-570zM885 388q-63 0 -105.5 42.5t-42.5 105.5t42.5 105.5t105.5 42.5t105 -42.5t42 -105.5t-42 -105.5t-105 -42.5zM790 536q0 -40 27 -67.5t68 -27.5q40 0 67 27.5t27 67.5t-27 67.5t-67 27.5q-41 0 -68 -27.5
t-27 -67.5zM741 250v53h287v-53h-287z" />
    <glyph glyph-name="uni2117" unicode="&#x2117;" horiz-adv-x="800" 
d="M56 338q0 142 101 242.5t243 100.5t243 -100.5t101 -242.5t-101 -243t-243 -101t-243 101t-101 243zM400 24q130 0 222 92t92 222t-92 221.5t-222 91.5t-222 -91.5t-92 -221.5t92 -222t222 -92zM297 163v350h152q49 0 81.5 -31t32.5 -78q0 -46 -32.5 -77t-81.5 -31h-110
v-133h-42zM449 474h-110v-139h110q30 0 50.5 19.5t20.5 49.5t-20.5 50t-50.5 20z" />
    <glyph glyph-name="trademark" unicode="&#x2122;" horiz-adv-x="761" 
d="M405 338h-38v337h38l139 -243l140 243h38v-337h-38v267l-127 -225h-25l-127 223v-265zM142 639h-129v36h298v-36h-130v-301h-39v301z" />
    <glyph glyph-name="estimated" unicode="&#x212e;" horiz-adv-x="802" 
d="M401 -7q-142 0 -243 100.5t-101 244.5q0 143 100.5 243.5t243.5 100.5t244 -100.5t101 -243.5h-535v-240q84 -66 190 -66q86 0 158 44t113 120h43q-41 -93 -126.5 -148t-187.5 -55zM401 643q-106 0 -190 -66v-201h380v201q-84 66 -190 66z" />
    <glyph glyph-name="uni2150" unicode="&#x2150;" horiz-adv-x="764" 
d="M140 0h-53l475 675h53zM695 334h-201v38h244v-40l-133 -332h-45zM27 617l108 58h27v-371h-41v320l-78 -42z" />
    <glyph glyph-name="uni2151" unicode="&#x2151;" horiz-adv-x="778" 
d="M480 253q0 52 39 87t95 35q57 0 95 -34.5t38 -84.5v-130q0 -56 -40 -93t-101 -37q-40 0 -72.5 17.5t-50.5 47.5l36 18q27 -43 87 -43q43 0 72 25.5t29 63.5v60q-29 -55 -96 -55q-54 0 -92.5 35.5t-38.5 87.5zM140 0h-53l475 675h53zM523 253q0 -36 26 -60t65 -24t65 24
t26 59t-26 59.5t-65 24.5t-65 -24t-26 -59zM27 617l108 58h27v-371h-41v320l-78 -42z" />
    <glyph glyph-name="uni2152" unicode="&#x2152;" horiz-adv-x="1044" 
d="M872 -4q-59 0 -99 37.5t-40 93.5v118q0 55 40 92.5t99 37.5t99 -37.5t40 -92.5v-118q0 -56 -40 -93.5t-99 -37.5zM774 127q0 -39 28 -65t70 -26q41 0 69.5 26t28.5 65v118q0 38 -28.5 64.5t-69.5 26.5q-42 0 -70 -26.5t-28 -64.5v-118zM87 0l475 675h53l-475 -675h-53z
M27 617l108 58h27v-371h-41v320l-78 -42zM500 313l108 59h27v-372h-41v320l-78 -42z" />
    <glyph glyph-name="onethird" unicode="&#x2153;" horiz-adv-x="773" 
d="M140 0h-53l475 675h53zM486 68l38 14q22 -46 87 -46q39 0 65 19.5t26 49.5q0 29 -25.5 48.5t-62.5 19.5h-28v33h20q37 0 62 18.5t25 46.5t-24 46.5t-59 18.5q-61 0 -83 -47l-36 15q15 32 47 51.5t74 19.5q53 0 88.5 -29.5t35.5 -73.5q0 -56 -61 -80q32 -11 51 -35t19 -53
q0 -46 -38.5 -77t-94.5 -31q-45 0 -78.5 19.5t-47.5 52.5zM27 617l108 58h27v-371h-41v320l-78 -42z" />
    <glyph glyph-name="twothirds" unicode="&#x2154;" horiz-adv-x="856" 
d="M169 0l475 675h53l-474 -675h-54zM694 -4q-44 0 -78 19.5t-48 52.5l39 14q9 -21 32.5 -33.5t53.5 -12.5q40 0 66 19.5t26 49.5q0 29 -26 48.5t-63 19.5h-28v33h20q37 0 62 18.5t25 46.5t-23.5 46.5t-58.5 18.5q-62 0 -84 -47l-36 15q15 32 47 51.5t74 19.5
q53 0 88.5 -29.5t35.5 -73.5q0 -56 -61 -80q32 -11 51 -35t19 -53q0 -46 -38 -77t-95 -31zM24 593q16 39 49.5 62.5t75.5 23.5q52 0 88.5 -32.5t36.5 -78.5q0 -52 -77 -124l-106 -101h189v-39h-253v29l142 137q21 20 32 32.5t20.5 30t9.5 34.5q0 30 -24 51t-58 21
q-62 0 -87 -64z" />
    <glyph glyph-name="uni2155" unicode="&#x2155;" horiz-adv-x="779" 
d="M485 76l40 12q26 -52 89 -52q40 0 67.5 23.5t27.5 57.5q0 35 -28.5 58.5t-70.5 23.5h-99l18 173h193v-38h-158l-11 -97h64q57 0 95.5 -34.5t38.5 -85.5q0 -52 -39.5 -86.5t-97.5 -34.5q-45 0 -79.5 22t-49.5 58zM140 0h-53l475 675h53zM27 617l108 58h27v-371h-41v320
l-78 -42z" />
    <glyph glyph-name="uni2156" unicode="&#x2156;" horiz-adv-x="862" 
d="M567 76l41 12q24 -52 88 -52q40 0 67.5 23.5t27.5 57.5q0 35 -28.5 58.5t-70.5 23.5h-98l18 173h192v-38h-158l-10 -97h64q56 0 94.5 -34.5t38.5 -85.5q0 -52 -39 -86.5t-98 -34.5q-44 0 -78.5 22t-50.5 58zM169 0l475 675h53l-474 -675h-54zM62 575l-38 18
q16 39 49.5 62.5t75.5 23.5q52 0 88.5 -32.5t36.5 -78.5q0 -52 -77 -124l-106 -101h189v-39h-253v29l142 137q21 20 32 32.5t20.5 30t9.5 34.5q0 30 -24 51t-58 21q-62 0 -87 -64z" />
    <glyph glyph-name="uni2157" unicode="&#x2157;" horiz-adv-x="871" 
d="M576 76l41 12q26 -52 88 -52q40 0 67.5 23t27.5 58t-28.5 58.5t-70.5 23.5h-98l18 173h192v-38h-158l-10 -97h64q57 0 95 -34.5t38 -85.5q0 -52 -39 -86.5t-97 -34.5q-44 0 -79 22t-51 58zM232 0h-53l474 675h53zM27 372l38 14q9 -21 32.5 -34t54.5 -13q39 0 65 20t26 49
t-25.5 48.5t-63.5 19.5h-27v34h20q37 0 62 18.5t25 46.5q0 27 -24 45.5t-59 18.5q-62 0 -84 -46l-35 14q15 32 47 52t74 20q53 0 88.5 -29.5t35.5 -73.5q0 -26 -16.5 -48t-44.5 -33q32 -11 50.5 -35t18.5 -53q0 -46 -38 -76.5t-94 -30.5q-45 0 -78.5 19.5t-47.5 52.5z" />
    <glyph glyph-name="uni2158" unicode="&#x2158;" horiz-adv-x="903" 
d="M232 381h-207v40l210 254h38v-254h56v-40h-56v-77h-41v77zM608 76l41 12q24 -52 88 -52q40 0 67.5 23.5t27.5 57.5q0 35 -28.5 58.5t-70.5 23.5h-98l17 173h193v-38h-158l-11 -97h64q57 0 95.5 -34.5t38.5 -85.5q0 -52 -39.5 -86.5t-97.5 -34.5q-44 0 -78.5 21.5
t-50.5 58.5zM210 0l475 675h53l-475 -675h-53zM74 421h158v191z" />
    <glyph glyph-name="uni2159" unicode="&#x2159;" horiz-adv-x="787" 
d="M628 -4q-58 0 -96.5 34.5t-38.5 85.5v130q0 55 40 92t99 37q82 0 120 -64l-36 -18q-28 43 -84 43q-42 0 -70 -26t-28 -64v-60q30 50 97 50q55 0 93 -34.5t38 -85.5t-38.5 -85.5t-95.5 -34.5zM140 0h-53l475 675h53zM536 116q0 -34 26 -57t66 -23q38 0 64.5 23t26.5 57
t-26.5 57.5t-64.5 23.5q-39 0 -65.5 -23.5t-26.5 -57.5zM27 617l108 58h27v-371h-41v320l-78 -42z" />
    <glyph glyph-name="uni215A" unicode="&#x215a;" horiz-adv-x="865" 
d="M572 246q0 55 40 92t99 37q82 0 120 -64l-37 -18q-26 43 -83 43q-42 0 -70 -26t-28 -64v-60q30 50 97 50q54 0 92.5 -34.5t38.5 -85.5t-39 -85.5t-95 -34.5q-58 0 -96.5 34.5t-38.5 85.5v130zM25 379l41 12q27 -52 89 -52q40 0 67.5 23.5t27.5 57.5q0 35 -29 59t-70 24
h-99l18 172h193v-38h-159l-10 -97h64q57 0 95.5 -34.5t38.5 -84.5q0 -52 -39.5 -86.5t-97.5 -34.5q-45 0 -79.5 21.5t-50.5 57.5zM166 0l475 675h53l-475 -675h-53zM614 116q0 -34 26.5 -57t66.5 -23q38 0 64.5 23t26.5 57t-26.5 57.5t-64.5 23.5q-40 0 -66.5 -23.5
t-26.5 -57.5z" />
    <glyph glyph-name="oneeighth" unicode="&#x215b;" horiz-adv-x="784" 
d="M622 -4q-58 0 -96 30.5t-38 75.5q0 30 18 54t49 38q-56 28 -56 84q0 41 35.5 69t87.5 28t87 -28t35 -69q0 -56 -56 -84q31 -14 49 -38.5t18 -54.5q0 -45 -38 -75t-95 -30zM140 0h-53l475 675h53zM622 174q-40 0 -66 -19.5t-26 -49.5q0 -29 26 -49t66 -20q39 0 65 19.5
t26 49.5t-26 49.5t-65 19.5zM27 617l108 58h27v-371h-41v320l-78 -42zM622 336q-34 0 -57.5 -18t-23.5 -44q0 -27 23 -44.5t58 -17.5q34 0 57 17.5t23 44.5q0 26 -23 44t-57 18z" />
    <glyph glyph-name="threeeighths" unicode="&#x215c;" horiz-adv-x="878" 
d="M579 102q0 30 18 54t49 38q-56 28 -56 84q0 41 35.5 69t87.5 28t87.5 -28t35.5 -69q0 -56 -56 -84q31 -14 49 -38.5t18 -54.5q0 -45 -38.5 -75t-95.5 -30t-95.5 30.5t-38.5 75.5zM232 0h-53l474 675h53zM153 300q-45 0 -78.5 19.5t-47.5 52.5l38 14q9 -21 32.5 -34
t54.5 -13q39 0 65 20t26 49t-25.5 48.5t-63.5 19.5h-27v34h20q37 0 62 18.5t25 46.5q0 27 -24 45.5t-59 18.5q-62 0 -84 -46l-35 14q15 32 47 52t74 20q53 0 88.5 -29.5t35.5 -73.5q0 -26 -16.5 -48t-44.5 -33q32 -11 50.5 -35t18.5 -53q0 -46 -38 -76.5t-94 -30.5zM713 174
q-40 0 -66 -19.5t-26 -49.5q0 -29 26 -49t66 -20q39 0 65.5 19.5t26.5 49.5t-26.5 49.5t-65.5 19.5zM633 274q0 -27 22.5 -44.5t57.5 -17.5t57.5 17.5t22.5 44.5q0 26 -23 44t-57 18t-57 -18t-23 -44z" />
    <glyph glyph-name="fiveeighths" unicode="&#x215d;" horiz-adv-x="865" 
d="M701 -4q-58 0 -96 30.5t-38 75.5q0 62 66 92q-55 28 -55 84q0 41 35.5 69t87.5 28t87 -28t35 -69q0 -56 -56 -84q31 -14 49 -38.5t18 -54.5q0 -45 -38.5 -75t-94.5 -30zM25 379l41 12q27 -52 89 -52q40 0 67.5 23.5t27.5 57.5q0 35 -29 59t-70 24h-99l18 172h193v-38
h-159l-10 -97h64q57 0 95.5 -34.5t38.5 -84.5q0 -52 -39.5 -86.5t-97.5 -34.5q-45 0 -79.5 21.5t-50.5 57.5zM166 0l475 675h53l-475 -675h-53zM701 174q-40 0 -66 -19.5t-26 -49.5q0 -29 26 -49t66 -20q39 0 65 19.5t26 49.5t-26 49.5t-65 19.5zM620 274q0 -27 23 -44.5
t58 -17.5q34 0 57 17.5t23 44.5q0 26 -23 44t-57 18t-57.5 -18t-23.5 -44z" />
    <glyph glyph-name="seveneighths" unicode="&#x215e;" horiz-adv-x="816" 
d="M651 -4q-57 0 -95.5 30.5t-38.5 75.5q0 30 18 54t49 38q-56 28 -56 84q0 41 35.5 69t87.5 28t87.5 -28t35.5 -69q0 -56 -56 -84q31 -14 49 -38.5t18 -54.5q0 -45 -38.5 -75t-95.5 -30zM116 0l475 675h53l-474 -675h-54zM213 637h-200v38h243v-40l-133 -331h-45zM651 174
q-40 0 -66 -19.5t-26 -49.5q0 -29 26 -49t66 -20q39 0 65 19.5t26 49.5t-26 49.5t-65 19.5zM651 336q-34 0 -57.5 -18t-23.5 -44q0 -27 23 -44.5t58 -17.5t57.5 17.5t22.5 44.5q0 26 -23 44t-57 18z" />
    <glyph glyph-name="uni215F" unicode="&#x215f;" horiz-adv-x="615" 
d="M140 0h-53l475 675h53zM27 617l108 58h27v-371h-41v320l-78 -42z" />
    <glyph glyph-name="uni23F4" unicode="&#x2190;" horiz-adv-x="371" 
d="M45 338l246 217v-434z" />
    <glyph glyph-name="uni23F6" unicode="&#x2191;" horiz-adv-x="454" 
d="M227 461l217 -246h-434z" />
    <glyph glyph-name="uni23F5" unicode="&#x2192;" horiz-adv-x="371" 
d="M326 338l-246 -217v434z" />
    <glyph glyph-name="uni23F7" unicode="&#x2193;" horiz-adv-x="454" 
d="M227 215l-217 246h434z" />
    <glyph glyph-name="uni2196" unicode="&#x2196;" horiz-adv-x="658" 
d="M144 523h319v-49l-232 -2l301 -301l-36 -37l-302 302l-1 -232h-49v319z" />
    <glyph glyph-name="uni2197" unicode="&#x2197;" horiz-adv-x="658" 
d="M532 523v-319h-48l-2 232l-302 -302l-36 37l302 301l-232 2v49h318z" />
    <glyph glyph-name="uni2198" unicode="&#x2198;" horiz-adv-x="658" 
d="M532 134h-318v49l232 2l-302 301l36 37l302 -302l2 232h48v-319z" />
    <glyph glyph-name="uni2199" unicode="&#x2199;" horiz-adv-x="658" 
d="M144 134v319h49l1 -232l302 302l36 -37l-301 -301l232 -2v-49h-319z" />
    <glyph glyph-name="emptyset" unicode="&#x2205;" 
d="M57 338q0 143 101.5 244.5t244.5 101.5q96 0 179 -51l35 51h56l-54 -77q61 -49 95.5 -119.5t34.5 -149.5q0 -144 -101.5 -245.5t-244.5 -101.5q-96 0 -179 51l-36 -51h-55l53 77q-60 48 -94.5 118.5t-34.5 151.5zM215 109l339 483q-68 42 -151 42q-123 0 -210 -87
t-87 -209q0 -68 29 -128t80 -101zM591 566l-339 -483q68 -42 151 -42q122 0 209 87t87 210q0 68 -29 127.5t-79 100.5z" />
    <glyph glyph-name="product" unicode="&#x220f;" horiz-adv-x="655" 
d="M87 -175v850h480v-850h-58v795h-363v-795h-59z" />
    <glyph glyph-name="summation" unicode="&#x2211;" horiz-adv-x="500" 
d="M30 626v49h440v-55h-372l225 -370l-225 -370h372v-55h-440v49l229 376z" />
    <glyph glyph-name="minus" unicode="&#x2212;" horiz-adv-x="600" 
d="M77 364h446v-53h-446v53z" />
    <glyph glyph-name="radical" unicode="&#x221a;" horiz-adv-x="611" 
d="M8 137l129 84h15l182 -281l225 842l47 -8l-247 -924h-21l-206 317l-101 -65z" />
    <glyph glyph-name="integral" unicode="&#x222b;" horiz-adv-x="270" 
d="M41 -175h-31v53h28q29 0 49 23t20 57v640q0 54 35 90.5t87 36.5h31v-53h-28q-30 0 -50 -23t-20 -57v-640q0 -54 -34.5 -90.5t-86.5 -36.5z" />
    <glyph glyph-name="approxequal" unicode="&#x2248;" horiz-adv-x="600" 
d="M77 172q0 57 38 94.5t94 37.5q30 0 56 -13t42.5 -28.5t39 -28.5t45.5 -13q33 0 54.5 22t21.5 55h55q0 -56 -38.5 -94t-95.5 -38q-30 0 -56.5 13t-42.5 28.5t-38 28.5t-45 13q-33 0 -54 -22t-21 -55h-55zM77 378q0 57 38 94.5t94 37.5q30 0 56 -13t42.5 -28.5t39 -28.5
t45.5 -13q33 0 54.5 22t21.5 55h55q0 -56 -38.5 -94t-95.5 -38q-30 0 -56.5 13t-42.5 28.5t-38 28.5t-45 13q-33 0 -54 -22t-21 -55h-55z" />
    <glyph glyph-name="notequal" unicode="&#x2260;" horiz-adv-x="600" 
d="M313 422h-236v53h261l55 119h54l-55 -119h131v-53h-155l-79 -169h234v-53h-259l-55 -119h-54l55 119h-133v53h157z" />
    <glyph glyph-name="lessequal" unicode="&#x2264;" horiz-adv-x="600" 
d="M77 385v45l446 203v-58l-367 -167l367 -167v-58zM77 60v53h446v-53h-446z" />
    <glyph glyph-name="greaterequal" unicode="&#x2265;" horiz-adv-x="600" 
d="M77 241l367 167l-367 167v58l446 -203v-45l-446 -202v58zM77 60v53h446v-53h-446z" />
    <glyph glyph-name="uni2296" unicode="&#x2296;" 
d="M57 338q0 143 101.5 244.5t244.5 101.5t244.5 -101.5t101.5 -244.5q0 -144 -101.5 -245.5t-244.5 -101.5t-244.5 101.5t-101.5 245.5zM698 313h-591q9 -114 94 -193t202 -79q116 0 201 79t94 193zM107 363h591q-10 114 -94.5 192.5t-200.5 78.5t-201 -78t-95 -193z" />
    <glyph glyph-name="uni2298" unicode="&#x2298;" 
d="M403 684q143 0 244.5 -101.5t101.5 -244.5q0 -144 -101.5 -245.5t-244.5 -101.5t-244.5 101.5t-101.5 245.5q0 143 101.5 244.5t244.5 101.5zM403 41q122 0 209 87t87 210q0 109 -70 192l-419 -418q82 -71 193 -71zM106 338q0 -110 70 -191l418 417q-83 70 -191 70
q-123 0 -210 -87t-87 -209z" />
    <glyph glyph-name="uni24FF" unicode="&#x24ff;" horiz-adv-x="835" 
d="M418 701q151 0 257 -106t106 -257t-106 -257.5t-257 -106.5q-152 0 -258 106t-106 258q0 151 106.5 257t257.5 106zM418 148q59 0 99 37.5t40 93.5v118q0 55 -40 92.5t-99 37.5t-99 -37.5t-40 -92.5v-118q0 -56 40 -93.5t99 -37.5zM418 488q41 0 69.5 -26t28.5 -65v-118
q0 -39 -28.5 -65t-69.5 -26q-42 0 -70 26t-28 65v118q0 39 28 65t70 26z" />
    <glyph glyph-name="filledbox" unicode="&#x25a0;" horiz-adv-x="850" 
d="M87 0v675h675v-675h-675z" />
    <glyph glyph-name="uni25A1" unicode="&#x25a1;" horiz-adv-x="850" 
d="M87 0v675h675v-675h-675zM713 626h-576v-577h576v577z" />
    <glyph glyph-name="uni25A2" unicode="&#x25a2;" horiz-adv-x="850" 
d="M87 0v675h675v-675h-675zM713 626h-576v-577h576v577z" />
    <glyph glyph-name="triagup" unicode="&#x25b2;" horiz-adv-x="863" 
d="M432 695l401 -695h-803z" />
    <glyph glyph-name="uni25B3" unicode="&#x25b3;" horiz-adv-x="863" 
d="M833 0h-803l402 695zM748 49l-316 548l-316 -548h632z" />
    <glyph glyph-name="triagrt" unicode="&#x25ba;" horiz-adv-x="990" 
d="M960 338l-850 -376v751z" />
    <glyph glyph-name="triagdn" unicode="&#x25bc;" horiz-adv-x="863" 
d="M432 -20l-402 695h803z" />
    <glyph glyph-name="uni25BD" unicode="&#x25bd;" horiz-adv-x="863" 
d="M833 675l-401 -695l-402 695h803zM748 626h-632l316 -547z" />
    <glyph glyph-name="triaglf" unicode="&#x25c4;" horiz-adv-x="990" 
d="M30 338l850 375v-751z" />
    <glyph glyph-name="uni25C6" unicode="&#x25c6;" horiz-adv-x="775" 
d="M30 338l358 357l357 -357l-357 -358z" />
    <glyph glyph-name="uni25C7" unicode="&#x25c7;" horiz-adv-x="775" 
d="M30 338l358 357l357 -357l-357 -358zM675 338l-287 287l-288 -287l288 -288z" />
    <glyph glyph-name="lozenge" unicode="&#x25ca;" horiz-adv-x="489" 
d="M225 675h39l195 -337l-195 -338h-39l-195 338zM402 338l-157 271l-158 -271l158 -272z" />
    <glyph glyph-name="circle" unicode="&#x25cb;" 
d="M403 684q143 0 244.5 -101.5t101.5 -244.5q0 -144 -101.5 -245.5t-244.5 -101.5t-244.5 101.5t-101.5 245.5q0 143 101.5 244.5t244.5 101.5zM106 338q0 -123 87 -210t210 -87q122 0 209 87t87 210q0 122 -87 209t-209 87q-123 0 -210 -87t-87 -209z" />
    <glyph glyph-name="uni25CF" unicode="&#x25cf;" 
d="M57 338q0 143 101.5 244.5t244.5 101.5t244.5 -101.5t101.5 -244.5q0 -144 -101.5 -245.5t-244.5 -101.5t-244.5 101.5t-101.5 245.5z" />
    <glyph glyph-name="uni25D0" unicode="&#x25d0;" 
d="M57 338q0 143 101.5 244.5t244.5 101.5t244.5 -101.5t101.5 -244.5q0 -144 -101.5 -245.5t-244.5 -101.5t-244.5 101.5t-101.5 245.5zM403 634v-593q122 0 209 87t87 210q0 122 -87 209t-209 87z" />
    <glyph glyph-name="uni25D1" unicode="&#x25d1;" 
d="M403 684q143 0 244.5 -101.5t101.5 -244.5q0 -144 -101.5 -245.5t-244.5 -101.5t-244.5 101.5t-101.5 245.5q0 143 101.5 244.5t244.5 101.5zM403 41v593q-123 0 -210 -87t-87 -209q0 -123 87 -210t210 -87z" />
    <glyph glyph-name="uni25D2" unicode="&#x25d2;" 
d="M57 338q0 143 101.5 244.5t244.5 101.5t244.5 -101.5t101.5 -244.5q0 -144 -101.5 -245.5t-244.5 -101.5t-244.5 101.5t-101.5 245.5zM106 338h593q0 122 -87 209t-209 87q-123 0 -210 -87t-87 -209z" />
    <glyph glyph-name="uni25D3" unicode="&#x25d3;" 
d="M403 684q143 0 244.5 -101.5t101.5 -244.5t-101.5 -245t-244.5 -102t-244.5 102t-101.5 245t101.5 244.5t244.5 101.5zM403 41q122 0 209 87t87 210h-593q0 -123 87 -210t210 -87z" />
    <glyph glyph-name="uni25D4" unicode="&#x25d4;" 
d="M403 -9q-143 0 -244.5 101.5t-101.5 245.5q0 143 101.5 244.5t244.5 101.5t244.5 -101.5t101.5 -244.5q0 -144 -101.5 -245.5t-244.5 -101.5zM403 634q-123 0 -210 -87t-87 -209q0 -123 87 -210t210 -87q122 0 209 87t87 210h-296v296z" />
    <glyph glyph-name="uni25D5" unicode="&#x25d5;" 
d="M57 338q0 143 101.5 244.5t244.5 101.5t244.5 -101.5t101.5 -244.5q0 -144 -101.5 -245.5t-244.5 -101.5t-244.5 101.5t-101.5 245.5zM106 338h297v296q-123 0 -210 -87t-87 -209z" />
    <glyph glyph-name="uni25D6" unicode="&#x25d6;" horiz-adv-x="490" 
d="M403 -9q-143 0 -244.5 101.5t-101.5 245.5q0 143 101.5 244.5t244.5 101.5v-693z" />
    <glyph glyph-name="uni25D7" unicode="&#x25d7;" horiz-adv-x="490" 
d="M87 684q144 0 245.5 -101.5t101.5 -244.5q0 -144 -101.5 -245.5t-245.5 -101.5v693z" />
    <glyph glyph-name="uni25DC" unicode="&#x25dc;" horiz-adv-x="459" 
d="M106 338h-49q0 143 101.5 244.5t244.5 101.5v-50q-123 0 -210 -87t-87 -209z" />
    <glyph glyph-name="uni25DD" unicode="&#x25dd;" horiz-adv-x="459" 
d="M353 338q0 122 -87 209t-209 87v50q143 0 244.5 -101.5t101.5 -244.5h-50z" />
    <glyph glyph-name="uni25DE" unicode="&#x25de;" horiz-adv-x="459" 
d="M403 337q0 -143 -101.5 -244.5t-244.5 -101.5v50q122 0 209 87t87 209h50z" />
    <glyph glyph-name="uni25DF" unicode="&#x25df;" horiz-adv-x="459" 
d="M52 337h50q0 -122 87 -209t210 -87v-50q-144 0 -245.5 101.5t-101.5 244.5z" />
    <glyph glyph-name="uni25E0" unicode="&#x25e0;" 
d="M57 338q0 143 101.5 244.5t244.5 101.5t244.5 -101.5t101.5 -244.5h-50q0 122 -87 209t-209 87q-123 0 -210 -87t-87 -209h-49z" />
    <glyph glyph-name="uni25E1" unicode="&#x25e1;" 
d="M403 -9q-143 0 -244.5 101.5t-101.5 245.5h49q0 -123 87 -210t210 -87q122 0 209 87t87 210h50q0 -144 -101.5 -245.5t-244.5 -101.5z" />
    <glyph glyph-name="uni25E2" unicode="&#x25e2;" horiz-adv-x="850" 
d="M762 0h-675l675 675v-675z" />
    <glyph glyph-name="uni25E3" unicode="&#x25e3;" horiz-adv-x="850" 
d="M87 0v675l675 -675h-675z" />
    <glyph glyph-name="uni25E4" unicode="&#x25e4;" horiz-adv-x="850" 
d="M87 675h675l-675 -675v675z" />
    <glyph glyph-name="uni25E5" unicode="&#x25e5;" horiz-adv-x="850" 
d="M762 675v-675l-675 675h675z" />
    <glyph glyph-name="uni25E7" unicode="&#x25e7;" horiz-adv-x="850" 
d="M87 0v675h675v-675h-675zM713 626h-288v-577h288v577z" />
    <glyph glyph-name="uni25E8" unicode="&#x25e8;" horiz-adv-x="850" 
d="M87 675h675v-675h-675v675zM425 49v577h-288v-577h288z" />
    <glyph glyph-name="uni25E9" unicode="&#x25e9;" horiz-adv-x="850" 
d="M87 0v675h675v-675h-675zM713 626l-576 -577h576v577z" />
    <glyph glyph-name="uni25EA" unicode="&#x25ea;" horiz-adv-x="850" 
d="M762 675v-675h-675v675h675zM137 49l576 577h-576v-577z" />
    <glyph glyph-name="uni25EF" unicode="&#x25ef;" 
d="M403 684q143 0 244.5 -101.5t101.5 -244.5q0 -144 -101.5 -245.5t-244.5 -101.5t-244.5 101.5t-101.5 245.5q0 143 101.5 244.5t244.5 101.5zM106 338q0 -123 87 -210t210 -87q122 0 209 87t87 210q0 122 -87 209t-209 87q-123 0 -210 -87t-87 -209z" />
    <glyph glyph-name="uni2639" unicode="&#x2639;" horiz-adv-x="765" 
d="M383 680q142 0 242 -100t100 -242t-100 -242.5t-242 -100.5t-242.5 100.5t-100.5 242.5t100.5 242t242.5 100zM383 33q126 0 215 89.5t89 215.5t-89 215t-215 89t-215.5 -89t-89.5 -215t89.5 -215.5t215.5 -89.5zM220 143h-40q0 79 58.5 131.5t144.5 52.5t144.5 -52.5
t58.5 -131.5h-40q0 61 -47 102t-116 41t-116 -41t-47 -102zM445 453q0 26 18 44t44 18q27 0 45 -18t18 -44q0 -27 -18 -45t-45 -18q-26 0 -44 18t-18 45zM259 515q27 0 45 -18t18 -44q0 -27 -18 -45t-45 -18q-26 0 -44 18t-18 45q0 26 18 44t44 18z" />
    <glyph glyph-name="smileface" unicode="&#x263a;" horiz-adv-x="765" 
d="M383 680q142 0 242 -100t100 -242t-100 -242.5t-242 -100.5t-242.5 100.5t-100.5 242.5t100.5 242t242.5 100zM383 33q126 0 215 89.5t89 215.5t-89 215t-215 89t-215.5 -89t-89.5 -215t89.5 -215.5t215.5 -89.5zM180 297h40q0 -61 47 -102t116 -41t116 41t47 102h40
q0 -79 -58.5 -131.5t-144.5 -52.5t-144.5 52.5t-58.5 131.5zM445 453q0 26 18 44t44 18q27 0 45 -18t18 -44q0 -27 -18 -45t-45 -18q-26 0 -44 18t-18 45zM259 515q27 0 45 -18t18 -44q0 -27 -18 -45t-45 -18q-26 0 -44 18t-18 45q0 26 18 44t44 18z" />
    <glyph glyph-name="invsmileface" unicode="&#x263b;" horiz-adv-x="765" 
d="M383 680q142 0 242 -100t100 -242t-100 -242.5t-242 -100.5t-242.5 100.5t-100.5 242.5t100.5 242t242.5 100zM220 297h-40q0 -79 58.5 -131.5t144.5 -52.5t144.5 52.5t58.5 131.5h-40q0 -61 -47 -102t-116 -41t-116 41t-47 102zM507 390q27 0 45 18t18 45q0 26 -18 44
t-45 18q-26 0 -44 -18t-18 -44q0 -27 18 -45t44 -18zM259 390q27 0 45 18t18 45q0 26 -18 44t-45 18q-26 0 -44 -18t-18 -44q0 -27 18 -45t44 -18z" />
    <glyph glyph-name="uni2756" unicode="&#x2756;" horiz-adv-x="1035" 
d="M267 106l-227 227l218 218l227 -227zM528 367l-227 227l216 217l228 -227zM310 63l218 218l207 -207l-218 -218zM778 117l-207 207l216 217l208 -208z" />
    <glyph glyph-name="uni275B" unicode="&#x275b;" horiz-adv-x="716" 
d="M400 -6q-144 0 -241.5 98.5t-97.5 244.5q0 148 100 246t249 98q122 0 210 -68l-22 -34q-80 58 -184 58q-131 0 -219 -86t-88 -214q0 -91 46 -163.5t121 -104.5q-38 30 -61 77.5t-23 100.5q0 94 66.5 158.5t163.5 64.5q99 0 166.5 -68t67.5 -167q0 -100 -72.5 -170.5
t-181.5 -70.5z" />
    <glyph glyph-name="uni275C" unicode="&#x275c;" horiz-adv-x="716" 
d="M296 205q-99 0 -167 68t-68 167q0 100 72.5 170.5t182.5 70.5q143 0 240.5 -98.5t97.5 -244.5q0 -148 -99.5 -246t-248.5 -98q-121 0 -211 68l23 34q79 -57 184 -57q131 0 218.5 85.5t87.5 213.5q0 91 -45.5 163.5t-120.5 105.5q38 -30 60.5 -78t22.5 -101
q0 -94 -66 -158.5t-163 -64.5z" />
    <glyph glyph-name="uni275D" unicode="&#x275d;" horiz-adv-x="1349" 
d="M695 337q0 148 99.5 246t248.5 98q121 0 211 -68l-23 -34q-80 58 -184 58q-131 0 -218.5 -86t-87.5 -214q0 -91 45.5 -163.5t120.5 -104.5q-38 30 -60.5 77.5t-22.5 100.5q0 94 66 158.5t163 64.5q99 0 167 -68t68 -167q0 -100 -72.5 -170.5t-182.5 -70.5
q-143 0 -240.5 98.5t-97.5 244.5zM400 -6q-144 0 -241.5 98.5t-97.5 244.5q0 148 100 246t249 98q122 0 210 -68l-22 -34q-80 58 -184 58q-131 0 -219 -86t-88 -214q0 -91 46 -163.5t121 -104.5q-38 30 -61 77.5t-23 100.5q0 94 66.5 158.5t163.5 64.5q99 0 166.5 -68
t67.5 -167q0 -100 -72.5 -170.5t-181.5 -70.5z" />
    <glyph glyph-name="uni275E" unicode="&#x275e;" horiz-adv-x="1349" 
d="M61 440q0 100 72.5 170.5t182.5 70.5q143 0 240.5 -98.5t97.5 -244.5q0 -148 -99.5 -246t-248.5 -98q-121 0 -211 68l23 34q79 -57 184 -57q131 0 218.5 85.5t87.5 213.5q0 91 -45.5 163.5t-120.5 105.5q38 -30 60.5 -78t22.5 -101q0 -94 -66 -158.5t-163 -64.5
q-99 0 -167 68t-68 167zM929 205q-98 0 -166 68t-68 167q0 100 72.5 170.5t181.5 70.5q144 0 241.5 -98.5t97.5 -244.5q0 -148 -100 -246t-249 -98q-122 0 -210 68l22 34q79 -57 184 -57q131 0 219 85.5t88 213.5q0 91 -46 163.5t-121 105.5q38 -30 61 -78.5t23 -100.5
q0 -94 -66.5 -158.5t-163.5 -64.5z" />
    <glyph glyph-name="uni278A" unicode="&#x278a;" horiz-adv-x="835" 
d="M418 701q151 0 257 -106t106 -257t-106 -257.5t-257 -106.5q-152 0 -258 106t-106 258q0 151 106.5 257t257.5 106zM312 465l16 -35l79 43v-321h41v371h-28z" />
    <glyph glyph-name="uni278B" unicode="&#x278b;" horiz-adv-x="835" 
d="M418 701q151 0 257 -106t106 -257t-106 -257.5t-257 -106.5q-152 0 -258 106t-106 258q0 151 106.5 257t257.5 106zM290 441l38 -18q25 64 87 64q34 0 58 -21t24 -51q0 -24 -15.5 -45t-46.5 -52l-142 -137v-29h253v39h-189l106 101q77 70 77 124q0 46 -36.5 78.5
t-88.5 32.5q-42 0 -75.5 -23.5t-49.5 -62.5z" />
    <glyph glyph-name="uni278C" unicode="&#x278c;" horiz-adv-x="835" 
d="M54 338q0 151 106.5 257t257.5 106t257 -106t106 -257t-106 -257.5t-257 -106.5q-152 0 -258 106t-106 258zM409 148q57 0 95 30.5t38 76.5q0 29 -18.5 53t-50.5 35q28 11 44.5 33t16.5 48q0 44 -35.5 73.5t-88.5 29.5q-42 0 -74.5 -20t-47.5 -52l36 -14q22 46 84 46
q35 0 59 -18.5t24 -45.5q0 -28 -25 -46.5t-62 -18.5h-21v-34h28q38 0 63.5 -19.5t25.5 -48.5t-26 -49t-66 -20q-30 0 -53.5 13t-32.5 34l-39 -14q14 -33 48 -52.5t78 -19.5z" />
    <glyph glyph-name="uni278D" unicode="&#x278d;" horiz-adv-x="835" 
d="M54 338q0 151 106.5 257t257.5 106t257 -106t106 -257t-106 -257.5t-257 -106.5q-152 0 -258 106t-106 258zM458 523l-210 -254v-40h207v-77h41v77h56v40h-56v254h-38zM455 269h-157l157 191v-191z" />
    <glyph glyph-name="uni278E" unicode="&#x278e;" horiz-adv-x="835" 
d="M418 701q151 0 257 -106t106 -257t-106 -257.5t-257 -106.5q-152 0 -258 106t-106 258q0 151 106.5 257t257.5 106zM413 148q58 0 97.5 34.5t39.5 86.5q0 50 -38.5 84.5t-95.5 34.5h-64l10 97h159v38h-193l-18 -172h99q41 0 69.5 -24t28.5 -59q0 -34 -27 -57.5t-67 -23.5
q-62 0 -89 52l-41 -12q16 -36 50.5 -57.5t79.5 -21.5z" />
    <glyph glyph-name="uni278F" unicode="&#x278f;" horiz-adv-x="835" 
d="M418 701q151 0 257 -106t106 -257t-106 -257.5t-257 -106.5q-152 0 -258 106t-106 258q0 151 106.5 257t257.5 106zM421 148q56 0 95 34.5t39 84.5q0 51 -38.5 86t-93.5 35q-31 0 -57 -14t-40 -36v60q0 37 28.5 63t69.5 26q57 0 84 -43l37 19q-38 64 -120 64
q-59 0 -99 -37.5t-40 -92.5v-130q0 -50 38.5 -84.5t96.5 -34.5zM421 187q-40 0 -66.5 23t-26.5 58q0 34 26.5 57t66.5 23q38 0 64.5 -23t26.5 -57t-26.5 -57.5t-64.5 -23.5z" />
    <glyph glyph-name="uni2790" unicode="&#x2790;" horiz-adv-x="835" 
d="M418 701q151 0 257 -106t106 -257t-106 -257.5t-257 -106.5q-152 0 -258 106t-106 258q0 151 106.5 257t257.5 106zM285 485h199l-134 -333h46l133 331v40h-244v-38z" />
    <glyph glyph-name="uni2791" unicode="&#x2791;" horiz-adv-x="835" 
d="M418 701q151 0 257 -106t106 -257t-106 -257.5t-257 -106.5q-152 0 -258 106t-106 258q0 151 106.5 257t257.5 106zM287 253q0 -45 38.5 -75t95.5 -30t95.5 30t38.5 75q0 31 -19.5 55.5t-52.5 36.5q60 27 60 84q0 41 -35 69.5t-87 28.5t-87.5 -28.5t-35.5 -69.5
q0 -27 16.5 -49.5t44.5 -34.5q-33 -12 -52.5 -36.5t-19.5 -55.5zM329 257q0 29 26 48.5t66 19.5q39 0 65 -19.5t26 -48.5q0 -30 -26 -50t-65 -20q-40 0 -66 20t-26 50zM421 364q-35 0 -58 17.5t-23 44.5q0 26 23 43.5t58 17.5q34 0 57 -17.5t23 -43.5q0 -27 -22.5 -44.5
t-57.5 -17.5z" />
    <glyph glyph-name="uni2792" unicode="&#x2792;" horiz-adv-x="835" 
d="M418 701q151 0 257 -106t106 -257t-106 -257.5t-257 -106.5q-152 0 -258 106t-106 258q0 151 106.5 257t257.5 106zM413 281q66 0 96 55v-59q0 -38 -29 -64t-72 -26q-59 0 -87 44l-36 -19q38 -64 123 -64q61 0 101 37t40 92v130q0 51 -38 85.5t-95 34.5q-56 0 -95 -35
t-39 -87q0 -53 38 -88.5t93 -35.5zM416 320q-39 0 -65 24.5t-26 59.5t26 59t65 24t65 -24t26 -59t-26 -59.5t-65 -24.5z" />
    <glyph glyph-name="fi" unicode="&#xfb01;" horiz-adv-x="494" 
d="M19 401v49h79v148q0 54 34.5 90.5t86.5 36.5h59v-53h-55q-30 0 -50 -23t-20 -57v-142h126v-49h-126v-401h-55v401h-79zM369 450h54v-450h-54v450zM396 558q-18 0 -29.5 11.5t-11.5 29.5q0 17 11.5 29t29.5 12q17 0 29 -12t12 -29q0 -18 -12 -29.5t-29 -11.5z" />
    <glyph glyph-name="f_f_i" unicode="&#xfb03;" horiz-adv-x="767" 
d="M98 401h-79v49h79v148q0 54 34.5 90.5t86.5 36.5h59v-53h-55q-30 0 -50 -23t-20 -57v-142h218v148q0 54 34.5 90.5t86.5 36.5h59v-53h-55q-30 0 -50 -23t-20 -57v-142h270v-450h-55v401h-215v-401h-55v401h-218v-401h-55v401zM669 558q-18 0 -30 11.5t-12 29.5
q0 17 12 29t30 12q17 0 29 -12t12 -29q0 -18 -12 -29.5t-29 -11.5z" />
    </font>
</defs>
</svg>
